<?xml version="1.0" encoding="UTF-8"?>
<svg xmlns="http://www.w3.org/2000/svg" xmlns:xlink="http://www.w3.org/1999/xlink" width="854" height="480" viewBox="0 0 854 480">
<defs>
<g>
<g id="glyph-0-0">
<path d="M 1.015625 0 L 1.015625 -1.125 L 1.359375 -1.125 C 1.960938 -1.125 2.476562 -1.234375 2.90625 -1.453125 C 3.332031 -1.671875 3.546875 -2.203125 3.546875 -3.046875 L 3.546875 -16.109375 C 3.546875 -16.890625 3.328125 -17.382812 2.890625 -17.59375 C 2.453125 -17.8125 1.941406 -17.921875 1.359375 -17.921875 L 1.015625 -17.921875 L 1.015625 -19.046875 L 8.15625 -19.046875 C 10.46875 -19.046875 12.1875 -18.65625 13.3125 -17.875 C 14.445312 -17.101562 15.015625 -15.898438 15.015625 -14.265625 C 15.015625 -13.078125 14.695312 -12.15625 14.0625 -11.5 C 13.4375 -10.851562 12.648438 -10.378906 11.703125 -10.078125 L 11.703125 -9.96875 C 12.910156 -9.757812 13.894531 -9.257812 14.65625 -8.46875 C 15.425781 -7.675781 15.8125 -6.566406 15.8125 -5.140625 C 15.8125 -1.710938 13.53125 0 8.96875 0 Z M 8.078125 -10.640625 C 9.640625 -10.640625 10.707031 -10.921875 11.28125 -11.484375 C 11.863281 -12.054688 12.15625 -12.984375 12.15625 -14.265625 C 12.15625 -15.585938 11.84375 -16.488281 11.21875 -16.96875 C 10.601562 -17.457031 9.539062 -17.703125 8.03125 -17.703125 L 6.234375 -17.703125 L 6.234375 -10.640625 Z M 8.828125 -1.328125 C 10.335938 -1.328125 11.40625 -1.617188 12.03125 -2.203125 C 12.65625 -2.796875 12.96875 -3.804688 12.96875 -5.234375 C 12.96875 -6.617188 12.675781 -7.644531 12.09375 -8.3125 C 11.519531 -8.976562 10.445312 -9.3125 8.875 -9.3125 L 6.234375 -9.3125 L 6.234375 -1.328125 Z "/>
</g>
<g id="glyph-0-1">
<path d="M 7.28125 0.265625 C 5.875 0.265625 4.785156 -0.144531 4.015625 -0.96875 C 3.253906 -1.800781 2.875 -3.132812 2.875 -4.96875 L 2.875 -11.359375 C 2.875 -12.140625 2.65625 -12.632812 2.21875 -12.84375 C 1.789062 -13.0625 1.28125 -13.171875 0.6875 -13.171875 L 0.609375 -13.171875 L 0.609375 -14.296875 L 5.390625 -14.296875 L 5.390625 -5.09375 C 5.390625 -3.9375 5.582031 -3.035156 5.96875 -2.390625 C 6.363281 -1.753906 7.101562 -1.4375 8.1875 -1.4375 C 9.363281 -1.4375 10.21875 -1.832031 10.75 -2.625 C 11.28125 -3.414062 11.546875 -4.460938 11.546875 -5.765625 L 11.546875 -11.25 C 11.546875 -12.09375 11.332031 -12.625 10.90625 -12.84375 C 10.476562 -13.0625 9.960938 -13.171875 9.359375 -13.171875 L 9.28125 -13.171875 L 9.28125 -14.296875 L 14.0625 -14.296875 L 14.0625 -2.90625 C 14.0625 -2.125 14.273438 -1.628906 14.703125 -1.421875 C 15.140625 -1.222656 15.65625 -1.125 16.25 -1.125 L 16.328125 -1.125 L 16.328125 0 L 12.078125 0 L 11.734375 -2.15625 L 11.609375 -2.15625 C 11.054688 -1.164062 10.414062 -0.515625 9.6875 -0.203125 C 8.957031 0.109375 8.15625 0.265625 7.28125 0.265625 Z "/>
</g>
<g id="glyph-0-2">
<path d="M 9.46875 0.265625 C 8.4375 0.265625 7.59375 0.046875 6.9375 -0.390625 C 6.289062 -0.828125 5.773438 -1.390625 5.390625 -2.078125 L 5.234375 -2.078125 L 4.75 0 L 0.484375 0 L 0.484375 -1.125 L 0.6875 -1.125 C 1.289062 -1.125 1.804688 -1.234375 2.234375 -1.453125 C 2.660156 -1.671875 2.875 -2.203125 2.875 -3.046875 L 2.875 -17.34375 C 2.875 -18.125 2.65625 -18.617188 2.21875 -18.828125 C 1.789062 -19.046875 1.28125 -19.15625 0.6875 -19.15625 L 0.484375 -19.15625 L 0.484375 -20.265625 L 5.390625 -20.265625 L 5.390625 -15.359375 C 5.390625 -15.054688 5.382812 -14.671875 5.375 -14.203125 C 5.363281 -13.734375 5.347656 -13.28125 5.328125 -12.84375 C 5.316406 -12.40625 5.300781 -12.085938 5.28125 -11.890625 L 5.390625 -11.890625 C 5.796875 -12.710938 6.316406 -13.363281 6.953125 -13.84375 C 7.597656 -14.320312 8.4375 -14.5625 9.46875 -14.5625 C 11.226562 -14.5625 12.570312 -13.96875 13.5 -12.78125 C 14.4375 -11.601562 14.90625 -9.734375 14.90625 -7.171875 C 14.90625 -4.597656 14.4375 -2.710938 13.5 -1.515625 C 12.570312 -0.328125 11.226562 0.265625 9.46875 0.265625 Z M 9.046875 -1.4375 C 10.210938 -1.4375 11.050781 -1.929688 11.5625 -2.921875 C 12.070312 -3.910156 12.328125 -5.335938 12.328125 -7.203125 C 12.328125 -9.109375 12.070312 -10.523438 11.5625 -11.453125 C 11.050781 -12.390625 10.203125 -12.859375 9.015625 -12.859375 C 7.628906 -12.859375 6.675781 -12.390625 6.15625 -11.453125 C 5.644531 -10.523438 5.390625 -9.097656 5.390625 -7.171875 C 5.390625 -5.328125 5.644531 -3.910156 6.15625 -2.921875 C 6.675781 -1.929688 7.640625 -1.4375 9.046875 -1.4375 Z "/>
</g>
<g id="glyph-0-3">
<path d="M 0.34375 0 L 0.34375 -1.125 L 0.6875 -1.125 C 1.289062 -1.125 1.804688 -1.234375 2.234375 -1.453125 C 2.660156 -1.671875 2.875 -2.203125 2.875 -3.046875 L 2.875 -17.34375 C 2.875 -18.125 2.65625 -18.617188 2.21875 -18.828125 C 1.789062 -19.046875 1.28125 -19.15625 0.6875 -19.15625 L 0.34375 -19.15625 L 0.34375 -20.265625 L 5.390625 -20.265625 L 5.390625 -3.046875 C 5.390625 -2.203125 5.601562 -1.671875 6.03125 -1.453125 C 6.457031 -1.234375 6.972656 -1.125 7.578125 -1.125 L 7.921875 -1.125 L 7.921875 0 Z "/>
</g>
<g id="glyph-0-4">
<path d="M 7.65625 0.265625 C 5.71875 0.265625 4.203125 -0.375 3.109375 -1.65625 C 2.015625 -2.9375 1.46875 -4.734375 1.46875 -7.046875 C 1.46875 -9.535156 1.984375 -11.410156 3.015625 -12.671875 C 4.046875 -13.929688 5.503906 -14.5625 7.390625 -14.5625 C 9.109375 -14.5625 10.460938 -14.023438 11.453125 -12.953125 C 12.441406 -11.890625 12.9375 -10.300781 12.9375 -8.1875 L 12.9375 -6.96875 L 4.046875 -6.96875 C 4.085938 -5.019531 4.441406 -3.601562 5.109375 -2.71875 C 5.773438 -1.84375 6.75 -1.40625 8.03125 -1.40625 C 8.957031 -1.40625 9.742188 -1.597656 10.390625 -1.984375 C 11.035156 -2.367188 11.519531 -2.800781 11.84375 -3.28125 C 11.96875 -3.226562 12.082031 -3.117188 12.1875 -2.953125 C 12.289062 -2.796875 12.34375 -2.601562 12.34375 -2.375 C 12.34375 -2.019531 12.171875 -1.632812 11.828125 -1.21875 C 11.492188 -0.8125 10.976562 -0.460938 10.28125 -0.171875 C 9.59375 0.117188 8.71875 0.265625 7.65625 0.265625 Z M 10.234375 -8.40625 C 10.234375 -9.820312 10.015625 -10.960938 9.578125 -11.828125 C 9.148438 -12.691406 8.398438 -13.125 7.328125 -13.125 C 6.359375 -13.125 5.597656 -12.71875 5.046875 -11.90625 C 4.503906 -11.101562 4.191406 -9.9375 4.109375 -8.40625 Z "/>
</g>
<g id="glyph-0-5">
</g>
<g id="glyph-0-6">
<path d="M 6.59375 0.265625 C 4.84375 0.265625 3.519531 -0.078125 2.625 -0.765625 C 1.726562 -1.460938 1.28125 -2.375 1.28125 -3.5 C 1.28125 -4.03125 1.445312 -4.457031 1.78125 -4.78125 C 2.125 -5.113281 2.597656 -5.28125 3.203125 -5.28125 C 3.234375 -4.550781 3.375 -3.859375 3.625 -3.203125 C 3.875 -2.554688 4.253906 -2.035156 4.765625 -1.640625 C 5.285156 -1.242188 5.960938 -1.046875 6.796875 -1.046875 C 7.992188 -1.046875 8.925781 -1.332031 9.59375 -1.90625 C 10.269531 -2.488281 10.609375 -3.320312 10.609375 -4.40625 C 10.609375 -5.0625 10.476562 -5.613281 10.21875 -6.0625 C 9.96875 -6.519531 9.546875 -6.941406 8.953125 -7.328125 C 8.359375 -7.722656 7.535156 -8.132812 6.484375 -8.5625 C 4.828125 -9.238281 3.59375 -10.03125 2.78125 -10.9375 C 1.976562 -11.84375 1.578125 -13.023438 1.578125 -14.484375 C 1.578125 -15.492188 1.828125 -16.359375 2.328125 -17.078125 C 2.835938 -17.796875 3.53125 -18.347656 4.40625 -18.734375 C 5.289062 -19.117188 6.296875 -19.3125 7.421875 -19.3125 C 8.992188 -19.3125 10.21875 -19.007812 11.09375 -18.40625 C 11.96875 -17.800781 12.40625 -17.109375 12.40625 -16.328125 C 12.40625 -15.753906 12.210938 -15.320312 11.828125 -15.03125 C 11.441406 -14.738281 10.929688 -14.59375 10.296875 -14.59375 C 10.296875 -15.144531 10.203125 -15.675781 10.015625 -16.1875 C 9.828125 -16.707031 9.515625 -17.132812 9.078125 -17.46875 C 8.640625 -17.8125 8.050781 -17.984375 7.3125 -17.984375 C 6.28125 -17.984375 5.476562 -17.707031 4.90625 -17.15625 C 4.332031 -16.601562 4.046875 -15.863281 4.046875 -14.9375 C 4.046875 -14.226562 4.175781 -13.628906 4.4375 -13.140625 C 4.695312 -12.648438 5.128906 -12.210938 5.734375 -11.828125 C 6.335938 -11.441406 7.15625 -11.035156 8.1875 -10.609375 C 9.75 -9.972656 10.96875 -9.234375 11.84375 -8.390625 C 12.71875 -7.554688 13.15625 -6.457031 13.15625 -5.09375 C 13.15625 -3.40625 12.5625 -2.085938 11.375 -1.140625 C 10.195312 -0.203125 8.601562 0.265625 6.59375 0.265625 Z "/>
</g>
<g id="glyph-0-7">
<path d="M 7.65625 0.265625 C 5.738281 0.265625 4.226562 -0.34375 3.125 -1.5625 C 2.019531 -2.789062 1.46875 -4.660156 1.46875 -7.171875 C 1.46875 -9.660156 1.992188 -11.515625 3.046875 -12.734375 C 4.109375 -13.953125 5.671875 -14.5625 7.734375 -14.5625 C 9.648438 -14.5625 11.160156 -13.953125 12.265625 -12.734375 C 13.367188 -11.515625 13.921875 -9.660156 13.921875 -7.171875 C 13.921875 -4.660156 13.390625 -2.789062 12.328125 -1.5625 C 11.273438 -0.34375 9.71875 0.265625 7.65625 0.265625 Z M 7.703125 -1.125 C 9.035156 -1.125 9.972656 -1.632812 10.515625 -2.65625 C 11.054688 -3.675781 11.328125 -5.179688 11.328125 -7.171875 C 11.328125 -9.160156 11.050781 -10.65625 10.5 -11.65625 C 9.957031 -12.65625 9.019531 -13.15625 7.6875 -13.15625 C 6.351562 -13.15625 5.410156 -12.65625 4.859375 -11.65625 C 4.316406 -10.65625 4.046875 -9.160156 4.046875 -7.171875 C 4.046875 -5.179688 4.320312 -3.675781 4.875 -2.65625 C 5.425781 -1.632812 6.367188 -1.125 7.703125 -1.125 Z "/>
</g>
<g id="glyph-0-8">
<path d="M 0.875 0 L 0.875 -1.125 L 0.953125 -1.125 C 1.554688 -1.125 2.070312 -1.234375 2.5 -1.453125 C 2.925781 -1.671875 3.140625 -2.203125 3.140625 -3.046875 L 3.140625 -11.359375 C 3.140625 -12.140625 2.921875 -12.632812 2.484375 -12.84375 C 2.054688 -13.0625 1.546875 -13.171875 0.953125 -13.171875 L 0.875 -13.171875 L 0.875 -14.296875 L 4.984375 -14.296875 L 5.5 -11.65625 L 5.625 -11.65625 C 5.851562 -12.1875 6.101562 -12.675781 6.375 -13.125 C 6.644531 -13.570312 7 -13.921875 7.4375 -14.171875 C 7.882812 -14.429688 8.5 -14.5625 9.28125 -14.5625 C 10.257812 -14.5625 10.984375 -14.390625 11.453125 -14.046875 C 11.921875 -13.710938 12.15625 -13.234375 12.15625 -12.609375 C 12.15625 -12.054688 11.960938 -11.601562 11.578125 -11.25 C 11.203125 -10.894531 10.570312 -10.71875 9.6875 -10.71875 C 9.6875 -11.445312 9.578125 -11.972656 9.359375 -12.296875 C 9.148438 -12.628906 8.785156 -12.796875 8.265625 -12.796875 C 7.765625 -12.796875 7.347656 -12.597656 7.015625 -12.203125 C 6.679688 -11.816406 6.414062 -11.320312 6.21875 -10.71875 C 6.019531 -10.113281 5.875 -9.488281 5.78125 -8.84375 C 5.695312 -8.195312 5.65625 -7.613281 5.65625 -7.09375 L 5.65625 -2.90625 C 5.65625 -2.125 5.875 -1.628906 6.3125 -1.421875 C 6.75 -1.222656 7.257812 -1.125 7.84375 -1.125 L 8.59375 -1.125 L 8.59375 0 Z "/>
</g>
<g id="glyph-0-9">
<path d="M 6.40625 0.265625 C 5.050781 0.265625 4.066406 -0.0390625 3.453125 -0.65625 C 2.835938 -1.269531 2.53125 -2.34375 2.53125 -3.875 L 2.53125 -12.78125 L 0.5 -12.78125 L 0.5 -13.84375 C 0.820312 -13.84375 1.175781 -13.910156 1.5625 -14.046875 C 1.957031 -14.179688 2.300781 -14.398438 2.59375 -14.703125 C 2.894531 -15.015625 3.140625 -15.398438 3.328125 -15.859375 C 3.523438 -16.328125 3.6875 -16.898438 3.8125 -17.578125 L 5.046875 -17.578125 L 5.046875 -14.296875 L 8.53125 -14.296875 L 8.53125 -12.78125 L 5.046875 -12.78125 L 5.046875 -3.78125 C 5.046875 -2.875 5.226562 -2.207031 5.59375 -1.78125 C 5.96875 -1.351562 6.457031 -1.140625 7.0625 -1.140625 C 7.382812 -1.140625 7.675781 -1.15625 7.9375 -1.1875 C 8.207031 -1.226562 8.488281 -1.273438 8.78125 -1.328125 L 8.78125 -0.15625 C 8.539062 -0.0507812 8.191406 0.0390625 7.734375 0.125 C 7.273438 0.21875 6.832031 0.265625 6.40625 0.265625 Z "/>
</g>
</g>
</defs>
<g fill="rgb(100%, 100%, 100%)" fill-opacity="1">
<use xlink:href="#glyph-0-0" x="30" y="48.506836"/>
<use xlink:href="#glyph-0-1" x="47" y="48.506836"/>
<use xlink:href="#glyph-0-2" x="64" y="48.506836"/>
<use xlink:href="#glyph-0-2" x="80" y="48.506836"/>
<use xlink:href="#glyph-0-3" x="96" y="48.506836"/>
<use xlink:href="#glyph-0-4" x="104" y="48.506836"/>
<use xlink:href="#glyph-0-5" x="118" y="48.506836"/>
<use xlink:href="#glyph-0-6" x="125" y="48.506836"/>
<use xlink:href="#glyph-0-7" x="140" y="48.506836"/>
<use xlink:href="#glyph-0-8" x="155" y="48.506836"/>
<use xlink:href="#glyph-0-9" x="168" y="48.506836"/>
</g>
</svg>
