<?xml version="1.0" encoding="UTF-8"?>
<svg xmlns="http://www.w3.org/2000/svg" xmlns:xlink="http://www.w3.org/1999/xlink" width="854" height="480" viewBox="0 0 854 480">
<defs>
<g>
<g id="glyph-0-0">
<path d="M 4 0 L 4 -1.125 L 4.609375 -1.125 C 5.203125 -1.125 5.710938 -1.222656 6.140625 -1.421875 C 6.578125 -1.628906 6.796875 -2.125 6.796875 -2.90625 L 6.796875 -17.703125 L 4.234375 -17.703125 C 3.453125 -17.703125 2.910156 -17.484375 2.609375 -17.046875 C 2.304688 -16.617188 2.117188 -16.109375 2.046875 -15.515625 L 1.921875 -14.375 L 0.53125 -14.375 L 0.671875 -19.046875 L 15.6875 -19.046875 L 15.8125 -14.375 L 14.421875 -14.375 L 14.296875 -15.515625 C 14.222656 -16.109375 14.035156 -16.617188 13.734375 -17.046875 C 13.429688 -17.484375 12.878906 -17.703125 12.078125 -17.703125 L 9.5 -17.703125 L 9.5 -3.046875 C 9.5 -2.203125 9.710938 -1.671875 10.140625 -1.453125 C 10.566406 -1.234375 11.082031 -1.125 11.6875 -1.125 L 12.296875 -1.125 L 12.296875 0 Z "/>
</g>
<g id="glyph-0-1">
<path d="M 7.65625 0.265625 C 5.738281 0.265625 4.226562 -0.34375 3.125 -1.5625 C 2.019531 -2.789062 1.46875 -4.660156 1.46875 -7.171875 C 1.46875 -9.660156 1.992188 -11.515625 3.046875 -12.734375 C 4.109375 -13.953125 5.671875 -14.5625 7.734375 -14.5625 C 9.648438 -14.5625 11.160156 -13.953125 12.265625 -12.734375 C 13.367188 -11.515625 13.921875 -9.660156 13.921875 -7.171875 C 13.921875 -4.660156 13.390625 -2.789062 12.328125 -1.5625 C 11.273438 -0.34375 9.71875 0.265625 7.65625 0.265625 Z M 7.703125 -1.125 C 9.035156 -1.125 9.972656 -1.632812 10.515625 -2.65625 C 11.054688 -3.675781 11.328125 -5.179688 11.328125 -7.171875 C 11.328125 -9.160156 11.050781 -10.65625 10.5 -11.65625 C 9.957031 -12.65625 9.019531 -13.15625 7.6875 -13.15625 C 6.351562 -13.15625 5.410156 -12.65625 4.859375 -11.65625 C 4.316406 -10.65625 4.046875 -9.160156 4.046875 -7.171875 C 4.046875 -5.179688 4.320312 -3.675781 4.875 -2.65625 C 5.425781 -1.632812 6.367188 -1.125 7.703125 -1.125 Z "/>
</g>
<g id="glyph-0-2">
<path d="M 6.40625 0.265625 C 5.050781 0.265625 4.066406 -0.0390625 3.453125 -0.65625 C 2.835938 -1.269531 2.53125 -2.34375 2.53125 -3.875 L 2.53125 -12.78125 L 0.5 -12.78125 L 0.5 -13.84375 C 0.820312 -13.84375 1.175781 -13.910156 1.5625 -14.046875 C 1.957031 -14.179688 2.300781 -14.398438 2.59375 -14.703125 C 2.894531 -15.015625 3.140625 -15.398438 3.328125 -15.859375 C 3.523438 -16.328125 3.6875 -16.898438 3.8125 -17.578125 L 5.046875 -17.578125 L 5.046875 -14.296875 L 8.53125 -14.296875 L 8.53125 -12.78125 L 5.046875 -12.78125 L 5.046875 -3.78125 C 5.046875 -2.875 5.226562 -2.207031 5.59375 -1.78125 C 5.96875 -1.351562 6.457031 -1.140625 7.0625 -1.140625 C 7.382812 -1.140625 7.675781 -1.15625 7.9375 -1.1875 C 8.207031 -1.226562 8.488281 -1.273438 8.78125 -1.328125 L 8.78125 -0.15625 C 8.539062 -0.0507812 8.191406 0.0390625 7.734375 0.125 C 7.273438 0.21875 6.832031 0.265625 6.40625 0.265625 Z "/>
</g>
<g id="glyph-0-3">
<path d="M 5.46875 0.265625 C 4.28125 0.265625 3.289062 -0.078125 2.5 -0.765625 C 1.71875 -1.460938 1.328125 -2.539062 1.328125 -4 C 1.328125 -5.425781 1.828125 -6.472656 2.828125 -7.140625 C 3.835938 -7.816406 5.367188 -8.191406 7.421875 -8.265625 L 9.625 -8.34375 L 9.625 -9.953125 C 9.625 -10.585938 9.570312 -11.148438 9.46875 -11.640625 C 9.363281 -12.128906 9.128906 -12.515625 8.765625 -12.796875 C 8.410156 -13.085938 7.867188 -13.234375 7.140625 -13.234375 C 6.472656 -13.234375 5.957031 -13.109375 5.59375 -12.859375 C 5.238281 -12.609375 5.003906 -12.265625 4.890625 -11.828125 C 4.773438 -11.390625 4.71875 -10.890625 4.71875 -10.328125 C 3.96875 -10.328125 3.398438 -10.453125 3.015625 -10.703125 C 2.640625 -10.960938 2.453125 -11.394531 2.453125 -12 C 2.453125 -12.625 2.671875 -13.125 3.109375 -13.5 C 3.546875 -13.875 4.128906 -14.144531 4.859375 -14.3125 C 5.585938 -14.476562 6.382812 -14.5625 7.25 -14.5625 C 8.882812 -14.5625 10.109375 -14.210938 10.921875 -13.515625 C 11.734375 -12.828125 12.140625 -11.640625 12.140625 -9.953125 L 12.140625 -3.046875 C 12.140625 -2.296875 12.257812 -1.785156 12.5 -1.515625 C 12.75 -1.253906 13.179688 -1.125 13.796875 -1.125 L 13.875 -1.125 L 13.875 0 L 10.265625 0 L 9.84375 -2.296875 L 9.625 -2.296875 C 9.25 -1.796875 8.882812 -1.351562 8.53125 -0.96875 C 8.175781 -0.59375 7.765625 -0.289062 7.296875 -0.0625 C 6.828125 0.15625 6.21875 0.265625 5.46875 0.265625 Z M 6.078125 -1.390625 C 7.160156 -1.390625 8.019531 -1.722656 8.65625 -2.390625 C 9.300781 -3.054688 9.625 -3.957031 9.625 -5.09375 L 9.625 -7.25 L 7.921875 -7.171875 C 6.410156 -7.097656 5.363281 -6.789062 4.78125 -6.25 C 4.207031 -5.707031 3.921875 -4.914062 3.921875 -3.875 C 3.921875 -2.21875 4.640625 -1.390625 6.078125 -1.390625 Z "/>
</g>
<g id="glyph-0-4">
<path d="M 0.34375 0 L 0.34375 -1.125 L 0.6875 -1.125 C 1.289062 -1.125 1.804688 -1.234375 2.234375 -1.453125 C 2.660156 -1.671875 2.875 -2.203125 2.875 -3.046875 L 2.875 -17.34375 C 2.875 -18.125 2.65625 -18.617188 2.21875 -18.828125 C 1.789062 -19.046875 1.28125 -19.15625 0.6875 -19.15625 L 0.34375 -19.15625 L 0.34375 -20.265625 L 5.390625 -20.265625 L 5.390625 -3.046875 C 5.390625 -2.203125 5.601562 -1.671875 6.03125 -1.453125 C 6.457031 -1.234375 6.972656 -1.125 7.578125 -1.125 L 7.921875 -1.125 L 7.921875 0 Z "/>
</g>
<g id="glyph-0-5">
<path d="M 4.296875 -16.96875 C 3.867188 -16.96875 3.507812 -17.085938 3.21875 -17.328125 C 2.925781 -17.578125 2.78125 -18.003906 2.78125 -18.609375 C 2.78125 -19.234375 2.925781 -19.664062 3.21875 -19.90625 C 3.507812 -20.144531 3.867188 -20.265625 4.296875 -20.265625 C 4.703125 -20.265625 5.054688 -20.144531 5.359375 -19.90625 C 5.660156 -19.664062 5.8125 -19.234375 5.8125 -18.609375 C 5.8125 -18.003906 5.660156 -17.578125 5.359375 -17.328125 C 5.054688 -17.085938 4.703125 -16.96875 4.296875 -16.96875 Z M 0.609375 0 L 0.609375 -1.125 L 0.953125 -1.125 C 1.546875 -1.125 2.054688 -1.222656 2.484375 -1.421875 C 2.921875 -1.628906 3.140625 -2.125 3.140625 -2.90625 L 3.140625 -11.359375 C 3.140625 -12.140625 2.921875 -12.632812 2.484375 -12.84375 C 2.054688 -13.0625 1.546875 -13.171875 0.953125 -13.171875 L 0.875 -13.171875 L 0.875 -14.296875 L 5.65625 -14.296875 L 5.65625 -3.046875 C 5.65625 -2.203125 5.867188 -1.671875 6.296875 -1.453125 C 6.722656 -1.234375 7.238281 -1.125 7.84375 -1.125 L 8.1875 -1.125 L 8.1875 0 Z "/>
</g>
<g id="glyph-0-6">
<path d="M 1.015625 5.140625 C 2.222656 5.140625 3.210938 4.910156 3.984375 4.453125 C 4.753906 3.992188 5.378906 3.367188 5.859375 2.578125 C 6.347656 1.785156 6.734375 0.890625 7.015625 -0.109375 L 2.078125 -11.765625 C 1.847656 -12.316406 1.601562 -12.6875 1.34375 -12.875 C 1.082031 -13.070312 0.695312 -13.171875 0.1875 -13.171875 L 0.109375 -13.171875 L 0.109375 -14.296875 L 6.515625 -14.296875 L 6.515625 -13.171875 L 6.421875 -13.171875 C 5.359375 -13.171875 4.828125 -12.742188 4.828125 -11.890625 C 4.828125 -11.585938 4.898438 -11.257812 5.046875 -10.90625 L 6.984375 -6.15625 C 7.160156 -5.75 7.332031 -5.300781 7.5 -4.8125 C 7.675781 -4.320312 7.832031 -3.851562 7.96875 -3.40625 C 8.113281 -2.96875 8.210938 -2.597656 8.265625 -2.296875 C 8.390625 -2.804688 8.550781 -3.335938 8.75 -3.890625 C 8.957031 -4.441406 9.148438 -4.984375 9.328125 -5.515625 L 11.125 -10.71875 C 11.28125 -11.144531 11.359375 -11.53125 11.359375 -11.875 C 11.359375 -12.738281 10.773438 -13.171875 9.609375 -13.171875 L 9.515625 -13.171875 L 9.515625 -14.296875 L 15.0625 -14.296875 L 15.0625 -13.171875 L 14.984375 -13.171875 C 14.472656 -13.171875 14.082031 -13.035156 13.8125 -12.765625 C 13.550781 -12.503906 13.269531 -11.945312 12.96875 -11.09375 L 8.90625 0.109375 C 8.445312 1.398438 8.003906 2.453125 7.578125 3.265625 C 7.148438 4.085938 6.671875 4.726562 6.140625 5.1875 C 5.617188 5.644531 4.96875 5.960938 4.1875 6.140625 C 3.40625 6.316406 2.425781 6.40625 1.25 6.40625 L 1.015625 6.40625 Z "/>
</g>
</g>
</defs>
<g fill="rgb(61.176471%, 86.27451%, 92.156863%)" fill-opacity="1">
<use xlink:href="#glyph-0-0" x="30" y="48.506836"/>
<use xlink:href="#glyph-0-1" x="45" y="48.506836"/>
<use xlink:href="#glyph-0-2" x="60" y="48.506836"/>
<use xlink:href="#glyph-0-3" x="69" y="48.506836"/>
<use xlink:href="#glyph-0-4" x="84" y="48.506836"/>
<use xlink:href="#glyph-0-5" x="92" y="48.506836"/>
<use xlink:href="#glyph-0-2" x="101" y="48.506836"/>
<use xlink:href="#glyph-0-6" x="110" y="48.506836"/>
</g>
</svg>
