<?xml version="1.0" encoding="UTF-8"?>
<svg xmlns="http://www.w3.org/2000/svg" xmlns:xlink="http://www.w3.org/1999/xlink" width="854" height="480" viewBox="0 0 854 480">
<defs>
<g>
<g id="glyph-0-0">
<path d="M 1.4375 0.0625 C 1.0625 0.0625 0.773438 -0.0078125 0.578125 -0.15625 C 0.378906 -0.3125 0.28125 -0.515625 0.28125 -0.765625 C 0.28125 -0.878906 0.316406 -0.972656 0.390625 -1.046875 C 0.460938 -1.117188 0.566406 -1.15625 0.703125 -1.15625 C 0.710938 -1 0.742188 -0.847656 0.796875 -0.703125 C 0.847656 -0.554688 0.929688 -0.441406 1.046875 -0.359375 C 1.160156 -0.273438 1.304688 -0.234375 1.484375 -0.234375 C 1.742188 -0.234375 1.945312 -0.296875 2.09375 -0.421875 C 2.238281 -0.546875 2.3125 -0.726562 2.3125 -0.96875 C 2.3125 -1.101562 2.285156 -1.21875 2.234375 -1.3125 C 2.179688 -1.414062 2.085938 -1.507812 1.953125 -1.59375 C 1.828125 -1.6875 1.648438 -1.78125 1.421875 -1.875 C 1.054688 -2.019531 0.785156 -2.191406 0.609375 -2.390625 C 0.429688 -2.585938 0.34375 -2.847656 0.34375 -3.171875 C 0.34375 -3.390625 0.394531 -3.578125 0.5 -3.734375 C 0.613281 -3.890625 0.765625 -4.007812 0.953125 -4.09375 C 1.148438 -4.175781 1.375 -4.21875 1.625 -4.21875 C 1.96875 -4.21875 2.234375 -4.148438 2.421875 -4.015625 C 2.609375 -3.890625 2.703125 -3.738281 2.703125 -3.5625 C 2.703125 -3.4375 2.660156 -3.34375 2.578125 -3.28125 C 2.492188 -3.21875 2.382812 -3.1875 2.25 -3.1875 C 2.25 -3.3125 2.226562 -3.425781 2.1875 -3.53125 C 2.144531 -3.644531 2.078125 -3.738281 1.984375 -3.8125 C 1.890625 -3.882812 1.757812 -3.921875 1.59375 -3.921875 C 1.375 -3.921875 1.203125 -3.859375 1.078125 -3.734375 C 0.953125 -3.617188 0.890625 -3.460938 0.890625 -3.265625 C 0.890625 -3.109375 0.914062 -2.972656 0.96875 -2.859375 C 1.03125 -2.753906 1.125 -2.660156 1.25 -2.578125 C 1.382812 -2.492188 1.566406 -2.40625 1.796875 -2.3125 C 2.128906 -2.175781 2.390625 -2.015625 2.578125 -1.828125 C 2.773438 -1.648438 2.875 -1.410156 2.875 -1.109375 C 2.875 -0.742188 2.742188 -0.457031 2.484375 -0.25 C 2.222656 -0.0390625 1.875 0.0625 1.4375 0.0625 Z "/>
</g>
<g id="glyph-0-1">
<path d="M 1.671875 0.0625 C 1.242188 0.0625 0.910156 -0.078125 0.671875 -0.359375 C 0.441406 -0.640625 0.328125 -1.03125 0.328125 -1.53125 C 0.328125 -2.082031 0.4375 -2.492188 0.65625 -2.765625 C 0.882812 -3.046875 1.203125 -3.1875 1.609375 -3.1875 C 1.992188 -3.1875 2.289062 -3.066406 2.5 -2.828125 C 2.71875 -2.597656 2.828125 -2.253906 2.828125 -1.796875 L 2.828125 -1.515625 L 0.890625 -1.515625 C 0.890625 -1.097656 0.960938 -0.789062 1.109375 -0.59375 C 1.253906 -0.40625 1.46875 -0.3125 1.75 -0.3125 C 1.957031 -0.3125 2.128906 -0.351562 2.265625 -0.4375 C 2.410156 -0.519531 2.519531 -0.613281 2.59375 -0.71875 C 2.613281 -0.707031 2.632812 -0.679688 2.65625 -0.640625 C 2.6875 -0.609375 2.703125 -0.566406 2.703125 -0.515625 C 2.703125 -0.441406 2.664062 -0.359375 2.59375 -0.265625 C 2.519531 -0.179688 2.40625 -0.101562 2.25 -0.03125 C 2.09375 0.03125 1.898438 0.0625 1.671875 0.0625 Z M 2.234375 -1.828125 C 2.234375 -2.140625 2.1875 -2.390625 2.09375 -2.578125 C 2 -2.773438 1.835938 -2.875 1.609375 -2.875 C 1.390625 -2.875 1.21875 -2.785156 1.09375 -2.609375 C 0.976562 -2.429688 0.910156 -2.171875 0.890625 -1.828125 Z "/>
</g>
<g id="glyph-0-2">
<path d="M 2.0625 0.0625 C 1.84375 0.0625 1.660156 0.015625 1.515625 -0.078125 C 1.378906 -0.179688 1.265625 -0.304688 1.171875 -0.453125 L 1.140625 -0.453125 L 1.03125 0 L 0.109375 0 L 0.109375 -0.25 L 0.15625 -0.25 C 0.28125 -0.25 0.390625 -0.269531 0.484375 -0.3125 C 0.578125 -0.363281 0.625 -0.484375 0.625 -0.671875 L 0.625 -3.78125 C 0.625 -3.957031 0.578125 -4.066406 0.484375 -4.109375 C 0.390625 -4.160156 0.28125 -4.1875 0.15625 -4.1875 L 0.109375 -4.1875 L 0.109375 -4.421875 L 1.171875 -4.421875 L 1.171875 -3.359375 C 1.171875 -3.296875 1.171875 -3.210938 1.171875 -3.109375 C 1.171875 -3.003906 1.164062 -2.898438 1.15625 -2.796875 C 1.15625 -2.703125 1.15625 -2.632812 1.15625 -2.59375 L 1.171875 -2.59375 C 1.265625 -2.78125 1.378906 -2.925781 1.515625 -3.03125 C 1.660156 -3.132812 1.84375 -3.1875 2.0625 -3.1875 C 2.445312 -3.1875 2.742188 -3.054688 2.953125 -2.796875 C 3.160156 -2.535156 3.265625 -2.125 3.265625 -1.5625 C 3.265625 -1 3.160156 -0.585938 2.953125 -0.328125 C 2.742188 -0.0664062 2.445312 0.0625 2.0625 0.0625 Z M 1.96875 -0.3125 C 2.226562 -0.3125 2.410156 -0.421875 2.515625 -0.640625 C 2.628906 -0.859375 2.6875 -1.171875 2.6875 -1.578125 C 2.6875 -1.992188 2.628906 -2.300781 2.515625 -2.5 C 2.410156 -2.707031 2.226562 -2.8125 1.96875 -2.8125 C 1.664062 -2.8125 1.457031 -2.707031 1.34375 -2.5 C 1.226562 -2.300781 1.171875 -1.988281 1.171875 -1.5625 C 1.171875 -1.164062 1.226562 -0.859375 1.34375 -0.640625 C 1.457031 -0.421875 1.664062 -0.3125 1.96875 -0.3125 Z "/>
</g>
<g id="glyph-0-3">
<path d="M 1.1875 0.0625 C 0.925781 0.0625 0.710938 -0.0078125 0.546875 -0.15625 C 0.378906 -0.3125 0.296875 -0.550781 0.296875 -0.875 C 0.296875 -1.1875 0.40625 -1.414062 0.625 -1.5625 C 0.84375 -1.707031 1.175781 -1.789062 1.625 -1.8125 L 2.109375 -1.828125 L 2.109375 -2.171875 C 2.109375 -2.316406 2.09375 -2.441406 2.0625 -2.546875 C 2.039062 -2.648438 1.988281 -2.734375 1.90625 -2.796875 C 1.832031 -2.859375 1.71875 -2.890625 1.5625 -2.890625 C 1.414062 -2.890625 1.300781 -2.863281 1.21875 -2.8125 C 1.144531 -2.757812 1.09375 -2.679688 1.0625 -2.578125 C 1.039062 -2.484375 1.03125 -2.375 1.03125 -2.25 C 0.863281 -2.25 0.738281 -2.273438 0.65625 -2.328125 C 0.570312 -2.390625 0.53125 -2.488281 0.53125 -2.625 C 0.53125 -2.757812 0.578125 -2.867188 0.671875 -2.953125 C 0.773438 -3.035156 0.90625 -3.09375 1.0625 -3.125 C 1.21875 -3.164062 1.390625 -3.1875 1.578125 -3.1875 C 1.941406 -3.1875 2.210938 -3.109375 2.390625 -2.953125 C 2.566406 -2.804688 2.65625 -2.546875 2.65625 -2.171875 L 2.65625 -0.671875 C 2.65625 -0.503906 2.679688 -0.390625 2.734375 -0.328125 C 2.785156 -0.273438 2.878906 -0.25 3.015625 -0.25 L 3.03125 -0.25 L 3.03125 0 L 2.25 0 L 2.15625 -0.5 L 2.109375 -0.5 C 2.023438 -0.394531 1.941406 -0.300781 1.859375 -0.21875 C 1.785156 -0.132812 1.695312 -0.0664062 1.59375 -0.015625 C 1.488281 0.0351562 1.351562 0.0625 1.1875 0.0625 Z M 1.328125 -0.296875 C 1.566406 -0.296875 1.753906 -0.367188 1.890625 -0.515625 C 2.035156 -0.660156 2.109375 -0.859375 2.109375 -1.109375 L 2.109375 -1.578125 L 1.734375 -1.5625 C 1.398438 -1.550781 1.171875 -1.484375 1.046875 -1.359375 C 0.921875 -1.242188 0.859375 -1.070312 0.859375 -0.84375 C 0.859375 -0.476562 1.015625 -0.296875 1.328125 -0.296875 Z "/>
</g>
<g id="glyph-0-4">
<path d="M 1.21875 0.0625 C 0.925781 0.0625 0.691406 0.0078125 0.515625 -0.09375 C 0.347656 -0.195312 0.265625 -0.351562 0.265625 -0.5625 C 0.265625 -0.664062 0.285156 -0.742188 0.328125 -0.796875 C 0.367188 -0.859375 0.414062 -0.898438 0.46875 -0.921875 C 0.53125 -0.953125 0.582031 -0.96875 0.625 -0.96875 C 0.625 -0.757812 0.671875 -0.582031 0.765625 -0.4375 C 0.859375 -0.289062 1.023438 -0.21875 1.265625 -0.21875 C 1.460938 -0.21875 1.617188 -0.265625 1.734375 -0.359375 C 1.847656 -0.460938 1.90625 -0.59375 1.90625 -0.75 C 1.90625 -0.84375 1.882812 -0.921875 1.84375 -0.984375 C 1.800781 -1.046875 1.726562 -1.109375 1.625 -1.171875 C 1.519531 -1.234375 1.375 -1.304688 1.1875 -1.390625 C 0.988281 -1.472656 0.820312 -1.554688 0.6875 -1.640625 C 0.5625 -1.722656 0.460938 -1.820312 0.390625 -1.9375 C 0.328125 -2.050781 0.296875 -2.191406 0.296875 -2.359375 C 0.296875 -2.617188 0.394531 -2.816406 0.59375 -2.953125 C 0.800781 -3.097656 1.070312 -3.171875 1.40625 -3.171875 C 1.675781 -3.171875 1.882812 -3.117188 2.03125 -3.015625 C 2.175781 -2.910156 2.25 -2.785156 2.25 -2.640625 C 2.25 -2.535156 2.210938 -2.453125 2.140625 -2.390625 C 2.066406 -2.328125 1.960938 -2.296875 1.828125 -2.296875 C 1.828125 -2.484375 1.785156 -2.628906 1.703125 -2.734375 C 1.617188 -2.847656 1.492188 -2.90625 1.328125 -2.90625 C 1.128906 -2.90625 0.988281 -2.859375 0.90625 -2.765625 C 0.820312 -2.679688 0.78125 -2.570312 0.78125 -2.4375 C 0.78125 -2.289062 0.832031 -2.175781 0.9375 -2.09375 C 1.050781 -2.019531 1.238281 -1.929688 1.5 -1.828125 C 1.707031 -1.742188 1.875 -1.65625 2 -1.5625 C 2.125 -1.476562 2.21875 -1.378906 2.28125 -1.265625 C 2.34375 -1.148438 2.375 -1.015625 2.375 -0.859375 C 2.375 -0.554688 2.269531 -0.328125 2.0625 -0.171875 C 1.851562 -0.015625 1.570312 0.0625 1.21875 0.0625 Z "/>
</g>
<g id="glyph-0-5">
<path d="M 1.40625 0.0625 C 1.101562 0.0625 0.882812 -0.00390625 0.75 -0.140625 C 0.613281 -0.273438 0.546875 -0.507812 0.546875 -0.84375 L 0.546875 -2.796875 L 0.109375 -2.796875 L 0.109375 -3.03125 C 0.179688 -3.03125 0.257812 -3.039062 0.34375 -3.0625 C 0.425781 -3.09375 0.5 -3.144531 0.5625 -3.21875 C 0.632812 -3.28125 0.691406 -3.363281 0.734375 -3.46875 C 0.773438 -3.570312 0.804688 -3.695312 0.828125 -3.84375 L 1.09375 -3.84375 L 1.09375 -3.125 L 1.859375 -3.125 L 1.859375 -2.796875 L 1.09375 -2.796875 L 1.09375 -0.828125 C 1.09375 -0.628906 1.132812 -0.484375 1.21875 -0.390625 C 1.300781 -0.296875 1.410156 -0.25 1.546875 -0.25 C 1.617188 -0.25 1.679688 -0.253906 1.734375 -0.265625 C 1.796875 -0.273438 1.859375 -0.285156 1.921875 -0.296875 L 1.921875 -0.03125 C 1.867188 -0.0078125 1.789062 0.0078125 1.6875 0.03125 C 1.582031 0.0507812 1.488281 0.0625 1.40625 0.0625 Z "/>
</g>
<g id="glyph-0-6">
<path d="M 0.9375 -3.703125 C 0.84375 -3.703125 0.765625 -3.726562 0.703125 -3.78125 C 0.640625 -3.84375 0.609375 -3.9375 0.609375 -4.0625 C 0.609375 -4.195312 0.640625 -4.289062 0.703125 -4.34375 C 0.765625 -4.394531 0.84375 -4.421875 0.9375 -4.421875 C 1.03125 -4.421875 1.109375 -4.394531 1.171875 -4.34375 C 1.234375 -4.289062 1.265625 -4.195312 1.265625 -4.0625 C 1.265625 -3.9375 1.234375 -3.84375 1.171875 -3.78125 C 1.109375 -3.726562 1.03125 -3.703125 0.9375 -3.703125 Z M 0.140625 0 L 0.140625 -0.25 L 0.203125 -0.25 C 0.335938 -0.25 0.453125 -0.269531 0.546875 -0.3125 C 0.640625 -0.351562 0.6875 -0.460938 0.6875 -0.640625 L 0.6875 -2.484375 C 0.6875 -2.648438 0.640625 -2.753906 0.546875 -2.796875 C 0.453125 -2.847656 0.335938 -2.875 0.203125 -2.875 L 0.1875 -2.875 L 0.1875 -3.125 L 1.234375 -3.125 L 1.234375 -0.671875 C 1.234375 -0.484375 1.28125 -0.363281 1.375 -0.3125 C 1.46875 -0.269531 1.582031 -0.25 1.71875 -0.25 L 1.796875 -0.25 L 1.796875 0 Z "/>
</g>
<g id="glyph-0-7">
<path d="M 0.15625 0 L 0.15625 -0.25 L 0.203125 -0.25 C 0.335938 -0.25 0.453125 -0.269531 0.546875 -0.3125 C 0.640625 -0.363281 0.6875 -0.484375 0.6875 -0.671875 L 0.6875 -2.484375 C 0.6875 -2.648438 0.640625 -2.753906 0.546875 -2.796875 C 0.453125 -2.847656 0.34375 -2.875 0.21875 -2.875 L 0.1875 -2.875 L 0.1875 -3.125 L 1.140625 -3.125 L 1.21875 -2.65625 L 1.234375 -2.65625 C 1.359375 -2.875 1.492188 -3.015625 1.640625 -3.078125 C 1.796875 -3.148438 1.96875 -3.1875 2.15625 -3.1875 C 2.457031 -3.1875 2.691406 -3.09375 2.859375 -2.90625 C 3.035156 -2.726562 3.125 -2.441406 3.125 -2.046875 L 3.125 -0.671875 C 3.125 -0.484375 3.164062 -0.363281 3.25 -0.3125 C 3.332031 -0.269531 3.4375 -0.25 3.5625 -0.25 L 3.59375 -0.25 L 3.59375 0 L 2.578125 0 L 2.578125 -2.015625 C 2.578125 -2.265625 2.53125 -2.457031 2.4375 -2.59375 C 2.34375 -2.738281 2.175781 -2.8125 1.9375 -2.8125 C 1.757812 -2.8125 1.617188 -2.765625 1.515625 -2.671875 C 1.421875 -2.585938 1.347656 -2.472656 1.296875 -2.328125 C 1.253906 -2.179688 1.234375 -2.023438 1.234375 -1.859375 L 1.234375 -0.640625 C 1.234375 -0.460938 1.28125 -0.351562 1.375 -0.3125 C 1.46875 -0.269531 1.578125 -0.25 1.703125 -0.25 L 1.734375 -0.25 L 1.734375 0 Z "/>
</g>
<g id="glyph-0-8">
</g>
<g id="glyph-0-9">
<path d="M 0.21875 0 L 0.21875 -0.25 L 0.296875 -0.25 C 0.421875 -0.25 0.53125 -0.269531 0.625 -0.3125 C 0.726562 -0.351562 0.78125 -0.460938 0.78125 -0.640625 L 0.78125 -3.515625 C 0.78125 -3.691406 0.726562 -3.800781 0.625 -3.84375 C 0.53125 -3.894531 0.421875 -3.921875 0.296875 -3.921875 L 0.21875 -3.921875 L 0.21875 -4.15625 L 3.15625 -4.15625 L 3.1875 -3.140625 L 2.890625 -3.140625 L 2.859375 -3.390625 C 2.835938 -3.523438 2.785156 -3.640625 2.703125 -3.734375 C 2.628906 -3.828125 2.5 -3.875 2.3125 -3.875 L 1.359375 -3.875 L 1.359375 -2.1875 L 2.765625 -2.1875 L 2.765625 -1.90625 L 1.359375 -1.90625 L 1.359375 -0.671875 C 1.359375 -0.484375 1.40625 -0.363281 1.5 -0.3125 C 1.59375 -0.269531 1.707031 -0.25 1.84375 -0.25 L 2.03125 -0.25 L 2.03125 0 Z "/>
</g>
<g id="glyph-0-10">
<path d="M 1.65625 0.0625 C 1.394531 0.0625 1.164062 0.0078125 0.96875 -0.09375 C 0.769531 -0.207031 0.613281 -0.378906 0.5 -0.609375 C 0.382812 -0.847656 0.328125 -1.160156 0.328125 -1.546875 C 0.328125 -1.960938 0.382812 -2.289062 0.5 -2.53125 C 0.613281 -2.769531 0.765625 -2.9375 0.953125 -3.03125 C 1.148438 -3.132812 1.375 -3.1875 1.625 -3.1875 C 1.78125 -3.1875 1.9375 -3.160156 2.09375 -3.109375 C 2.25 -3.066406 2.378906 -3.003906 2.484375 -2.921875 C 2.585938 -2.835938 2.640625 -2.726562 2.640625 -2.59375 C 2.640625 -2.457031 2.59375 -2.359375 2.5 -2.296875 C 2.414062 -2.242188 2.285156 -2.21875 2.109375 -2.21875 C 2.109375 -2.40625 2.070312 -2.5625 2 -2.6875 C 1.9375 -2.820312 1.8125 -2.890625 1.625 -2.890625 C 1.476562 -2.890625 1.347656 -2.847656 1.234375 -2.765625 C 1.117188 -2.691406 1.03125 -2.554688 0.96875 -2.359375 C 0.914062 -2.171875 0.890625 -1.898438 0.890625 -1.546875 C 0.890625 -1.140625 0.957031 -0.832031 1.09375 -0.625 C 1.226562 -0.425781 1.453125 -0.328125 1.765625 -0.328125 C 1.953125 -0.328125 2.109375 -0.363281 2.234375 -0.4375 C 2.367188 -0.507812 2.472656 -0.609375 2.546875 -0.734375 C 2.609375 -0.671875 2.640625 -0.59375 2.640625 -0.5 C 2.640625 -0.40625 2.601562 -0.316406 2.53125 -0.234375 C 2.457031 -0.148438 2.347656 -0.078125 2.203125 -0.015625 C 2.054688 0.0351562 1.875 0.0625 1.65625 0.0625 Z "/>
</g>
<g id="glyph-0-11">
<path d="M 0.109375 0 L 0.109375 -0.25 L 0.15625 -0.25 C 0.28125 -0.25 0.390625 -0.269531 0.484375 -0.3125 C 0.578125 -0.363281 0.625 -0.484375 0.625 -0.671875 L 0.625 -3.78125 C 0.625 -3.957031 0.578125 -4.066406 0.484375 -4.109375 C 0.390625 -4.160156 0.28125 -4.1875 0.15625 -4.1875 L 0.109375 -4.1875 L 0.109375 -4.421875 L 1.171875 -4.421875 L 1.171875 -3.140625 C 1.171875 -3.078125 1.171875 -3.003906 1.171875 -2.921875 C 1.171875 -2.847656 1.164062 -2.785156 1.15625 -2.734375 C 1.15625 -2.679688 1.15625 -2.65625 1.15625 -2.65625 L 1.1875 -2.65625 C 1.363281 -3.007812 1.648438 -3.1875 2.046875 -3.1875 C 2.378906 -3.1875 2.632812 -3.09375 2.8125 -2.90625 C 2.988281 -2.726562 3.078125 -2.441406 3.078125 -2.046875 L 3.078125 -0.671875 C 3.078125 -0.484375 3.117188 -0.363281 3.203125 -0.3125 C 3.285156 -0.269531 3.390625 -0.25 3.515625 -0.25 L 3.53125 -0.25 L 3.53125 0 L 2.53125 0 L 2.53125 -2.015625 C 2.53125 -2.265625 2.476562 -2.457031 2.375 -2.59375 C 2.28125 -2.738281 2.113281 -2.8125 1.875 -2.8125 C 1.632812 -2.8125 1.457031 -2.722656 1.34375 -2.546875 C 1.226562 -2.378906 1.171875 -2.148438 1.171875 -1.859375 L 1.171875 -0.640625 C 1.171875 -0.460938 1.21875 -0.351562 1.3125 -0.3125 C 1.414062 -0.269531 1.53125 -0.25 1.65625 -0.25 L 1.671875 -0.25 L 1.671875 0 Z "/>
</g>
<g id="glyph-0-12">
<path d="M 0.1875 0 L 0.1875 -0.25 L 0.203125 -0.25 C 0.335938 -0.25 0.453125 -0.269531 0.546875 -0.3125 C 0.640625 -0.363281 0.6875 -0.484375 0.6875 -0.671875 L 0.6875 -2.484375 C 0.6875 -2.648438 0.640625 -2.753906 0.546875 -2.796875 C 0.453125 -2.847656 0.335938 -2.875 0.203125 -2.875 L 0.1875 -2.875 L 0.1875 -3.125 L 1.09375 -3.125 L 1.203125 -2.546875 L 1.234375 -2.546875 C 1.285156 -2.660156 1.335938 -2.765625 1.390625 -2.859375 C 1.453125 -2.960938 1.53125 -3.039062 1.625 -3.09375 C 1.71875 -3.15625 1.851562 -3.1875 2.03125 -3.1875 C 2.238281 -3.1875 2.394531 -3.144531 2.5 -3.0625 C 2.601562 -2.988281 2.65625 -2.882812 2.65625 -2.75 C 2.65625 -2.632812 2.613281 -2.535156 2.53125 -2.453125 C 2.445312 -2.378906 2.304688 -2.34375 2.109375 -2.34375 C 2.109375 -2.5 2.082031 -2.613281 2.03125 -2.6875 C 1.988281 -2.757812 1.914062 -2.796875 1.8125 -2.796875 C 1.695312 -2.796875 1.601562 -2.753906 1.53125 -2.671875 C 1.457031 -2.585938 1.398438 -2.476562 1.359375 -2.34375 C 1.316406 -2.207031 1.285156 -2.066406 1.265625 -1.921875 C 1.242188 -1.785156 1.234375 -1.660156 1.234375 -1.546875 L 1.234375 -0.640625 C 1.234375 -0.460938 1.28125 -0.351562 1.375 -0.3125 C 1.46875 -0.269531 1.582031 -0.25 1.71875 -0.25 L 1.875 -0.25 L 1.875 0 Z "/>
</g>
</g>
</defs>
<g fill="rgb(61.176471%, 86.27451%, 92.156863%)" fill-opacity="1">
<use xlink:href="#glyph-0-0" x="30" y="26.235352"/>
<use xlink:href="#glyph-0-1" x="33" y="26.235352"/>
<use xlink:href="#glyph-0-2" x="36" y="26.235352"/>
<use xlink:href="#glyph-0-3" x="40" y="26.235352"/>
<use xlink:href="#glyph-0-4" x="43" y="26.235352"/>
<use xlink:href="#glyph-0-5" x="46" y="26.235352"/>
<use xlink:href="#glyph-0-6" x="48" y="26.235352"/>
<use xlink:href="#glyph-0-3" x="50" y="26.235352"/>
<use xlink:href="#glyph-0-7" x="53" y="26.235352"/>
<use xlink:href="#glyph-0-8" x="57" y="26.235352"/>
<use xlink:href="#glyph-0-9" x="59" y="26.235352"/>
<use xlink:href="#glyph-0-6" x="62" y="26.235352"/>
<use xlink:href="#glyph-0-4" x="64" y="26.235352"/>
<use xlink:href="#glyph-0-10" x="67" y="26.235352"/>
<use xlink:href="#glyph-0-11" x="70" y="26.235352"/>
<use xlink:href="#glyph-0-1" x="74" y="26.235352"/>
<use xlink:href="#glyph-0-12" x="77" y="26.235352"/>
</g>
</svg>
