<?xml version="1.0" encoding="UTF-8"?>
<svg xmlns="http://www.w3.org/2000/svg" xmlns:xlink="http://www.w3.org/1999/xlink" width="854" height="480" viewBox="0 0 854 480">
<defs>
<g>
<g id="glyph-0-0">
<path d="M 0.9375 0 L 0.9375 -1.40625 L 1.203125 -1.40625 C 1.953125 -1.40625 2.59375 -1.539062 3.125 -1.8125 C 3.664062 -2.09375 3.9375 -2.753906 3.9375 -3.796875 L 3.9375 -14.203125 C 3.9375 -15.179688 3.671875 -15.800781 3.140625 -16.0625 C 2.617188 -16.332031 1.992188 -16.46875 1.265625 -16.46875 L 1.09375 -16.46875 L 1.09375 -17.859375 L 6.5 -17.859375 L 6.9375 -15.171875 L 7.09375 -15.171875 C 7.78125 -16.410156 8.550781 -17.222656 9.40625 -17.609375 C 10.269531 -18.003906 11.234375 -18.203125 12.296875 -18.203125 C 14.054688 -18.203125 15.425781 -17.679688 16.40625 -16.640625 C 17.394531 -15.609375 17.890625 -13.953125 17.890625 -11.671875 L 17.890625 -3.796875 C 17.890625 -2.753906 18.117188 -2.09375 18.578125 -1.8125 C 19.035156 -1.539062 19.640625 -1.40625 20.390625 -1.40625 L 20.5625 -1.40625 L 20.5625 0 L 14.765625 0 L 14.765625 -11.5 C 14.765625 -12.945312 14.488281 -14.066406 13.9375 -14.859375 C 13.394531 -15.660156 12.445312 -16.0625 11.09375 -16.0625 C 10.09375 -16.0625 9.296875 -15.8125 8.703125 -15.3125 C 8.117188 -14.8125 7.695312 -14.148438 7.4375 -13.328125 C 7.1875 -12.503906 7.0625 -11.617188 7.0625 -10.671875 L 7.0625 -3.625 C 7.0625 -2.65625 7.320312 -2.039062 7.84375 -1.78125 C 8.363281 -1.53125 8.992188 -1.40625 9.734375 -1.40625 L 9.890625 -1.40625 L 9.890625 0 Z "/>
</g>
<g id="glyph-0-1">
<path d="M 9.5625 0.328125 C 7.164062 0.328125 5.273438 -0.4375 3.890625 -1.96875 C 2.515625 -3.5 1.828125 -5.832031 1.828125 -8.96875 C 1.828125 -12.070312 2.488281 -14.382812 3.8125 -15.90625 C 5.132812 -17.4375 7.085938 -18.203125 9.671875 -18.203125 C 12.066406 -18.203125 13.953125 -17.4375 15.328125 -15.90625 C 16.703125 -14.382812 17.390625 -12.070312 17.390625 -8.96875 C 17.390625 -5.832031 16.726562 -3.5 15.40625 -1.96875 C 14.09375 -0.4375 12.144531 0.328125 9.5625 0.328125 Z M 9.625 -1.40625 C 11.289062 -1.40625 12.460938 -2.039062 13.140625 -3.3125 C 13.828125 -4.59375 14.171875 -6.476562 14.171875 -8.96875 C 14.171875 -11.457031 13.820312 -13.320312 13.125 -14.5625 C 12.4375 -15.8125 11.257812 -16.4375 9.59375 -16.4375 C 7.925781 -16.4375 6.753906 -15.8125 6.078125 -14.5625 C 5.398438 -13.320312 5.0625 -11.457031 5.0625 -8.96875 C 5.0625 -6.476562 5.40625 -4.59375 6.09375 -3.3125 C 6.78125 -2.039062 7.957031 -1.40625 9.625 -1.40625 Z "/>
</g>
</g>
</defs>
<g fill="rgb(100%, 100%, 100%)" fill-opacity="1">
<use xlink:href="#glyph-0-0" x="30" y="55.632812"/>
<use xlink:href="#glyph-0-1" x="52" y="55.632812"/>
</g>
</svg>
