<?xml version="1.0" encoding="UTF-8"?>
<svg xmlns="http://www.w3.org/2000/svg" xmlns:xlink="http://www.w3.org/1999/xlink" width="854" height="480" viewBox="0 0 854 480">
<defs>
<g>
<g id="glyph-0-0">
<path d="M 3.59375 0 L 2.59375 0 L 2.59375 -7.046875 L 0.109375 -7.046875 L 0.109375 -7.9375 L 6.046875 -7.9375 L 6.046875 -7.046875 L 3.59375 -7.046875 Z "/>
</g>
<g id="glyph-0-1">
<path d="M 1.921875 -5.96875 C 1.921875 -5.664062 1.898438 -5.382812 1.859375 -5.125 L 1.9375 -5.125 C 2.125 -5.4375 2.378906 -5.664062 2.703125 -5.8125 C 3.035156 -5.96875 3.394531 -6.046875 3.78125 -6.046875 C 4.507812 -6.046875 5.054688 -5.875 5.421875 -5.53125 C 5.785156 -5.1875 5.96875 -4.632812 5.96875 -3.875 L 5.96875 0 L 5 0 L 5 -3.8125 C 5 -4.769531 4.554688 -5.25 3.671875 -5.25 C 3.003906 -5.25 2.546875 -5.0625 2.296875 -4.6875 C 2.046875 -4.3125 1.921875 -3.773438 1.921875 -3.078125 L 1.921875 0 L 0.9375 0 L 0.9375 -8.4375 L 1.921875 -8.4375 Z "/>
</g>
<g id="glyph-0-2">
<path d="M 3.25 -6.0625 C 3.757812 -6.0625 4.195312 -5.953125 4.5625 -5.734375 C 4.925781 -5.515625 5.207031 -5.203125 5.40625 -4.796875 C 5.601562 -4.390625 5.703125 -3.914062 5.703125 -3.375 L 5.703125 -2.78125 L 1.625 -2.78125 C 1.632812 -2.113281 1.804688 -1.601562 2.140625 -1.25 C 2.472656 -0.894531 2.929688 -0.71875 3.515625 -0.71875 C 3.898438 -0.71875 4.238281 -0.753906 4.53125 -0.828125 C 4.820312 -0.898438 5.125 -1.003906 5.4375 -1.140625 L 5.4375 -0.28125 C 5.132812 -0.144531 4.832031 -0.046875 4.53125 0.015625 C 4.238281 0.078125 3.890625 0.109375 3.484375 0.109375 C 2.921875 0.109375 2.421875 -0.00390625 1.984375 -0.234375 C 1.546875 -0.460938 1.207031 -0.800781 0.96875 -1.25 C 0.726562 -1.707031 0.609375 -2.269531 0.609375 -2.9375 C 0.609375 -3.582031 0.71875 -4.140625 0.9375 -4.609375 C 1.15625 -5.078125 1.460938 -5.4375 1.859375 -5.6875 C 2.253906 -5.9375 2.71875 -6.0625 3.25 -6.0625 Z M 3.234375 -5.265625 C 2.765625 -5.265625 2.394531 -5.113281 2.125 -4.8125 C 1.851562 -4.507812 1.691406 -4.09375 1.640625 -3.5625 L 4.671875 -3.5625 C 4.671875 -4.070312 4.554688 -4.484375 4.328125 -4.796875 C 4.097656 -5.109375 3.734375 -5.265625 3.234375 -5.265625 Z "/>
</g>
<g id="glyph-0-3">
</g>
<g id="glyph-0-4">
<path d="M 4.578125 0 L 1.96875 -6.953125 L 1.921875 -6.953125 C 1.941406 -6.722656 1.957031 -6.410156 1.96875 -6.015625 C 1.988281 -5.628906 2 -5.226562 2 -4.8125 L 2 0 L 1.078125 0 L 1.078125 -7.9375 L 2.5625 -7.9375 L 5 -1.4375 L 5.046875 -1.4375 L 7.53125 -7.9375 L 9 -7.9375 L 9 0 L 8.015625 0 L 8.015625 -4.875 C 8.015625 -5.257812 8.019531 -5.640625 8.03125 -6.015625 C 8.050781 -6.398438 8.070312 -6.707031 8.09375 -6.9375 L 8.046875 -6.9375 L 5.40625 0 Z "/>
</g>
<g id="glyph-0-5">
<path d="M 3.203125 -6.046875 C 3.921875 -6.046875 4.453125 -5.882812 4.796875 -5.5625 C 5.148438 -5.25 5.328125 -4.75 5.328125 -4.0625 L 5.328125 0 L 4.625 0 L 4.4375 -0.84375 L 4.390625 -0.84375 C 4.128906 -0.519531 3.851562 -0.28125 3.5625 -0.125 C 3.28125 0.03125 2.890625 0.109375 2.390625 0.109375 C 1.847656 0.109375 1.398438 -0.03125 1.046875 -0.3125 C 0.691406 -0.601562 0.515625 -1.050781 0.515625 -1.65625 C 0.515625 -2.25 0.742188 -2.707031 1.203125 -3.03125 C 1.671875 -3.351562 2.390625 -3.53125 3.359375 -3.5625 L 4.375 -3.59375 L 4.375 -3.9375 C 4.375 -4.4375 4.265625 -4.78125 4.046875 -4.96875 C 3.835938 -5.164062 3.535156 -5.265625 3.140625 -5.265625 C 2.828125 -5.265625 2.53125 -5.21875 2.25 -5.125 C 1.96875 -5.03125 1.707031 -4.925781 1.46875 -4.8125 L 1.171875 -5.546875 C 1.429688 -5.679688 1.738281 -5.796875 2.09375 -5.890625 C 2.445312 -5.992188 2.816406 -6.046875 3.203125 -6.046875 Z M 3.484375 -2.875 C 2.742188 -2.84375 2.226562 -2.722656 1.9375 -2.515625 C 1.65625 -2.304688 1.515625 -2.015625 1.515625 -1.640625 C 1.515625 -1.304688 1.617188 -1.0625 1.828125 -0.90625 C 2.035156 -0.75 2.296875 -0.671875 2.609375 -0.671875 C 3.109375 -0.671875 3.523438 -0.8125 3.859375 -1.09375 C 4.191406 -1.375 4.359375 -1.800781 4.359375 -2.375 L 4.359375 -2.90625 Z "/>
</g>
<g id="glyph-0-6">
<path d="M 3.71875 -6.0625 C 3.832031 -6.0625 3.953125 -6.054688 4.078125 -6.046875 C 4.210938 -6.035156 4.328125 -6.019531 4.421875 -6 L 4.296875 -5.09375 C 4.203125 -5.113281 4.097656 -5.128906 3.984375 -5.140625 C 3.867188 -5.160156 3.757812 -5.171875 3.65625 -5.171875 C 3.351562 -5.171875 3.066406 -5.085938 2.796875 -4.921875 C 2.535156 -4.753906 2.320312 -4.519531 2.15625 -4.21875 C 2 -3.925781 1.921875 -3.578125 1.921875 -3.171875 L 1.921875 0 L 0.9375 0 L 0.9375 -5.953125 L 1.75 -5.953125 L 1.859375 -4.859375 L 1.90625 -4.859375 C 2.09375 -5.191406 2.335938 -5.472656 2.640625 -5.703125 C 2.941406 -5.941406 3.300781 -6.0625 3.71875 -6.0625 Z "/>
</g>
<g id="glyph-0-7">
<path d="M 1.4375 -8.1875 C 1.59375 -8.1875 1.726562 -8.132812 1.84375 -8.03125 C 1.957031 -7.9375 2.015625 -7.78125 2.015625 -7.5625 C 2.015625 -7.351562 1.957031 -7.195312 1.84375 -7.09375 C 1.726562 -6.988281 1.59375 -6.9375 1.4375 -6.9375 C 1.28125 -6.9375 1.144531 -6.988281 1.03125 -7.09375 C 0.914062 -7.195312 0.859375 -7.351562 0.859375 -7.5625 C 0.859375 -7.78125 0.914062 -7.9375 1.03125 -8.03125 C 1.144531 -8.132812 1.28125 -8.1875 1.4375 -8.1875 Z M 1.921875 -5.953125 L 1.921875 0 L 0.9375 0 L 0.9375 -5.953125 Z "/>
</g>
<g id="glyph-0-8">
<path d="M 6.125 -2.984375 C 6.125 -2.003906 5.875 -1.242188 5.375 -0.703125 C 4.875 -0.160156 4.195312 0.109375 3.34375 0.109375 C 2.820312 0.109375 2.351562 -0.0078125 1.9375 -0.25 C 1.53125 -0.488281 1.207031 -0.835938 0.96875 -1.296875 C 0.726562 -1.765625 0.609375 -2.328125 0.609375 -2.984375 C 0.609375 -3.972656 0.851562 -4.734375 1.34375 -5.265625 C 1.84375 -5.796875 2.519531 -6.0625 3.375 -6.0625 C 3.914062 -6.0625 4.390625 -5.941406 4.796875 -5.703125 C 5.210938 -5.460938 5.535156 -5.113281 5.765625 -4.65625 C 6.003906 -4.207031 6.125 -3.648438 6.125 -2.984375 Z M 1.625 -2.984375 C 1.625 -2.285156 1.757812 -1.726562 2.03125 -1.3125 C 2.3125 -0.90625 2.753906 -0.703125 3.359375 -0.703125 C 3.960938 -0.703125 4.40625 -0.90625 4.6875 -1.3125 C 4.96875 -1.726562 5.109375 -2.285156 5.109375 -2.984375 C 5.109375 -3.691406 4.96875 -4.242188 4.6875 -4.640625 C 4.40625 -5.046875 3.960938 -5.25 3.359375 -5.25 C 2.742188 -5.25 2.300781 -5.046875 2.03125 -4.640625 C 1.757812 -4.242188 1.625 -3.691406 1.625 -2.984375 Z "/>
</g>
<g id="glyph-0-9">
<path d="M 3.8125 -6.0625 C 4.519531 -6.0625 5.054688 -5.890625 5.421875 -5.546875 C 5.785156 -5.203125 5.96875 -4.644531 5.96875 -3.875 L 5.96875 0 L 5 0 L 5 -3.8125 C 5 -4.769531 4.554688 -5.25 3.671875 -5.25 C 3.003906 -5.25 2.546875 -5.0625 2.296875 -4.6875 C 2.046875 -4.3125 1.921875 -3.78125 1.921875 -3.09375 L 1.921875 0 L 0.9375 0 L 0.9375 -5.953125 L 1.734375 -5.953125 L 1.875 -5.140625 L 1.9375 -5.140625 C 2.125 -5.453125 2.390625 -5.679688 2.734375 -5.828125 C 3.078125 -5.984375 3.4375 -6.0625 3.8125 -6.0625 Z "/>
</g>
<g id="glyph-0-10">
<path d="M 2.9375 -0.6875 C 3.082031 -0.6875 3.234375 -0.695312 3.390625 -0.71875 C 3.546875 -0.75 3.671875 -0.78125 3.765625 -0.8125 L 3.765625 -0.0625 C 3.660156 -0.0078125 3.507812 0.03125 3.3125 0.0625 C 3.125 0.09375 2.941406 0.109375 2.765625 0.109375 C 2.453125 0.109375 2.164062 0.0546875 1.90625 -0.046875 C 1.644531 -0.160156 1.429688 -0.347656 1.265625 -0.609375 C 1.097656 -0.878906 1.015625 -1.253906 1.015625 -1.734375 L 1.015625 -5.203125 L 0.171875 -5.203125 L 0.171875 -5.671875 L 1.03125 -6.046875 L 1.421875 -7.328125 L 2 -7.328125 L 2 -5.953125 L 3.71875 -5.953125 L 3.71875 -5.203125 L 2 -5.203125 L 2 -1.75 C 2 -1.382812 2.082031 -1.113281 2.25 -0.9375 C 2.425781 -0.769531 2.65625 -0.6875 2.9375 -0.6875 Z "/>
</g>
<g id="glyph-0-11">
<path d="M 3.171875 -7.9375 C 4.210938 -7.9375 4.96875 -7.726562 5.4375 -7.3125 C 5.914062 -6.90625 6.15625 -6.332031 6.15625 -5.59375 C 6.15625 -5.15625 6.054688 -4.742188 5.859375 -4.359375 C 5.660156 -3.984375 5.328125 -3.675781 4.859375 -3.4375 C 4.398438 -3.207031 3.773438 -3.09375 2.984375 -3.09375 L 2.078125 -3.09375 L 2.078125 0 L 1.078125 0 L 1.078125 -7.9375 Z M 3.09375 -7.078125 L 2.078125 -7.078125 L 2.078125 -3.9375 L 2.875 -3.9375 C 3.632812 -3.9375 4.195312 -4.054688 4.5625 -4.296875 C 4.9375 -4.546875 5.125 -4.960938 5.125 -5.546875 C 5.125 -6.066406 4.957031 -6.453125 4.625 -6.703125 C 4.300781 -6.953125 3.789062 -7.078125 3.09375 -7.078125 Z "/>
</g>
<g id="glyph-0-12">
<path d="M 3.6875 -5.203125 L 2.1875 -5.203125 L 2.1875 0 L 1.203125 0 L 1.203125 -5.203125 L 0.171875 -5.203125 L 0.171875 -5.65625 L 1.203125 -5.984375 L 1.203125 -6.328125 C 1.203125 -7.097656 1.375 -7.648438 1.71875 -7.984375 C 2.0625 -8.328125 2.535156 -8.5 3.140625 -8.5 C 3.378906 -8.5 3.597656 -8.476562 3.796875 -8.4375 C 3.992188 -8.394531 4.160156 -8.347656 4.296875 -8.296875 L 4.046875 -7.53125 C 3.921875 -7.570312 3.78125 -7.609375 3.625 -7.640625 C 3.476562 -7.679688 3.320312 -7.703125 3.15625 -7.703125 C 2.832031 -7.703125 2.585938 -7.59375 2.421875 -7.375 C 2.265625 -7.15625 2.1875 -6.8125 2.1875 -6.34375 L 2.1875 -5.953125 L 3.6875 -5.953125 Z "/>
</g>
</g>
</defs>
<g fill="rgb(100%, 100%, 100%)" fill-opacity="1">
<use xlink:href="#glyph-0-0" x="30" y="31.876953"/>
<use xlink:href="#glyph-0-1" x="36" y="31.876953"/>
<use xlink:href="#glyph-0-2" x="43" y="31.876953"/>
<use xlink:href="#glyph-0-3" x="49" y="31.876953"/>
<use xlink:href="#glyph-0-4" x="52" y="31.876953"/>
<use xlink:href="#glyph-0-5" x="62" y="31.876953"/>
<use xlink:href="#glyph-0-6" x="68" y="31.876953"/>
<use xlink:href="#glyph-0-7" x="73" y="31.876953"/>
<use xlink:href="#glyph-0-8" x="76" y="31.876953"/>
<use xlink:href="#glyph-0-9" x="83" y="31.876953"/>
<use xlink:href="#glyph-0-2" x="90" y="31.876953"/>
<use xlink:href="#glyph-0-10" x="96" y="31.876953"/>
<use xlink:href="#glyph-0-10" x="100" y="31.876953"/>
<use xlink:href="#glyph-0-2" x="104" y="31.876953"/>
<use xlink:href="#glyph-0-3" x="110" y="31.876953"/>
<use xlink:href="#glyph-0-11" x="113" y="31.876953"/>
<use xlink:href="#glyph-0-6" x="120" y="31.876953"/>
<use xlink:href="#glyph-0-8" x="124" y="31.876953"/>
<use xlink:href="#glyph-0-8" x="131" y="31.876953"/>
<use xlink:href="#glyph-0-12" x="138" y="31.876953"/>
</g>
</svg>
