<?xml version="1.0" encoding="UTF-8"?>
<svg xmlns="http://www.w3.org/2000/svg" xmlns:xlink="http://www.w3.org/1999/xlink" width="854" height="480" viewBox="0 0 854 480">
<defs>
<g>
<g id="glyph-0-0">
<path d="M 2.03125 0 L 2.03125 -0.390625 L 2.296875 -0.390625 C 2.503906 -0.390625 2.679688 -0.425781 2.828125 -0.5 C 2.984375 -0.582031 3.0625 -0.773438 3.0625 -1.078125 L 3.0625 -1.84375 L 0.15625 -1.84375 L 0.15625 -2.234375 L 3.078125 -6.734375 L 3.96875 -6.734375 L 3.96875 -2.375 L 5.140625 -2.375 L 5.140625 -1.84375 L 3.96875 -1.84375 L 3.96875 -1.078125 C 3.96875 -0.773438 4.039062 -0.582031 4.1875 -0.5 C 4.34375 -0.425781 4.53125 -0.390625 4.75 -0.390625 L 4.875 -0.390625 L 4.875 0 Z M 0.84375 -2.375 L 3.0625 -2.375 L 3.0625 -4.125 C 3.0625 -4.300781 3.0625 -4.503906 3.0625 -4.734375 C 3.070312 -4.972656 3.082031 -5.207031 3.09375 -5.4375 C 3.101562 -5.664062 3.117188 -5.878906 3.140625 -6.078125 C 3.109375 -6.015625 3.054688 -5.921875 2.984375 -5.796875 C 2.910156 -5.671875 2.828125 -5.53125 2.734375 -5.375 C 2.648438 -5.226562 2.566406 -5.085938 2.484375 -4.953125 C 2.410156 -4.816406 2.34375 -4.707031 2.28125 -4.625 Z "/>
</g>
</g>
</defs>
<g fill="rgb(100%, 100%, 100%)" fill-opacity="1">
<use xlink:href="#glyph-0-0" x="30" y="30.095703"/>
</g>
</svg>
