<?xml version="1.0" encoding="UTF-8"?>
<svg xmlns="http://www.w3.org/2000/svg" xmlns:xlink="http://www.w3.org/1999/xlink" width="854" height="480" viewBox="0 0 854 480">
<defs>
<g>
<g id="glyph-0-0">
<path d="M 0.546875 0 L 0.546875 -0.609375 L 0.734375 -0.609375 C 1.066406 -0.609375 1.347656 -0.664062 1.578125 -0.78125 C 1.804688 -0.90625 1.921875 -1.191406 1.921875 -1.640625 L 1.921875 -8.71875 C 1.921875 -9.144531 1.800781 -9.414062 1.5625 -9.53125 C 1.332031 -9.644531 1.054688 -9.703125 0.734375 -9.703125 L 0.546875 -9.703125 L 0.546875 -10.3125 L 4.75 -10.3125 L 4.75 -9.703125 L 4.5625 -9.703125 C 4.238281 -9.703125 3.957031 -9.640625 3.71875 -9.515625 C 3.488281 -9.398438 3.375 -9.113281 3.375 -8.65625 L 3.375 -5.75 L 8.078125 -5.75 L 8.078125 -8.65625 C 8.078125 -9.113281 7.957031 -9.398438 7.71875 -9.515625 C 7.488281 -9.640625 7.210938 -9.703125 6.890625 -9.703125 L 6.703125 -9.703125 L 6.703125 -10.3125 L 10.90625 -10.3125 L 10.90625 -9.703125 L 10.71875 -9.703125 C 10.382812 -9.703125 10.101562 -9.640625 9.875 -9.515625 C 9.644531 -9.398438 9.53125 -9.113281 9.53125 -8.65625 L 9.53125 -1.578125 C 9.53125 -1.148438 9.644531 -0.878906 9.875 -0.765625 C 10.113281 -0.660156 10.394531 -0.609375 10.71875 -0.609375 L 10.90625 -0.609375 L 10.90625 0 L 6.703125 0 L 6.703125 -0.609375 L 6.890625 -0.609375 C 7.210938 -0.609375 7.488281 -0.664062 7.71875 -0.78125 C 7.957031 -0.90625 8.078125 -1.191406 8.078125 -1.640625 L 8.078125 -5.03125 L 3.375 -5.03125 L 3.375 -1.640625 C 3.375 -1.191406 3.488281 -0.90625 3.71875 -0.78125 C 3.957031 -0.664062 4.238281 -0.609375 4.5625 -0.609375 L 4.75 -0.609375 L 4.75 0 Z "/>
</g>
</g>
</defs>
<g fill="rgb(100%, 100%, 100%)" fill-opacity="1">
<use xlink:href="#glyph-0-0" x="30" y="35.441406"/>
</g>
</svg>
