<?xml version="1.0" encoding="UTF-8"?>
<svg xmlns="http://www.w3.org/2000/svg" xmlns:xlink="http://www.w3.org/1999/xlink" width="854" height="480" viewBox="0 0 854 480">
<defs>
<g>
<g id="glyph-0-0">
<path d="M 0.921875 0 L 0.921875 -1.03125 L 1.25 -1.03125 C 1.78125 -1.03125 2.242188 -1.125 2.640625 -1.3125 C 3.046875 -1.5 3.25 -1.945312 3.25 -2.65625 L 3.25 -14.65625 C 3.25 -15.425781 3.050781 -15.910156 2.65625 -16.109375 C 2.269531 -16.316406 1.800781 -16.421875 1.25 -16.421875 L 0.921875 -16.421875 L 0.921875 -17.453125 L 13.25 -17.453125 L 13.375 -13.171875 L 12.09375 -13.171875 L 11.96875 -14.21875 C 11.90625 -14.757812 11.710938 -15.226562 11.390625 -15.625 C 11.078125 -16.019531 10.554688 -16.21875 9.828125 -16.21875 L 5.71875 -16.21875 L 5.71875 -9.71875 L 11.609375 -9.71875 L 11.609375 -8.53125 L 5.71875 -8.53125 L 5.71875 -1.21875 L 10.4375 -1.21875 C 11.195312 -1.21875 11.753906 -1.414062 12.109375 -1.8125 C 12.460938 -2.21875 12.675781 -2.6875 12.75 -3.21875 L 12.921875 -4.28125 L 14.203125 -4.28125 L 14.03125 0 Z "/>
</g>
<g id="glyph-0-1">
<path d="M 0.6875 0 L 0.6875 -1.03125 L 0.875 -1.03125 C 1.425781 -1.03125 1.898438 -1.128906 2.296875 -1.328125 C 2.691406 -1.535156 2.890625 -2.019531 2.890625 -2.78125 L 2.890625 -10.40625 C 2.890625 -11.125 2.695312 -11.582031 2.3125 -11.78125 C 1.925781 -11.976562 1.460938 -12.078125 0.921875 -12.078125 L 0.8125 -12.078125 L 0.8125 -13.09375 L 4.765625 -13.09375 L 5.078125 -11.125 L 5.203125 -11.125 C 5.710938 -12.03125 6.28125 -12.625 6.90625 -12.90625 C 7.53125 -13.195312 8.234375 -13.34375 9.015625 -13.34375 C 10.304688 -13.34375 11.3125 -12.960938 12.03125 -12.203125 C 12.757812 -11.441406 13.125 -10.222656 13.125 -8.546875 L 13.125 -2.78125 C 13.125 -2.019531 13.289062 -1.535156 13.625 -1.328125 C 13.957031 -1.128906 14.398438 -1.03125 14.953125 -1.03125 L 15.078125 -1.03125 L 15.078125 0 L 10.828125 0 L 10.828125 -8.4375 C 10.828125 -9.488281 10.625 -10.304688 10.21875 -10.890625 C 9.820312 -11.484375 9.128906 -11.78125 8.140625 -11.78125 C 7.398438 -11.78125 6.816406 -11.59375 6.390625 -11.21875 C 5.960938 -10.851562 5.65625 -10.367188 5.46875 -9.765625 C 5.28125 -9.171875 5.1875 -8.519531 5.1875 -7.8125 L 5.1875 -2.65625 C 5.1875 -1.945312 5.375 -1.5 5.75 -1.3125 C 6.132812 -1.125 6.597656 -1.03125 7.140625 -1.03125 L 7.265625 -1.03125 L 7.265625 0 Z "/>
</g>
<g id="glyph-0-2">
<path d="M 0.65625 0 L 0.65625 -1.03125 L 0.984375 -1.03125 C 1.535156 -1.03125 2.003906 -1.128906 2.390625 -1.328125 C 2.785156 -1.535156 2.984375 -2.019531 2.984375 -2.78125 L 2.984375 -11.953125 L 0.75 -11.953125 L 0.75 -13.09375 L 2.984375 -13.09375 L 2.984375 -14.328125 C 2.984375 -15.773438 3.367188 -16.882812 4.140625 -17.65625 C 4.910156 -18.425781 5.96875 -18.8125 7.3125 -18.8125 C 8.582031 -18.8125 9.46875 -18.648438 9.96875 -18.328125 C 10.476562 -18.015625 10.734375 -17.609375 10.734375 -17.109375 C 10.734375 -16.671875 10.546875 -16.332031 10.171875 -16.09375 C 9.796875 -15.851562 9.3125 -15.734375 8.71875 -15.734375 C 8.71875 -16.222656 8.601562 -16.671875 8.375 -17.078125 C 8.15625 -17.484375 7.734375 -17.6875 7.109375 -17.6875 C 6.410156 -17.6875 5.929688 -17.414062 5.671875 -16.875 C 5.410156 -16.34375 5.28125 -15.566406 5.28125 -14.546875 L 5.28125 -13.09375 L 8.71875 -13.09375 L 8.71875 -11.953125 L 5.28125 -11.953125 L 5.28125 -2.78125 C 5.28125 -2.019531 5.472656 -1.535156 5.859375 -1.328125 C 6.253906 -1.128906 6.726562 -1.03125 7.28125 -1.03125 L 8.21875 -1.03125 L 8.21875 0 Z "/>
</g>
<g id="glyph-0-3">
<path d="M 7.015625 0.25 C 5.253906 0.25 3.867188 -0.3125 2.859375 -1.4375 C 1.847656 -2.5625 1.34375 -4.273438 1.34375 -6.578125 C 1.34375 -8.859375 1.828125 -10.554688 2.796875 -11.671875 C 3.765625 -12.785156 5.195312 -13.34375 7.09375 -13.34375 C 8.84375 -13.34375 10.222656 -12.785156 11.234375 -11.671875 C 12.242188 -10.554688 12.75 -8.859375 12.75 -6.578125 C 12.75 -4.273438 12.265625 -2.5625 11.296875 -1.4375 C 10.328125 -0.3125 8.898438 0.25 7.015625 0.25 Z M 7.0625 -1.03125 C 8.28125 -1.03125 9.140625 -1.5 9.640625 -2.4375 C 10.140625 -3.375 10.390625 -4.753906 10.390625 -6.578125 C 10.390625 -8.398438 10.132812 -9.765625 9.625 -10.671875 C 9.125 -11.585938 8.257812 -12.046875 7.03125 -12.046875 C 5.8125 -12.046875 4.953125 -11.585938 4.453125 -10.671875 C 3.960938 -9.765625 3.71875 -8.398438 3.71875 -6.578125 C 3.71875 -4.753906 3.96875 -3.375 4.46875 -2.4375 C 4.976562 -1.5 5.84375 -1.03125 7.0625 -1.03125 Z "/>
</g>
<g id="glyph-0-4">
<path d="M 0.8125 0 L 0.8125 -1.03125 L 0.875 -1.03125 C 1.425781 -1.03125 1.898438 -1.128906 2.296875 -1.328125 C 2.691406 -1.535156 2.890625 -2.019531 2.890625 -2.78125 L 2.890625 -10.40625 C 2.890625 -11.125 2.6875 -11.582031 2.28125 -11.78125 C 1.882812 -11.976562 1.414062 -12.078125 0.875 -12.078125 L 0.8125 -12.078125 L 0.8125 -13.09375 L 4.5625 -13.09375 L 5.03125 -10.671875 L 5.15625 -10.671875 C 5.363281 -11.160156 5.585938 -11.609375 5.828125 -12.015625 C 6.078125 -12.429688 6.40625 -12.753906 6.8125 -12.984375 C 7.21875 -13.222656 7.78125 -13.34375 8.5 -13.34375 C 9.394531 -13.34375 10.054688 -13.1875 10.484375 -12.875 C 10.921875 -12.570312 11.140625 -12.132812 11.140625 -11.5625 C 11.140625 -11.050781 10.960938 -10.632812 10.609375 -10.3125 C 10.265625 -9.988281 9.6875 -9.828125 8.875 -9.828125 C 8.875 -10.492188 8.773438 -10.976562 8.578125 -11.28125 C 8.378906 -11.582031 8.046875 -11.734375 7.578125 -11.734375 C 7.117188 -11.734375 6.734375 -11.550781 6.421875 -11.1875 C 6.117188 -10.832031 5.875 -10.378906 5.6875 -9.828125 C 5.507812 -9.273438 5.378906 -8.695312 5.296875 -8.09375 C 5.222656 -7.5 5.1875 -6.96875 5.1875 -6.5 L 5.1875 -2.65625 C 5.1875 -1.945312 5.382812 -1.5 5.78125 -1.3125 C 6.175781 -1.125 6.644531 -1.03125 7.1875 -1.03125 L 7.875 -1.03125 L 7.875 0 Z "/>
</g>
<g id="glyph-0-5">
<path d="M 6.921875 0.25 C 5.835938 0.25 4.875 0.0195312 4.03125 -0.4375 C 3.195312 -0.894531 2.539062 -1.613281 2.0625 -2.59375 C 1.582031 -3.582031 1.34375 -4.875 1.34375 -6.46875 C 1.34375 -8.21875 1.582031 -9.59375 2.0625 -10.59375 C 2.539062 -11.59375 3.191406 -12.300781 4.015625 -12.71875 C 4.835938 -13.132812 5.765625 -13.34375 6.796875 -13.34375 C 7.472656 -13.34375 8.140625 -13.253906 8.796875 -13.078125 C 9.453125 -12.898438 9.988281 -12.625 10.40625 -12.25 C 10.832031 -11.882812 11.046875 -11.414062 11.046875 -10.84375 C 11.046875 -10.289062 10.863281 -9.894531 10.5 -9.65625 C 10.132812 -9.425781 9.59375 -9.3125 8.875 -9.3125 C 8.875 -10.070312 8.726562 -10.726562 8.4375 -11.28125 C 8.15625 -11.84375 7.609375 -12.125 6.796875 -12.125 C 6.171875 -12.125 5.625 -11.957031 5.15625 -11.625 C 4.695312 -11.300781 4.34375 -10.734375 4.09375 -9.921875 C 3.84375 -9.109375 3.71875 -7.96875 3.71875 -6.5 C 3.71875 -4.769531 4.003906 -3.476562 4.578125 -2.625 C 5.160156 -1.769531 6.101562 -1.34375 7.40625 -1.34375 C 8.164062 -1.34375 8.828125 -1.5 9.390625 -1.8125 C 9.953125 -2.132812 10.375 -2.546875 10.65625 -3.046875 C 10.925781 -2.828125 11.0625 -2.515625 11.0625 -2.109375 C 11.0625 -1.734375 10.90625 -1.363281 10.59375 -1 C 10.289062 -0.644531 9.832031 -0.347656 9.21875 -0.109375 C 8.613281 0.128906 7.847656 0.25 6.921875 0.25 Z "/>
</g>
<g id="glyph-0-6">
<path d="M 7.015625 0.25 C 5.234375 0.25 3.84375 -0.335938 2.84375 -1.515625 C 1.84375 -2.691406 1.34375 -4.335938 1.34375 -6.453125 C 1.34375 -8.734375 1.8125 -10.453125 2.75 -11.609375 C 3.695312 -12.765625 5.035156 -13.34375 6.765625 -13.34375 C 8.347656 -13.34375 9.59375 -12.851562 10.5 -11.875 C 11.40625 -10.894531 11.859375 -9.4375 11.859375 -7.5 L 11.859375 -6.375 L 3.71875 -6.375 C 3.75 -4.601562 4.066406 -3.3125 4.671875 -2.5 C 5.285156 -1.695312 6.179688 -1.296875 7.359375 -1.296875 C 8.203125 -1.296875 8.921875 -1.46875 9.515625 -1.8125 C 10.109375 -2.164062 10.550781 -2.5625 10.84375 -3 C 10.957031 -2.957031 11.0625 -2.863281 11.15625 -2.71875 C 11.257812 -2.570312 11.3125 -2.390625 11.3125 -2.171875 C 11.3125 -1.847656 11.15625 -1.5 10.84375 -1.125 C 10.539062 -0.75 10.070312 -0.425781 9.4375 -0.15625 C 8.800781 0.113281 7.992188 0.25 7.015625 0.25 Z M 9.390625 -7.703125 C 9.390625 -9.003906 9.1875 -10.046875 8.78125 -10.828125 C 8.382812 -11.617188 7.695312 -12.015625 6.71875 -12.015625 C 5.820312 -12.015625 5.125 -11.644531 4.625 -10.90625 C 4.132812 -10.164062 3.847656 -9.097656 3.765625 -7.703125 Z "/>
</g>
<g id="glyph-0-7">
</g>
<g id="glyph-0-8">
<path d="M 5.859375 0.25 C 4.617188 0.25 3.71875 -0.03125 3.15625 -0.59375 C 2.601562 -1.15625 2.328125 -2.140625 2.328125 -3.546875 L 2.328125 -11.703125 L 0.46875 -11.703125 L 0.46875 -12.6875 C 0.757812 -12.6875 1.082031 -12.742188 1.4375 -12.859375 C 1.800781 -12.984375 2.113281 -13.1875 2.375 -13.46875 C 2.644531 -13.757812 2.867188 -14.113281 3.046875 -14.53125 C 3.234375 -14.957031 3.382812 -15.484375 3.5 -16.109375 L 4.625 -16.109375 L 4.625 -13.09375 L 7.8125 -13.09375 L 7.8125 -11.703125 L 4.625 -11.703125 L 4.625 -3.46875 C 4.625 -2.632812 4.789062 -2.019531 5.125 -1.625 C 5.46875 -1.238281 5.914062 -1.046875 6.46875 -1.046875 C 6.769531 -1.046875 7.039062 -1.0625 7.28125 -1.09375 C 7.53125 -1.132812 7.785156 -1.175781 8.046875 -1.21875 L 8.046875 -0.140625 C 7.828125 -0.046875 7.503906 0.0390625 7.078125 0.125 C 6.660156 0.207031 6.253906 0.25 5.859375 0.25 Z "/>
</g>
<g id="glyph-0-9">
<path d="M 5.015625 0.25 C 3.921875 0.25 3.015625 -0.0664062 2.296875 -0.703125 C 1.578125 -1.335938 1.21875 -2.328125 1.21875 -3.671875 C 1.21875 -4.972656 1.675781 -5.929688 2.59375 -6.546875 C 3.519531 -7.171875 4.921875 -7.515625 6.796875 -7.578125 L 8.828125 -7.65625 L 8.828125 -9.109375 C 8.828125 -9.703125 8.773438 -10.222656 8.671875 -10.671875 C 8.578125 -11.117188 8.363281 -11.472656 8.03125 -11.734375 C 7.707031 -11.992188 7.210938 -12.125 6.546875 -12.125 C 5.929688 -12.125 5.457031 -12.007812 5.125 -11.78125 C 4.800781 -11.550781 4.585938 -11.234375 4.484375 -10.828125 C 4.378906 -10.429688 4.328125 -9.972656 4.328125 -9.453125 C 3.640625 -9.453125 3.117188 -9.570312 2.765625 -9.8125 C 2.421875 -10.050781 2.25 -10.445312 2.25 -11 C 2.25 -11.570312 2.445312 -12.023438 2.84375 -12.359375 C 3.25 -12.703125 3.785156 -12.953125 4.453125 -13.109375 C 5.117188 -13.265625 5.847656 -13.34375 6.640625 -13.34375 C 8.140625 -13.34375 9.257812 -13.023438 10 -12.390625 C 10.75 -11.753906 11.125 -10.660156 11.125 -9.109375 L 11.125 -2.78125 C 11.125 -2.101562 11.234375 -1.640625 11.453125 -1.390625 C 11.679688 -1.148438 12.078125 -1.03125 12.640625 -1.03125 L 12.703125 -1.03125 L 12.703125 0 L 9.40625 0 L 9.015625 -2.109375 L 8.828125 -2.109375 C 8.484375 -1.648438 8.144531 -1.242188 7.8125 -0.890625 C 7.488281 -0.535156 7.109375 -0.253906 6.671875 -0.046875 C 6.242188 0.148438 5.691406 0.25 5.015625 0.25 Z M 5.578125 -1.265625 C 6.566406 -1.265625 7.351562 -1.570312 7.9375 -2.1875 C 8.53125 -2.800781 8.828125 -3.628906 8.828125 -4.671875 L 8.828125 -6.640625 L 7.265625 -6.578125 C 5.878906 -6.503906 4.921875 -6.21875 4.390625 -5.71875 C 3.859375 -5.226562 3.59375 -4.503906 3.59375 -3.546875 C 3.59375 -2.023438 4.253906 -1.265625 5.578125 -1.265625 Z "/>
</g>
<g id="glyph-0-10">
<path d="M 0.3125 0 L 0.3125 -1.03125 L 0.640625 -1.03125 C 1.191406 -1.03125 1.660156 -1.128906 2.046875 -1.328125 C 2.441406 -1.535156 2.640625 -2.019531 2.640625 -2.78125 L 2.640625 -15.890625 C 2.640625 -16.597656 2.4375 -17.050781 2.03125 -17.25 C 1.632812 -17.445312 1.171875 -17.546875 0.640625 -17.546875 L 0.3125 -17.546875 L 0.3125 -18.578125 L 4.9375 -18.578125 L 4.9375 -2.78125 C 4.9375 -2.019531 5.128906 -1.535156 5.515625 -1.328125 C 5.910156 -1.128906 6.382812 -1.03125 6.9375 -1.03125 L 7.265625 -1.03125 L 7.265625 0 Z "/>
</g>
<g id="glyph-0-11">
<path d="M 3.9375 -15.546875 C 3.539062 -15.546875 3.207031 -15.65625 2.9375 -15.875 C 2.675781 -16.101562 2.546875 -16.5 2.546875 -17.0625 C 2.546875 -17.625 2.675781 -18.015625 2.9375 -18.234375 C 3.207031 -18.460938 3.539062 -18.578125 3.9375 -18.578125 C 4.3125 -18.578125 4.632812 -18.460938 4.90625 -18.234375 C 5.1875 -18.015625 5.328125 -17.625 5.328125 -17.0625 C 5.328125 -16.5 5.1875 -16.101562 4.90625 -15.875 C 4.632812 -15.65625 4.3125 -15.546875 3.9375 -15.546875 Z M 0.5625 0 L 0.5625 -1.03125 L 0.875 -1.03125 C 1.414062 -1.03125 1.882812 -1.125 2.28125 -1.3125 C 2.6875 -1.5 2.890625 -1.945312 2.890625 -2.65625 L 2.890625 -10.40625 C 2.890625 -11.125 2.6875 -11.582031 2.28125 -11.78125 C 1.882812 -11.976562 1.414062 -12.078125 0.875 -12.078125 L 0.8125 -12.078125 L 0.8125 -13.09375 L 5.1875 -13.09375 L 5.1875 -2.78125 C 5.1875 -2.019531 5.378906 -1.535156 5.765625 -1.328125 C 6.160156 -1.128906 6.632812 -1.03125 7.1875 -1.03125 L 7.5 -1.03125 L 7.5 0 Z "/>
</g>
<g id="glyph-0-12">
<path d="M 0.921875 4.71875 C 2.035156 4.71875 2.945312 4.503906 3.65625 4.078125 C 4.363281 3.660156 4.9375 3.085938 5.375 2.359375 C 5.8125 1.628906 6.160156 0.8125 6.421875 -0.09375 L 1.90625 -10.78125 C 1.695312 -11.28125 1.472656 -11.617188 1.234375 -11.796875 C 0.992188 -11.984375 0.640625 -12.078125 0.171875 -12.078125 L 0.09375 -12.078125 L 0.09375 -13.09375 L 5.96875 -13.09375 L 5.96875 -12.078125 L 5.890625 -12.078125 C 4.910156 -12.078125 4.421875 -11.6875 4.421875 -10.90625 C 4.421875 -10.625 4.488281 -10.320312 4.625 -10 L 6.40625 -5.640625 C 6.5625 -5.265625 6.71875 -4.851562 6.875 -4.40625 C 7.03125 -3.957031 7.171875 -3.53125 7.296875 -3.125 C 7.429688 -2.71875 7.523438 -2.378906 7.578125 -2.109375 C 7.691406 -2.578125 7.84375 -3.0625 8.03125 -3.5625 C 8.21875 -4.070312 8.390625 -4.570312 8.546875 -5.0625 L 10.1875 -9.828125 C 10.332031 -10.210938 10.40625 -10.5625 10.40625 -10.875 C 10.40625 -11.675781 9.867188 -12.078125 8.796875 -12.078125 L 8.71875 -12.078125 L 8.71875 -13.09375 L 13.8125 -13.09375 L 13.8125 -12.078125 L 13.734375 -12.078125 C 13.265625 -12.078125 12.90625 -11.953125 12.65625 -11.703125 C 12.414062 -11.460938 12.15625 -10.953125 11.875 -10.171875 L 8.15625 0.09375 C 7.738281 1.28125 7.332031 2.25 6.9375 3 C 6.550781 3.75 6.113281 4.332031 5.625 4.75 C 5.144531 5.164062 4.546875 5.453125 3.828125 5.609375 C 3.117188 5.773438 2.226562 5.859375 1.15625 5.859375 L 0.921875 5.859375 Z "/>
</g>
</g>
</defs>
<g fill="rgb(100%, 100%, 100%)" fill-opacity="1">
<use xlink:href="#glyph-0-0" x="30" y="46.130859"/>
<use xlink:href="#glyph-0-1" x="45" y="46.130859"/>
<use xlink:href="#glyph-0-2" x="61" y="46.130859"/>
<use xlink:href="#glyph-0-3" x="70" y="46.130859"/>
<use xlink:href="#glyph-0-4" x="84" y="46.130859"/>
<use xlink:href="#glyph-0-5" x="96" y="46.130859"/>
<use xlink:href="#glyph-0-6" x="108" y="46.130859"/>
<use xlink:href="#glyph-0-7" x="121" y="46.130859"/>
<use xlink:href="#glyph-0-8" x="127" y="46.130859"/>
<use xlink:href="#glyph-0-3" x="136" y="46.130859"/>
<use xlink:href="#glyph-0-8" x="150" y="46.130859"/>
<use xlink:href="#glyph-0-9" x="159" y="46.130859"/>
<use xlink:href="#glyph-0-10" x="173" y="46.130859"/>
<use xlink:href="#glyph-0-11" x="181" y="46.130859"/>
<use xlink:href="#glyph-0-8" x="189" y="46.130859"/>
<use xlink:href="#glyph-0-12" x="198" y="46.130859"/>
</g>
</svg>
