<?xml version="1.0" encoding="UTF-8"?>
<svg xmlns="http://www.w3.org/2000/svg" xmlns:xlink="http://www.w3.org/1999/xlink" width="854" height="480" viewBox="0 0 854 480">
<defs>
<g>
<g id="glyph-0-0">
<path d="M 9.328125 0.375 C 6.835938 0.375 5.023438 -0.046875 3.890625 -0.890625 C 2.753906 -1.734375 2.1875 -2.707031 2.1875 -3.8125 C 2.1875 -4.570312 2.40625 -5.164062 2.84375 -5.59375 C 3.289062 -6.019531 3.867188 -6.234375 4.578125 -6.234375 C 4.578125 -4.921875 4.988281 -3.828125 5.8125 -2.953125 C 6.644531 -2.085938 7.832031 -1.65625 9.375 -1.65625 C 10.375 -1.65625 11.296875 -1.847656 12.140625 -2.234375 C 12.984375 -2.628906 13.671875 -3.269531 14.203125 -4.15625 C 14.734375 -5.039062 15 -6.238281 15 -7.75 C 15 -9.332031 14.382812 -10.601562 13.15625 -11.5625 C 11.9375 -12.519531 10.269531 -13 8.15625 -13 L 6.953125 -13 L 6.953125 -14.921875 L 8.15625 -14.921875 C 9.269531 -14.921875 10.269531 -15.160156 11.15625 -15.640625 C 12.050781 -16.117188 12.765625 -16.796875 13.296875 -17.671875 C 13.828125 -18.554688 14.09375 -19.59375 14.09375 -20.78125 C 14.09375 -22.269531 13.78125 -23.421875 13.15625 -24.234375 C 12.539062 -25.054688 11.503906 -25.46875 10.046875 -25.46875 C 8.910156 -25.46875 8.039062 -25.203125 7.4375 -24.671875 C 6.832031 -24.140625 6.421875 -23.453125 6.203125 -22.609375 C 5.992188 -21.765625 5.890625 -20.835938 5.890625 -19.828125 C 4.984375 -19.828125 4.210938 -20 3.578125 -20.34375 C 2.953125 -20.6875 2.640625 -21.335938 2.640625 -22.296875 C 2.640625 -23.753906 3.265625 -24.960938 4.515625 -25.921875 C 5.765625 -26.878906 7.609375 -27.359375 10.046875 -27.359375 C 12.441406 -27.359375 14.363281 -26.832031 15.8125 -25.78125 C 17.257812 -24.738281 17.984375 -23.257812 17.984375 -21.34375 C 17.984375 -20.207031 17.71875 -19.164062 17.1875 -18.21875 C 16.65625 -17.28125 15.9375 -16.476562 15.03125 -15.8125 C 14.125 -15.144531 13.09375 -14.671875 11.9375 -14.390625 C 12.644531 -14.316406 13.398438 -14.160156 14.203125 -13.921875 C 15.015625 -13.679688 15.773438 -13.304688 16.484375 -12.796875 C 17.203125 -12.296875 17.785156 -11.632812 18.234375 -10.8125 C 18.691406 -10 18.921875 -8.960938 18.921875 -7.703125 C 18.921875 -6.191406 18.628906 -4.910156 18.046875 -3.859375 C 17.472656 -2.816406 16.707031 -1.988281 15.75 -1.375 C 14.789062 -0.757812 13.75 -0.3125 12.625 -0.03125 C 11.507812 0.238281 10.410156 0.375 9.328125 0.375 Z "/>
</g>
</g>
</defs>
<g fill="rgb(100%, 100%, 100%)" fill-opacity="1">
<use xlink:href="#glyph-0-0" x="30" y="60.383789"/>
</g>
</svg>
