<?xml version="1.0" encoding="UTF-8"?>
<svg xmlns="http://www.w3.org/2000/svg" xmlns:xlink="http://www.w3.org/1999/xlink" width="2560" height="1440" viewBox="0 0 2560 1440">
<defs>
<g>
<g id="glyph-0-0">
<path d="M 0.234375 0 L 0.234375 -0.34375 L 0.296875 -0.34375 C 0.484375 -0.34375 0.644531 -0.378906 0.78125 -0.453125 C 0.914062 -0.523438 0.984375 -0.691406 0.984375 -0.953125 L 0.984375 -3.546875 C 0.984375 -3.796875 0.914062 -3.953125 0.78125 -4.015625 C 0.65625 -4.078125 0.5 -4.109375 0.3125 -4.109375 L 0.28125 -4.109375 L 0.28125 -4.46875 L 1.625 -4.46875 L 1.734375 -3.796875 L 1.78125 -3.796875 C 1.945312 -4.097656 2.132812 -4.296875 2.34375 -4.390625 C 2.5625 -4.492188 2.804688 -4.546875 3.078125 -4.546875 C 3.515625 -4.546875 3.851562 -4.414062 4.09375 -4.15625 C 4.34375 -3.894531 4.46875 -3.484375 4.46875 -2.921875 L 4.46875 -0.953125 C 4.46875 -0.691406 4.523438 -0.523438 4.640625 -0.453125 C 4.753906 -0.378906 4.90625 -0.34375 5.09375 -0.34375 L 5.140625 -0.34375 L 5.140625 0 L 3.6875 0 L 3.6875 -2.875 C 3.6875 -3.238281 3.617188 -3.519531 3.484375 -3.71875 C 3.347656 -3.914062 3.109375 -4.015625 2.765625 -4.015625 C 2.523438 -4.015625 2.328125 -3.953125 2.171875 -3.828125 C 2.023438 -3.703125 1.921875 -3.535156 1.859375 -3.328125 C 1.796875 -3.117188 1.765625 -2.898438 1.765625 -2.671875 L 1.765625 -0.90625 C 1.765625 -0.664062 1.828125 -0.507812 1.953125 -0.4375 C 2.085938 -0.375 2.25 -0.34375 2.4375 -0.34375 L 2.46875 -0.34375 L 2.46875 0 Z "/>
</g>
<g id="glyph-0-1">
<path d="M 2.390625 0.078125 C 1.785156 0.078125 1.3125 -0.109375 0.96875 -0.484375 C 0.625 -0.867188 0.453125 -1.453125 0.453125 -2.234375 C 0.453125 -3.015625 0.617188 -3.59375 0.953125 -3.96875 C 1.285156 -4.351562 1.773438 -4.546875 2.421875 -4.546875 C 3.015625 -4.546875 3.484375 -4.351562 3.828125 -3.96875 C 4.171875 -3.59375 4.34375 -3.015625 4.34375 -2.234375 C 4.34375 -1.453125 4.175781 -0.867188 3.84375 -0.484375 C 3.519531 -0.109375 3.035156 0.078125 2.390625 0.078125 Z M 2.40625 -0.34375 C 2.820312 -0.34375 3.113281 -0.503906 3.28125 -0.828125 C 3.457031 -1.148438 3.546875 -1.617188 3.546875 -2.234375 C 3.546875 -2.859375 3.457031 -3.328125 3.28125 -3.640625 C 3.101562 -3.953125 2.8125 -4.109375 2.40625 -4.109375 C 1.988281 -4.109375 1.691406 -3.953125 1.515625 -3.640625 C 1.347656 -3.328125 1.265625 -2.859375 1.265625 -2.234375 C 1.265625 -1.617188 1.347656 -1.148438 1.515625 -0.828125 C 1.691406 -0.503906 1.988281 -0.34375 2.40625 -0.34375 Z "/>
</g>
</g>
</defs>
<g fill="rgb(100%, 100%, 100%)" fill-opacity="1">
<use xlink:href="#glyph-0-0" x="30" y="28.908203"/>
<use xlink:href="#glyph-0-1" x="35" y="28.908203"/>
</g>
</svg>
