<?xml version="1.0" encoding="UTF-8"?>
<svg xmlns="http://www.w3.org/2000/svg" xmlns:xlink="http://www.w3.org/1999/xlink" width="854" height="480" viewBox="0 0 854 480">
<defs>
<g>
<g id="glyph-0-0">
<path d="M 2.890625 -19.25 C 2.679688 -19.914062 2.410156 -20.359375 2.078125 -20.578125 C 1.753906 -20.796875 1.289062 -20.90625 0.6875 -20.90625 L 0.28125 -20.90625 L 0.28125 -22.21875 L 8.828125 -22.21875 L 8.828125 -20.90625 L 8.125 -20.90625 C 6.875 -20.90625 6.25 -20.40625 6.25 -19.40625 C 6.25 -19.238281 6.273438 -19.0625 6.328125 -18.875 C 6.378906 -18.695312 6.4375 -18.492188 6.5 -18.265625 L 9.359375 -8.3125 C 9.628906 -7.375 9.878906 -6.445312 10.109375 -5.53125 C 10.335938 -4.625 10.535156 -3.796875 10.703125 -3.046875 C 10.867188 -3.859375 11.054688 -4.742188 11.265625 -5.703125 C 11.472656 -6.671875 11.710938 -7.648438 11.984375 -8.640625 L 15.671875 -22 L 17.921875 -22 L 21.8125 -8.53125 C 22.101562 -7.507812 22.359375 -6.519531 22.578125 -5.5625 C 22.804688 -4.613281 22.992188 -3.773438 23.140625 -3.046875 C 23.304688 -3.796875 23.488281 -4.582031 23.6875 -5.40625 C 23.882812 -6.238281 24.117188 -7.15625 24.390625 -8.15625 L 27.125 -17.765625 C 27.1875 -18.015625 27.257812 -18.300781 27.34375 -18.625 C 27.425781 -18.957031 27.46875 -19.207031 27.46875 -19.375 C 27.46875 -20.394531 26.785156 -20.90625 25.421875 -20.90625 L 24.703125 -20.90625 L 24.703125 -22.21875 L 32.296875 -22.21875 L 32.296875 -20.90625 L 31.703125 -20.90625 C 31.097656 -20.90625 30.625 -20.757812 30.28125 -20.46875 C 29.9375 -20.175781 29.625 -19.515625 29.34375 -18.484375 L 24.078125 0 L 21.28125 0 L 16.203125 -17.421875 L 11.453125 0 L 8.59375 0 Z "/>
</g>
<g id="glyph-0-1">
<path d="M 8.921875 0.3125 C 6.660156 0.3125 4.894531 -0.429688 3.625 -1.921875 C 2.351562 -3.421875 1.71875 -5.519531 1.71875 -8.21875 C 1.71875 -11.113281 2.316406 -13.296875 3.515625 -14.765625 C 4.710938 -16.242188 6.414062 -16.984375 8.625 -16.984375 C 10.632812 -16.984375 12.210938 -16.359375 13.359375 -15.109375 C 14.515625 -13.867188 15.09375 -12.015625 15.09375 -9.546875 L 15.09375 -8.125 L 4.734375 -8.125 C 4.773438 -5.863281 5.179688 -4.21875 5.953125 -3.1875 C 6.734375 -2.164062 7.867188 -1.65625 9.359375 -1.65625 C 10.441406 -1.65625 11.359375 -1.875 12.109375 -2.3125 C 12.867188 -2.757812 13.4375 -3.265625 13.8125 -3.828125 C 13.957031 -3.765625 14.09375 -3.640625 14.21875 -3.453125 C 14.34375 -3.265625 14.40625 -3.035156 14.40625 -2.765625 C 14.40625 -2.347656 14.207031 -1.898438 13.8125 -1.421875 C 13.414062 -0.953125 12.8125 -0.546875 12 -0.203125 C 11.195312 0.140625 10.171875 0.3125 8.921875 0.3125 Z M 11.953125 -9.796875 C 11.953125 -11.453125 11.695312 -12.785156 11.1875 -13.796875 C 10.675781 -14.804688 9.800781 -15.3125 8.5625 -15.3125 C 7.414062 -15.3125 6.523438 -14.835938 5.890625 -13.890625 C 5.265625 -12.941406 4.898438 -11.578125 4.796875 -9.796875 Z "/>
</g>
<g id="glyph-0-2">
</g>
<g id="glyph-0-3">
<path d="M 0.15625 0 L 0.15625 -1.3125 L 0.4375 -1.3125 C 1.1875 -1.3125 1.785156 -1.445312 2.234375 -1.71875 C 2.691406 -2 3.222656 -2.523438 3.828125 -3.296875 L 7.75 -8.375 L 3.828125 -13.71875 C 3.367188 -14.257812 2.925781 -14.671875 2.5 -14.953125 C 2.070312 -15.234375 1.625 -15.375 1.15625 -15.375 L 0.75 -15.375 L 0.75 -16.671875 L 8.640625 -16.671875 L 8.640625 -15.375 L 8.5625 -15.375 C 7.851562 -15.375 7.378906 -15.285156 7.140625 -15.109375 C 6.898438 -14.929688 6.78125 -14.71875 6.78125 -14.46875 C 6.78125 -14.257812 6.84375 -14.050781 6.96875 -13.84375 C 7.09375 -13.632812 7.269531 -13.363281 7.5 -13.03125 L 9.546875 -10.234375 L 11.171875 -12.5625 C 11.398438 -12.914062 11.585938 -13.253906 11.734375 -13.578125 C 11.878906 -13.898438 11.953125 -14.195312 11.953125 -14.46875 C 11.953125 -14.84375 11.789062 -15.085938 11.46875 -15.203125 C 11.144531 -15.316406 10.742188 -15.375 10.265625 -15.375 L 10.171875 -15.375 L 10.171875 -16.671875 L 16.984375 -16.671875 L 16.984375 -15.375 L 16.703125 -15.375 C 16.097656 -15.375 15.578125 -15.253906 15.140625 -15.015625 C 14.710938 -14.773438 14.1875 -14.226562 13.5625 -13.375 L 10.359375 -9.109375 L 14.9375 -2.953125 C 15.382812 -2.347656 15.8125 -1.921875 16.21875 -1.671875 C 16.625 -1.429688 17.023438 -1.3125 17.421875 -1.3125 L 17.828125 -1.3125 L 17.828125 0 L 9.796875 0 L 9.796875 -1.3125 L 9.953125 -1.3125 C 11.203125 -1.3125 11.828125 -1.648438 11.828125 -2.328125 C 11.828125 -2.554688 11.75 -2.8125 11.59375 -3.09375 C 11.4375 -3.375 11.117188 -3.835938 10.640625 -4.484375 L 8.5625 -7.28125 L 6.375 -4.234375 C 6.1875 -3.984375 6 -3.675781 5.8125 -3.3125 C 5.625 -2.945312 5.53125 -2.597656 5.53125 -2.265625 C 5.53125 -1.929688 5.679688 -1.6875 5.984375 -1.53125 C 6.285156 -1.382812 6.78125 -1.3125 7.46875 -1.3125 L 7.5625 -1.3125 L 7.5625 0 Z "/>
</g>
<g id="glyph-0-4">
<path d="M 0.5625 7.46875 L 0.5625 6.15625 L 0.8125 6.15625 C 1.507812 6.15625 2.109375 6.023438 2.609375 5.765625 C 3.109375 5.503906 3.359375 4.890625 3.359375 3.921875 L 3.359375 -13.25 C 3.359375 -14.164062 3.101562 -14.75 2.59375 -15 C 2.082031 -15.25 1.488281 -15.375 0.8125 -15.375 L 0.40625 -15.375 L 0.40625 -16.671875 L 5.84375 -16.671875 L 6.15625 -13.875 L 6.28125 -13.875 C 6.757812 -14.832031 7.367188 -15.585938 8.109375 -16.140625 C 8.859375 -16.703125 9.835938 -16.984375 11.046875 -16.984375 C 13.097656 -16.984375 14.664062 -16.289062 15.75 -14.90625 C 16.84375 -13.53125 17.390625 -11.351562 17.390625 -8.375 C 17.390625 -5.363281 16.84375 -3.160156 15.75 -1.765625 C 14.664062 -0.378906 13.097656 0.3125 11.046875 0.3125 C 9.835938 0.3125 8.851562 0.0546875 8.09375 -0.453125 C 7.34375 -0.960938 6.738281 -1.617188 6.28125 -2.421875 L 6.15625 -2.421875 C 6.195312 -1.828125 6.226562 -1.191406 6.25 -0.515625 C 6.269531 0.160156 6.28125 0.695312 6.28125 1.09375 L 6.28125 4.078125 C 6.28125 4.984375 6.535156 5.554688 7.046875 5.796875 C 7.554688 6.035156 8.148438 6.15625 8.828125 6.15625 L 8.921875 6.15625 L 8.921875 7.46875 Z M 10.546875 -1.6875 C 11.910156 -1.6875 12.890625 -2.257812 13.484375 -3.40625 C 14.078125 -4.5625 14.375 -6.226562 14.375 -8.40625 C 14.375 -10.625 14.078125 -12.273438 13.484375 -13.359375 C 12.890625 -14.453125 11.898438 -15 10.515625 -15 C 8.898438 -15 7.789062 -14.453125 7.1875 -13.359375 C 6.582031 -12.273438 6.28125 -10.613281 6.28125 -8.375 C 6.28125 -6.21875 6.582031 -4.5625 7.1875 -3.40625 C 7.789062 -2.257812 8.910156 -1.6875 10.546875 -1.6875 Z "/>
</g>
<g id="glyph-0-5">
<path d="M 0.40625 0 L 0.40625 -1.3125 L 0.8125 -1.3125 C 1.507812 -1.3125 2.109375 -1.4375 2.609375 -1.6875 C 3.109375 -1.945312 3.359375 -2.566406 3.359375 -3.546875 L 3.359375 -20.21875 C 3.359375 -21.132812 3.101562 -21.71875 2.59375 -21.96875 C 2.082031 -22.21875 1.488281 -22.34375 0.8125 -22.34375 L 0.40625 -22.34375 L 0.40625 -23.640625 L 6.28125 -23.640625 L 6.28125 -3.546875 C 6.28125 -2.566406 6.53125 -1.945312 7.03125 -1.6875 C 7.53125 -1.4375 8.128906 -1.3125 8.828125 -1.3125 L 9.234375 -1.3125 L 9.234375 0 Z "/>
</g>
<g id="glyph-0-6">
<path d="M 8.921875 0.3125 C 6.679688 0.3125 4.921875 -0.398438 3.640625 -1.828125 C 2.359375 -3.265625 1.71875 -5.445312 1.71875 -8.375 C 1.71875 -11.269531 2.332031 -13.425781 3.5625 -14.84375 C 4.789062 -16.269531 6.609375 -16.984375 9.015625 -16.984375 C 11.253906 -16.984375 13.015625 -16.269531 14.296875 -14.84375 C 15.585938 -13.425781 16.234375 -11.269531 16.234375 -8.375 C 16.234375 -5.445312 15.613281 -3.265625 14.375 -1.828125 C 13.144531 -0.398438 11.328125 0.3125 8.921875 0.3125 Z M 8.984375 -1.3125 C 10.546875 -1.3125 11.640625 -1.90625 12.265625 -3.09375 C 12.898438 -4.289062 13.21875 -6.050781 13.21875 -8.375 C 13.21875 -10.695312 12.894531 -12.4375 12.25 -13.59375 C 11.613281 -14.757812 10.515625 -15.34375 8.953125 -15.34375 C 7.398438 -15.34375 6.304688 -14.757812 5.671875 -13.59375 C 5.046875 -12.4375 4.734375 -10.695312 4.734375 -8.375 C 4.734375 -6.050781 5.050781 -4.289062 5.6875 -3.09375 C 6.332031 -1.90625 7.429688 -1.3125 8.984375 -1.3125 Z "/>
</g>
<g id="glyph-0-7">
<path d="M 1.03125 0 L 1.03125 -1.3125 L 1.125 -1.3125 C 1.820312 -1.3125 2.421875 -1.4375 2.921875 -1.6875 C 3.421875 -1.945312 3.671875 -2.566406 3.671875 -3.546875 L 3.671875 -13.25 C 3.671875 -14.164062 3.414062 -14.75 2.90625 -15 C 2.394531 -15.25 1.800781 -15.375 1.125 -15.375 L 1.03125 -15.375 L 1.03125 -16.671875 L 5.8125 -16.671875 L 6.40625 -13.59375 L 6.5625 -13.59375 C 6.832031 -14.21875 7.125 -14.785156 7.4375 -15.296875 C 7.75 -15.816406 8.160156 -16.226562 8.671875 -16.53125 C 9.191406 -16.832031 9.910156 -16.984375 10.828125 -16.984375 C 11.960938 -16.984375 12.804688 -16.785156 13.359375 -16.390625 C 13.910156 -15.992188 14.1875 -15.4375 14.1875 -14.71875 C 14.1875 -14.070312 13.960938 -13.539062 13.515625 -13.125 C 13.066406 -12.707031 12.328125 -12.5 11.296875 -12.5 C 11.296875 -13.351562 11.171875 -13.972656 10.921875 -14.359375 C 10.671875 -14.742188 10.242188 -14.9375 9.640625 -14.9375 C 9.054688 -14.9375 8.566406 -14.707031 8.171875 -14.25 C 7.785156 -13.789062 7.476562 -13.207031 7.25 -12.5 C 7.019531 -11.800781 6.851562 -11.070312 6.75 -10.3125 C 6.644531 -9.550781 6.59375 -8.875 6.59375 -8.28125 L 6.59375 -3.390625 C 6.59375 -2.472656 6.847656 -1.894531 7.359375 -1.65625 C 7.867188 -1.425781 8.460938 -1.3125 9.140625 -1.3125 L 10.015625 -1.3125 L 10.015625 0 Z "/>
</g>
<g id="glyph-0-8">
<path d="M 11.046875 0.3125 C 9.835938 0.3125 8.851562 0.0546875 8.09375 -0.453125 C 7.34375 -0.960938 6.738281 -1.617188 6.28125 -2.421875 L 6.09375 -2.421875 L 5.53125 0 L 0.5625 0 L 0.5625 -1.3125 L 0.8125 -1.3125 C 1.507812 -1.3125 2.109375 -1.4375 2.609375 -1.6875 C 3.109375 -1.945312 3.359375 -2.566406 3.359375 -3.546875 L 3.359375 -20.21875 C 3.359375 -21.132812 3.101562 -21.71875 2.59375 -21.96875 C 2.082031 -22.21875 1.488281 -22.34375 0.8125 -22.34375 L 0.5625 -22.34375 L 0.5625 -23.640625 L 6.28125 -23.640625 L 6.28125 -17.921875 C 6.28125 -17.566406 6.273438 -17.113281 6.265625 -16.5625 C 6.253906 -16.007812 6.238281 -15.476562 6.21875 -14.96875 C 6.195312 -14.46875 6.175781 -14.101562 6.15625 -13.875 L 6.28125 -13.875 C 6.757812 -14.832031 7.367188 -15.585938 8.109375 -16.140625 C 8.859375 -16.703125 9.835938 -16.984375 11.046875 -16.984375 C 13.097656 -16.984375 14.664062 -16.289062 15.75 -14.90625 C 16.84375 -13.53125 17.390625 -11.351562 17.390625 -8.375 C 17.390625 -5.363281 16.84375 -3.160156 15.75 -1.765625 C 14.664062 -0.378906 13.097656 0.3125 11.046875 0.3125 Z M 10.546875 -1.6875 C 11.910156 -1.6875 12.890625 -2.257812 13.484375 -3.40625 C 14.078125 -4.5625 14.375 -6.226562 14.375 -8.40625 C 14.375 -10.625 14.078125 -12.273438 13.484375 -13.359375 C 12.890625 -14.453125 11.898438 -15 10.515625 -15 C 8.898438 -15 7.789062 -14.453125 7.1875 -13.359375 C 6.582031 -12.273438 6.28125 -10.613281 6.28125 -8.375 C 6.28125 -6.21875 6.582031 -4.5625 7.1875 -3.40625 C 7.789062 -2.257812 8.910156 -1.6875 10.546875 -1.6875 Z "/>
</g>
<g id="glyph-0-9">
<path d="M 7.46875 0.3125 C 5.894531 0.3125 4.75 -0.0390625 4.03125 -0.75 C 3.3125 -1.46875 2.953125 -2.722656 2.953125 -4.515625 L 2.953125 -14.90625 L 0.59375 -14.90625 L 0.59375 -16.140625 C 0.96875 -16.140625 1.378906 -16.21875 1.828125 -16.375 C 2.285156 -16.53125 2.679688 -16.785156 3.015625 -17.140625 C 3.367188 -17.515625 3.660156 -17.96875 3.890625 -18.5 C 4.117188 -19.039062 4.304688 -19.707031 4.453125 -20.5 L 5.875 -20.5 L 5.875 -16.671875 L 9.953125 -16.671875 L 9.953125 -14.90625 L 5.875 -14.90625 L 5.875 -4.421875 C 5.875 -3.359375 6.09375 -2.578125 6.53125 -2.078125 C 6.96875 -1.585938 7.539062 -1.34375 8.25 -1.34375 C 8.613281 -1.34375 8.953125 -1.363281 9.265625 -1.40625 C 9.578125 -1.445312 9.898438 -1.5 10.234375 -1.5625 L 10.234375 -0.1875 C 9.960938 -0.0625 9.554688 0.0507812 9.015625 0.15625 C 8.484375 0.257812 7.96875 0.3125 7.46875 0.3125 Z "/>
</g>
<g id="glyph-0-10">
<path d="M 0.5625 0 L 0.5625 -1.3125 L 0.8125 -1.3125 C 1.507812 -1.3125 2.109375 -1.4375 2.609375 -1.6875 C 3.109375 -1.945312 3.359375 -2.566406 3.359375 -3.546875 L 3.359375 -20.21875 C 3.359375 -21.132812 3.101562 -21.71875 2.59375 -21.96875 C 2.082031 -22.21875 1.488281 -22.34375 0.8125 -22.34375 L 0.5625 -22.34375 L 0.5625 -23.640625 L 6.28125 -23.640625 L 6.28125 -16.796875 C 6.28125 -16.421875 6.269531 -16.03125 6.25 -15.625 C 6.226562 -15.226562 6.207031 -14.882812 6.1875 -14.59375 C 6.164062 -14.300781 6.15625 -14.15625 6.15625 -14.15625 L 6.3125 -14.15625 C 7.269531 -16.039062 8.796875 -16.984375 10.890625 -16.984375 C 12.671875 -16.984375 14.03125 -16.5 14.96875 -15.53125 C 15.914062 -14.570312 16.390625 -13.023438 16.390625 -10.890625 L 16.390625 -3.546875 C 16.390625 -2.566406 16.613281 -1.945312 17.0625 -1.6875 C 17.507812 -1.4375 18.085938 -1.3125 18.796875 -1.3125 L 18.890625 -1.3125 L 18.890625 0 L 13.46875 0 L 13.46875 -10.734375 C 13.46875 -12.078125 13.210938 -13.125 12.703125 -13.875 C 12.203125 -14.625 11.316406 -15 10.046875 -15 C 8.765625 -15 7.816406 -14.539062 7.203125 -13.625 C 6.585938 -12.707031 6.28125 -11.484375 6.28125 -9.953125 L 6.28125 -3.390625 C 6.28125 -2.472656 6.535156 -1.894531 7.046875 -1.65625 C 7.554688 -1.425781 8.148438 -1.3125 8.828125 -1.3125 L 8.921875 -1.3125 L 8.921875 0 Z "/>
</g>
<g id="glyph-0-11">
<path d="M 6.53125 0.3125 C 4.976562 0.3125 3.734375 0.03125 2.796875 -0.53125 C 1.867188 -1.09375 1.40625 -1.910156 1.40625 -2.984375 C 1.40625 -3.546875 1.515625 -3.984375 1.734375 -4.296875 C 1.960938 -4.609375 2.226562 -4.828125 2.53125 -4.953125 C 2.832031 -5.078125 3.109375 -5.140625 3.359375 -5.140625 C 3.359375 -4.054688 3.601562 -3.125 4.09375 -2.34375 C 4.582031 -1.570312 5.457031 -1.1875 6.71875 -1.1875 C 7.820312 -1.1875 8.664062 -1.445312 9.25 -1.96875 C 9.84375 -2.5 10.140625 -3.179688 10.140625 -4.015625 C 10.140625 -4.535156 10.03125 -4.957031 9.8125 -5.28125 C 9.59375 -5.613281 9.207031 -5.941406 8.65625 -6.265625 C 8.113281 -6.585938 7.332031 -6.96875 6.3125 -7.40625 C 5.257812 -7.882812 4.382812 -8.34375 3.6875 -8.78125 C 2.988281 -9.226562 2.46875 -9.75 2.125 -10.34375 C 1.789062 -10.9375 1.625 -11.675781 1.625 -12.5625 C 1.625 -13.976562 2.15625 -15.0625 3.21875 -15.8125 C 4.289062 -16.570312 5.707031 -16.953125 7.46875 -16.953125 C 8.957031 -16.953125 10.085938 -16.671875 10.859375 -16.109375 C 11.628906 -15.554688 12.015625 -14.882812 12.015625 -14.09375 C 12.015625 -13.53125 11.820312 -13.078125 11.4375 -12.734375 C 11.050781 -12.390625 10.492188 -12.21875 9.765625 -12.21875 C 9.765625 -13.257812 9.546875 -14.070312 9.109375 -14.65625 C 8.679688 -15.238281 8.007812 -15.53125 7.09375 -15.53125 C 6.03125 -15.53125 5.269531 -15.296875 4.8125 -14.828125 C 4.363281 -14.359375 4.140625 -13.757812 4.140625 -13.03125 C 4.140625 -12.25 4.429688 -11.644531 5.015625 -11.21875 C 5.609375 -10.789062 6.601562 -10.296875 8 -9.734375 C 9.09375 -9.273438 9.984375 -8.816406 10.671875 -8.359375 C 11.359375 -7.910156 11.859375 -7.382812 12.171875 -6.78125 C 12.492188 -6.175781 12.65625 -5.441406 12.65625 -4.578125 C 12.65625 -2.953125 12.09375 -1.726562 10.96875 -0.90625 C 9.851562 -0.09375 8.375 0.3125 6.53125 0.3125 Z "/>
</g>
<g id="glyph-0-12">
<path d="M 5.015625 -19.78125 C 4.515625 -19.78125 4.09375 -19.925781 3.75 -20.21875 C 3.40625 -20.507812 3.234375 -21.007812 3.234375 -21.71875 C 3.234375 -22.4375 3.40625 -22.9375 3.75 -23.21875 C 4.09375 -23.5 4.515625 -23.640625 5.015625 -23.640625 C 5.484375 -23.640625 5.894531 -23.5 6.25 -23.21875 C 6.601562 -22.9375 6.78125 -22.4375 6.78125 -21.71875 C 6.78125 -21.007812 6.601562 -20.507812 6.25 -20.21875 C 5.894531 -19.925781 5.484375 -19.78125 5.015625 -19.78125 Z M 0.71875 0 L 0.71875 -1.3125 L 1.125 -1.3125 C 1.800781 -1.3125 2.394531 -1.425781 2.90625 -1.65625 C 3.414062 -1.894531 3.671875 -2.472656 3.671875 -3.390625 L 3.671875 -13.25 C 3.671875 -14.164062 3.414062 -14.75 2.90625 -15 C 2.394531 -15.25 1.800781 -15.375 1.125 -15.375 L 1.03125 -15.375 L 1.03125 -16.671875 L 6.59375 -16.671875 L 6.59375 -3.546875 C 6.59375 -2.566406 6.84375 -1.945312 7.34375 -1.6875 C 7.84375 -1.4375 8.441406 -1.3125 9.140625 -1.3125 L 9.546875 -1.3125 L 9.546875 0 Z "/>
</g>
<g id="glyph-0-13">
<path d="M 6.375 0.3125 C 4.988281 0.3125 3.835938 -0.0859375 2.921875 -0.890625 C 2.015625 -1.703125 1.5625 -2.960938 1.5625 -4.671875 C 1.5625 -6.328125 2.144531 -7.546875 3.3125 -8.328125 C 4.488281 -9.117188 6.265625 -9.554688 8.640625 -9.640625 L 11.234375 -9.734375 L 11.234375 -11.609375 C 11.234375 -12.347656 11.171875 -13.003906 11.046875 -13.578125 C 10.921875 -14.148438 10.648438 -14.601562 10.234375 -14.9375 C 9.816406 -15.269531 9.1875 -15.4375 8.34375 -15.4375 C 7.550781 -15.4375 6.945312 -15.289062 6.53125 -15 C 6.113281 -14.707031 5.835938 -14.304688 5.703125 -13.796875 C 5.566406 -13.285156 5.5 -12.703125 5.5 -12.046875 C 4.632812 -12.046875 3.976562 -12.191406 3.53125 -12.484375 C 3.082031 -12.785156 2.859375 -13.289062 2.859375 -14 C 2.859375 -14.726562 3.113281 -15.304688 3.625 -15.734375 C 4.132812 -16.171875 4.8125 -16.488281 5.65625 -16.6875 C 6.507812 -16.882812 7.445312 -16.984375 8.46875 -16.984375 C 10.375 -16.984375 11.796875 -16.578125 12.734375 -15.765625 C 13.679688 -14.960938 14.15625 -13.578125 14.15625 -11.609375 L 14.15625 -3.546875 C 14.15625 -2.671875 14.300781 -2.078125 14.59375 -1.765625 C 14.882812 -1.460938 15.378906 -1.3125 16.078125 -1.3125 L 16.171875 -1.3125 L 16.171875 0 L 11.984375 0 L 11.484375 -2.671875 L 11.234375 -2.671875 C 10.796875 -2.085938 10.367188 -1.570312 9.953125 -1.125 C 9.535156 -0.6875 9.050781 -0.335938 8.5 -0.078125 C 7.957031 0.179688 7.25 0.3125 6.375 0.3125 Z M 7.09375 -1.625 C 8.351562 -1.625 9.359375 -2.007812 10.109375 -2.78125 C 10.859375 -3.5625 11.234375 -4.613281 11.234375 -5.9375 L 11.234375 -8.46875 L 9.234375 -8.375 C 7.472656 -8.289062 6.253906 -7.929688 5.578125 -7.296875 C 4.910156 -6.660156 4.578125 -5.734375 4.578125 -4.515625 C 4.578125 -2.585938 5.414062 -1.625 7.09375 -1.625 Z "/>
</g>
<g id="glyph-0-14">
<path d="M 0.875 0 L 0.875 -1.3125 L 1.125 -1.3125 C 1.820312 -1.3125 2.421875 -1.4375 2.921875 -1.6875 C 3.421875 -1.945312 3.671875 -2.566406 3.671875 -3.546875 L 3.671875 -13.25 C 3.671875 -14.164062 3.425781 -14.75 2.9375 -15 C 2.445312 -15.25 1.863281 -15.375 1.1875 -15.375 L 1.03125 -15.375 L 1.03125 -16.671875 L 6.0625 -16.671875 L 6.46875 -14.15625 L 6.625 -14.15625 C 7.269531 -15.3125 7.988281 -16.070312 8.78125 -16.4375 C 9.582031 -16.800781 10.484375 -16.984375 11.484375 -16.984375 C 13.117188 -16.984375 14.394531 -16.5 15.3125 -15.53125 C 16.238281 -14.570312 16.703125 -13.023438 16.703125 -10.890625 L 16.703125 -3.546875 C 16.703125 -2.566406 16.914062 -1.945312 17.34375 -1.6875 C 17.769531 -1.4375 18.332031 -1.3125 19.03125 -1.3125 L 19.1875 -1.3125 L 19.1875 0 L 13.78125 0 L 13.78125 -10.734375 C 13.78125 -12.078125 13.523438 -13.125 13.015625 -13.875 C 12.503906 -14.625 11.617188 -15 10.359375 -15 C 9.421875 -15 8.675781 -14.765625 8.125 -14.296875 C 7.582031 -13.828125 7.191406 -13.207031 6.953125 -12.4375 C 6.710938 -11.675781 6.59375 -10.847656 6.59375 -9.953125 L 6.59375 -3.390625 C 6.59375 -2.472656 6.835938 -1.894531 7.328125 -1.65625 C 7.816406 -1.425781 8.398438 -1.3125 9.078125 -1.3125 L 9.234375 -1.3125 L 9.234375 0 Z "/>
</g>
<g id="glyph-0-15">
<path d="M 8.0625 0.3125 C 6.007812 0.3125 4.4375 -0.375 3.34375 -1.75 C 2.257812 -3.132812 1.71875 -5.320312 1.71875 -8.3125 C 1.71875 -11.3125 2.257812 -13.503906 3.34375 -14.890625 C 4.4375 -16.285156 6.007812 -16.984375 8.0625 -16.984375 C 9.257812 -16.984375 10.234375 -16.726562 10.984375 -16.21875 C 11.742188 -15.71875 12.351562 -15.0625 12.8125 -14.25 L 13 -14.25 C 12.9375 -14.769531 12.890625 -15.34375 12.859375 -15.96875 C 12.828125 -16.601562 12.8125 -17.171875 12.8125 -17.671875 L 12.8125 -20.21875 C 12.8125 -21.132812 12.554688 -21.71875 12.046875 -21.96875 C 11.546875 -22.21875 10.953125 -22.34375 10.265625 -22.34375 L 10.015625 -22.34375 L 10.015625 -23.640625 L 15.734375 -23.640625 L 15.734375 -3.421875 C 15.734375 -2.503906 15.988281 -1.921875 16.5 -1.671875 C 17.007812 -1.429688 17.609375 -1.3125 18.296875 -1.3125 L 18.546875 -1.3125 L 18.546875 0 L 13.28125 0 L 12.9375 -2.796875 L 12.8125 -2.796875 C 12.351562 -1.847656 11.75 -1.09375 11 -0.53125 C 10.257812 0.03125 9.28125 0.3125 8.0625 0.3125 Z M 8.59375 -1.6875 C 10.207031 -1.6875 11.3125 -2.226562 11.90625 -3.3125 C 12.507812 -4.40625 12.8125 -6.070312 12.8125 -8.3125 C 12.8125 -10.46875 12.507812 -12.117188 11.90625 -13.265625 C 11.3125 -14.421875 10.195312 -15 8.5625 -15 C 7.1875 -15 6.203125 -14.421875 5.609375 -13.265625 C 5.023438 -12.117188 4.734375 -10.457031 4.734375 -8.28125 C 4.734375 -6.082031 5.023438 -4.429688 5.609375 -3.328125 C 6.203125 -2.234375 7.195312 -1.6875 8.59375 -1.6875 Z "/>
</g>
<g id="glyph-0-16">
<path d="M 8.5 0.3125 C 6.851562 0.3125 5.582031 -0.164062 4.6875 -1.125 C 3.800781 -2.09375 3.359375 -3.644531 3.359375 -5.78125 L 3.359375 -13.25 C 3.359375 -14.164062 3.101562 -14.75 2.59375 -15 C 2.082031 -15.25 1.488281 -15.375 0.8125 -15.375 L 0.71875 -15.375 L 0.71875 -16.671875 L 6.28125 -16.671875 L 6.28125 -5.9375 C 6.28125 -4.59375 6.507812 -3.546875 6.96875 -2.796875 C 7.425781 -2.054688 8.285156 -1.6875 9.546875 -1.6875 C 10.921875 -1.6875 11.914062 -2.144531 12.53125 -3.0625 C 13.15625 -3.988281 13.46875 -5.207031 13.46875 -6.71875 L 13.46875 -13.125 C 13.46875 -14.101562 13.21875 -14.722656 12.71875 -14.984375 C 12.226562 -15.242188 11.628906 -15.375 10.921875 -15.375 L 10.828125 -15.375 L 10.828125 -16.671875 L 16.390625 -16.671875 L 16.390625 -3.390625 C 16.390625 -2.472656 16.644531 -1.894531 17.15625 -1.65625 C 17.664062 -1.425781 18.265625 -1.3125 18.953125 -1.3125 L 19.03125 -1.3125 L 19.03125 0 L 14.09375 0 L 13.6875 -2.515625 L 13.53125 -2.515625 C 12.882812 -1.359375 12.132812 -0.597656 11.28125 -0.234375 C 10.4375 0.128906 9.507812 0.3125 8.5 0.3125 Z "/>
</g>
<g id="glyph-0-17">
<path d="M 7.1875 7.46875 C 5.03125 7.46875 3.410156 7.066406 2.328125 6.265625 C 1.253906 5.472656 0.71875 4.359375 0.71875 2.921875 C 0.71875 1.703125 1.109375 0.78125 1.890625 0.15625 C 2.679688 -0.46875 3.585938 -0.875 4.609375 -1.0625 C 4.191406 -1.25 3.800781 -1.550781 3.4375 -1.96875 C 3.070312 -2.394531 2.890625 -2.941406 2.890625 -3.609375 C 2.890625 -4.234375 3.050781 -4.769531 3.375 -5.21875 C 3.695312 -5.675781 4.210938 -6.113281 4.921875 -6.53125 C 4.023438 -6.90625 3.332031 -7.519531 2.84375 -8.375 C 2.351562 -9.238281 2.109375 -10.191406 2.109375 -11.234375 C 2.109375 -13.015625 2.597656 -14.414062 3.578125 -15.4375 C 4.554688 -16.46875 6.019531 -16.984375 7.96875 -16.984375 C 8.707031 -16.984375 9.410156 -16.878906 10.078125 -16.671875 C 10.742188 -16.460938 11.222656 -16.222656 11.515625 -15.953125 C 11.804688 -16.285156 12.207031 -16.648438 12.71875 -17.046875 C 13.238281 -17.441406 13.84375 -17.640625 14.53125 -17.640625 C 15.15625 -17.640625 15.613281 -17.476562 15.90625 -17.15625 C 16.207031 -16.832031 16.359375 -16.453125 16.359375 -16.015625 C 16.359375 -15.585938 16.226562 -15.210938 15.96875 -14.890625 C 15.707031 -14.566406 15.289062 -14.40625 14.71875 -14.40625 C 14.71875 -14.632812 14.648438 -14.867188 14.515625 -15.109375 C 14.378906 -15.347656 14.101562 -15.46875 13.6875 -15.46875 C 13.207031 -15.46875 12.757812 -15.34375 12.34375 -15.09375 C 12.695312 -14.65625 12.988281 -14.140625 13.21875 -13.546875 C 13.445312 -12.953125 13.5625 -12.210938 13.5625 -11.328125 C 13.5625 -9.785156 13.097656 -8.503906 12.171875 -7.484375 C 11.253906 -6.472656 9.851562 -5.96875 7.96875 -5.96875 C 7.71875 -5.96875 7.429688 -5.984375 7.109375 -6.015625 C 6.785156 -6.046875 6.519531 -6.082031 6.3125 -6.125 C 5.914062 -5.914062 5.570312 -5.65625 5.28125 -5.34375 C 5 -5.039062 4.859375 -4.648438 4.859375 -4.171875 C 4.859375 -3.796875 4.972656 -3.503906 5.203125 -3.296875 C 5.441406 -3.085938 5.96875 -2.984375 6.78125 -2.984375 L 10.296875 -2.984375 C 12.140625 -2.984375 13.457031 -2.546875 14.25 -1.671875 C 15.039062 -0.804688 15.4375 0.300781 15.4375 1.65625 C 15.4375 3.4375 14.765625 4.847656 13.421875 5.890625 C 12.085938 6.941406 10.007812 7.46875 7.1875 7.46875 Z M 7.875 -7.46875 C 8.882812 -7.46875 9.597656 -7.773438 10.015625 -8.390625 C 10.429688 -9.015625 10.640625 -10.003906 10.640625 -11.359375 C 10.640625 -12.765625 10.425781 -13.800781 10 -14.46875 C 9.570312 -15.132812 8.851562 -15.46875 7.84375 -15.46875 C 6.84375 -15.46875 6.125 -15.125 5.6875 -14.4375 C 5.257812 -13.75 5.046875 -12.710938 5.046875 -11.328125 C 5.046875 -9.992188 5.265625 -9.015625 5.703125 -8.390625 C 6.148438 -7.773438 6.875 -7.46875 7.875 -7.46875 Z M 7.25 5.9375 C 8.738281 5.9375 9.890625 5.773438 10.703125 5.453125 C 11.515625 5.140625 12.078125 4.695312 12.390625 4.125 C 12.710938 3.550781 12.875 2.898438 12.875 2.171875 C 12.875 1.222656 12.601562 0.585938 12.0625 0.265625 C 11.53125 -0.0546875 10.742188 -0.21875 9.703125 -0.21875 L 6.65625 -0.21875 C 6.070312 -0.21875 5.519531 -0.140625 5 0.015625 C 4.488281 0.171875 4.066406 0.457031 3.734375 0.875 C 3.398438 1.289062 3.234375 1.910156 3.234375 2.734375 C 3.234375 3.335938 3.347656 3.882812 3.578125 4.375 C 3.804688 4.863281 4.207031 5.242188 4.78125 5.515625 C 5.363281 5.796875 6.1875 5.9375 7.25 5.9375 Z "/>
</g>
<g id="glyph-0-18">
<path d="M 4.328125 -6.25 L 3.359375 -22.21875 L 6.96875 -22.21875 L 6 -6.25 Z M 5.171875 0.21875 C 4.628906 0.21875 4.164062 0.0625 3.78125 -0.25 C 3.394531 -0.5625 3.203125 -1.109375 3.203125 -1.890625 C 3.203125 -2.703125 3.394531 -3.257812 3.78125 -3.5625 C 4.164062 -3.863281 4.628906 -4.015625 5.171875 -4.015625 C 5.703125 -4.015625 6.160156 -3.863281 6.546875 -3.5625 C 6.929688 -3.257812 7.125 -2.703125 7.125 -1.890625 C 7.125 -1.109375 6.929688 -0.5625 6.546875 -0.25 C 6.160156 0.0625 5.703125 0.21875 5.171875 0.21875 Z "/>
</g>
</g>
</defs>
<g fill="rgb(100%, 100%, 100%)" fill-opacity="1">
<use xlink:href="#glyph-0-0" x="30" y="53.256836"/>
<use xlink:href="#glyph-0-1" x="61" y="53.256836"/>
<use xlink:href="#glyph-0-2" x="78" y="53.256836"/>
<use xlink:href="#glyph-0-1" x="86" y="53.256836"/>
<use xlink:href="#glyph-0-3" x="103" y="53.256836"/>
<use xlink:href="#glyph-0-4" x="121" y="53.256836"/>
<use xlink:href="#glyph-0-5" x="140" y="53.256836"/>
<use xlink:href="#glyph-0-6" x="150" y="53.256836"/>
<use xlink:href="#glyph-0-7" x="168" y="53.256836"/>
<use xlink:href="#glyph-0-1" x="183" y="53.256836"/>
<use xlink:href="#glyph-0-2" x="200" y="53.256836"/>
<use xlink:href="#glyph-0-8" x="208" y="53.256836"/>
<use xlink:href="#glyph-0-6" x="227" y="53.256836"/>
<use xlink:href="#glyph-0-9" x="245" y="53.256836"/>
<use xlink:href="#glyph-0-10" x="256" y="53.256836"/>
<use xlink:href="#glyph-0-2" x="276" y="53.256836"/>
<use xlink:href="#glyph-0-4" x="284" y="53.256836"/>
<use xlink:href="#glyph-0-6" x="303" y="53.256836"/>
<use xlink:href="#glyph-0-11" x="321" y="53.256836"/>
<use xlink:href="#glyph-0-11" x="335" y="53.256836"/>
<use xlink:href="#glyph-0-12" x="349" y="53.256836"/>
<use xlink:href="#glyph-0-8" x="359" y="53.256836"/>
<use xlink:href="#glyph-0-12" x="378" y="53.256836"/>
<use xlink:href="#glyph-0-5" x="388" y="53.256836"/>
<use xlink:href="#glyph-0-12" x="398" y="53.256836"/>
<use xlink:href="#glyph-0-9" x="408" y="53.256836"/>
<use xlink:href="#glyph-0-12" x="419" y="53.256836"/>
<use xlink:href="#glyph-0-1" x="429" y="53.256836"/>
<use xlink:href="#glyph-0-11" x="446" y="53.256836"/>
<use xlink:href="#glyph-0-2" x="460" y="53.256836"/>
<use xlink:href="#glyph-0-13" x="468" y="53.256836"/>
<use xlink:href="#glyph-0-14" x="486" y="53.256836"/>
<use xlink:href="#glyph-0-15" x="506" y="53.256836"/>
<use xlink:href="#glyph-0-2" x="525" y="53.256836"/>
<use xlink:href="#glyph-0-4" x="533" y="53.256836"/>
<use xlink:href="#glyph-0-16" x="552" y="53.256836"/>
<use xlink:href="#glyph-0-9" x="572" y="53.256836"/>
<use xlink:href="#glyph-0-2" x="583" y="53.256836"/>
<use xlink:href="#glyph-0-6" x="591" y="53.256836"/>
<use xlink:href="#glyph-0-16" x="609" y="53.256836"/>
<use xlink:href="#glyph-0-7" x="629" y="53.256836"/>
<use xlink:href="#glyph-0-2" x="644" y="53.256836"/>
<use xlink:href="#glyph-0-7" x="652" y="53.256836"/>
<use xlink:href="#glyph-0-1" x="667" y="53.256836"/>
<use xlink:href="#glyph-0-11" x="684" y="53.256836"/>
<use xlink:href="#glyph-0-16" x="698" y="53.256836"/>
<use xlink:href="#glyph-0-5" x="718" y="53.256836"/>
<use xlink:href="#glyph-0-9" x="728" y="53.256836"/>
<use xlink:href="#glyph-0-11" x="739" y="53.256836"/>
</g>
<g fill="rgb(100%, 100%, 100%)" fill-opacity="1">
<use xlink:href="#glyph-0-9" x="30" y="95.628906"/>
<use xlink:href="#glyph-0-6" x="41" y="95.628906"/>
<use xlink:href="#glyph-0-17" x="59" y="95.628906"/>
<use xlink:href="#glyph-0-1" x="76" y="95.628906"/>
<use xlink:href="#glyph-0-9" x="93" y="95.628906"/>
<use xlink:href="#glyph-0-10" x="104" y="95.628906"/>
<use xlink:href="#glyph-0-1" x="124" y="95.628906"/>
<use xlink:href="#glyph-0-7" x="141" y="95.628906"/>
<use xlink:href="#glyph-0-18" x="156" y="95.628906"/>
</g>
</svg>
