<?xml version="1.0" encoding="UTF-8"?>
<svg xmlns="http://www.w3.org/2000/svg" xmlns:xlink="http://www.w3.org/1999/xlink" width="2560" height="1440" viewBox="0 0 2560 1440">
<defs>
<g>
<g id="glyph-0-0">
<path d="M 0.3125 1.609375 C 0.6875 1.609375 0.992188 1.535156 1.234375 1.390625 C 1.484375 1.242188 1.679688 1.046875 1.828125 0.796875 C 1.984375 0.554688 2.101562 0.28125 2.1875 -0.03125 L 0.65625 -3.671875 C 0.582031 -3.847656 0.503906 -3.960938 0.421875 -4.015625 C 0.335938 -4.078125 0.21875 -4.109375 0.0625 -4.109375 L 0.03125 -4.109375 L 0.03125 -4.46875 L 2.03125 -4.46875 L 2.03125 -4.109375 L 2 -4.109375 C 1.664062 -4.109375 1.5 -3.976562 1.5 -3.71875 C 1.5 -3.625 1.523438 -3.519531 1.578125 -3.40625 L 2.1875 -1.921875 C 2.238281 -1.796875 2.289062 -1.65625 2.34375 -1.5 C 2.394531 -1.351562 2.441406 -1.207031 2.484375 -1.0625 C 2.535156 -0.925781 2.566406 -0.8125 2.578125 -0.71875 C 2.617188 -0.875 2.671875 -1.035156 2.734375 -1.203125 C 2.796875 -1.378906 2.859375 -1.550781 2.921875 -1.71875 L 3.46875 -3.34375 C 3.519531 -3.476562 3.546875 -3.597656 3.546875 -3.703125 C 3.546875 -3.972656 3.363281 -4.109375 3 -4.109375 L 2.96875 -4.109375 L 2.96875 -4.46875 L 4.703125 -4.46875 L 4.703125 -4.109375 L 4.6875 -4.109375 C 4.519531 -4.109375 4.394531 -4.066406 4.3125 -3.984375 C 4.226562 -3.898438 4.140625 -3.726562 4.046875 -3.46875 L 2.78125 0.03125 C 2.632812 0.4375 2.492188 0.765625 2.359375 1.015625 C 2.234375 1.273438 2.085938 1.472656 1.921875 1.609375 C 1.753906 1.753906 1.546875 1.851562 1.296875 1.90625 C 1.054688 1.96875 0.753906 2 0.390625 2 L 0.3125 2 Z "/>
</g>
<g id="glyph-0-1">
<path d="M 2.390625 0.078125 C 1.785156 0.078125 1.3125 -0.117188 0.96875 -0.515625 C 0.625 -0.910156 0.453125 -1.472656 0.453125 -2.203125 C 0.453125 -2.972656 0.613281 -3.554688 0.9375 -3.953125 C 1.257812 -4.347656 1.71875 -4.546875 2.3125 -4.546875 C 2.84375 -4.546875 3.265625 -4.378906 3.578125 -4.046875 C 3.890625 -3.710938 4.046875 -3.21875 4.046875 -2.5625 L 4.046875 -2.171875 L 1.265625 -2.171875 C 1.273438 -1.566406 1.382812 -1.125 1.59375 -0.84375 C 1.800781 -0.570312 2.101562 -0.4375 2.5 -0.4375 C 2.789062 -0.4375 3.035156 -0.492188 3.234375 -0.609375 C 3.441406 -0.734375 3.597656 -0.875 3.703125 -1.03125 C 3.734375 -1.007812 3.765625 -0.972656 3.796875 -0.921875 C 3.835938 -0.867188 3.859375 -0.804688 3.859375 -0.734375 C 3.859375 -0.628906 3.804688 -0.507812 3.703125 -0.375 C 3.597656 -0.25 3.4375 -0.140625 3.21875 -0.046875 C 3 0.0351562 2.722656 0.078125 2.390625 0.078125 Z M 3.203125 -2.625 C 3.203125 -3.070312 3.132812 -3.425781 3 -3.6875 C 2.863281 -3.957031 2.628906 -4.09375 2.296875 -4.09375 C 1.984375 -4.09375 1.742188 -3.96875 1.578125 -3.71875 C 1.410156 -3.46875 1.3125 -3.101562 1.28125 -2.625 Z "/>
</g>
<g id="glyph-0-2">
<path d="M 1.75 0.078125 C 1.332031 0.078125 1 0.00390625 0.75 -0.140625 C 0.5 -0.285156 0.375 -0.503906 0.375 -0.796875 C 0.375 -0.953125 0.40625 -1.070312 0.46875 -1.15625 C 0.53125 -1.238281 0.597656 -1.296875 0.671875 -1.328125 C 0.753906 -1.359375 0.832031 -1.375 0.90625 -1.375 C 0.90625 -1.082031 0.96875 -0.832031 1.09375 -0.625 C 1.226562 -0.414062 1.460938 -0.3125 1.796875 -0.3125 C 2.085938 -0.3125 2.3125 -0.378906 2.46875 -0.515625 C 2.632812 -0.660156 2.71875 -0.847656 2.71875 -1.078125 C 2.71875 -1.210938 2.6875 -1.320312 2.625 -1.40625 C 2.570312 -1.5 2.46875 -1.585938 2.3125 -1.671875 C 2.164062 -1.765625 1.957031 -1.867188 1.6875 -1.984375 C 1.40625 -2.109375 1.171875 -2.226562 0.984375 -2.34375 C 0.796875 -2.46875 0.65625 -2.609375 0.5625 -2.765625 C 0.476562 -2.921875 0.4375 -3.117188 0.4375 -3.359375 C 0.4375 -3.742188 0.578125 -4.035156 0.859375 -4.234375 C 1.148438 -4.429688 1.53125 -4.53125 2 -4.53125 C 2.394531 -4.53125 2.695312 -4.457031 2.90625 -4.3125 C 3.113281 -4.164062 3.21875 -3.984375 3.21875 -3.765625 C 3.21875 -3.617188 3.164062 -3.5 3.0625 -3.40625 C 2.957031 -3.3125 2.804688 -3.265625 2.609375 -3.265625 C 2.609375 -3.546875 2.550781 -3.765625 2.4375 -3.921875 C 2.320312 -4.078125 2.144531 -4.15625 1.90625 -4.15625 C 1.613281 -4.15625 1.40625 -4.09375 1.28125 -3.96875 C 1.164062 -3.84375 1.109375 -3.679688 1.109375 -3.484375 C 1.109375 -3.273438 1.1875 -3.113281 1.34375 -3 C 1.5 -2.882812 1.765625 -2.753906 2.140625 -2.609375 C 2.429688 -2.484375 2.664062 -2.359375 2.84375 -2.234375 C 3.03125 -2.117188 3.164062 -1.976562 3.25 -1.8125 C 3.34375 -1.65625 3.390625 -1.457031 3.390625 -1.21875 C 3.390625 -0.789062 3.238281 -0.46875 2.9375 -0.25 C 2.632812 -0.03125 2.238281 0.078125 1.75 0.078125 Z "/>
</g>
</g>
</defs>
<g fill="rgb(100%, 100%, 100%)" fill-opacity="1">
<use xlink:href="#glyph-0-0" x="30" y="28.908203"/>
<use xlink:href="#glyph-0-1" x="35" y="28.908203"/>
<use xlink:href="#glyph-0-2" x="39" y="28.908203"/>
</g>
</svg>
