<?xml version="1.0" encoding="UTF-8"?>
<svg xmlns="http://www.w3.org/2000/svg" xmlns:xlink="http://www.w3.org/1999/xlink" width="854" height="480" viewBox="0 0 854 480">
<defs>
<g>
<g id="glyph-0-0">
<path d="M 6.59375 0.265625 C 4.84375 0.265625 3.519531 -0.078125 2.625 -0.765625 C 1.726562 -1.460938 1.28125 -2.375 1.28125 -3.5 C 1.28125 -4.03125 1.445312 -4.457031 1.78125 -4.78125 C 2.125 -5.113281 2.597656 -5.28125 3.203125 -5.28125 C 3.234375 -4.550781 3.375 -3.859375 3.625 -3.203125 C 3.875 -2.554688 4.253906 -2.035156 4.765625 -1.640625 C 5.285156 -1.242188 5.960938 -1.046875 6.796875 -1.046875 C 7.992188 -1.046875 8.925781 -1.332031 9.59375 -1.90625 C 10.269531 -2.488281 10.609375 -3.320312 10.609375 -4.40625 C 10.609375 -5.0625 10.476562 -5.613281 10.21875 -6.0625 C 9.96875 -6.519531 9.546875 -6.941406 8.953125 -7.328125 C 8.359375 -7.722656 7.535156 -8.132812 6.484375 -8.5625 C 4.828125 -9.238281 3.59375 -10.03125 2.78125 -10.9375 C 1.976562 -11.84375 1.578125 -13.023438 1.578125 -14.484375 C 1.578125 -15.492188 1.828125 -16.359375 2.328125 -17.078125 C 2.835938 -17.796875 3.53125 -18.347656 4.40625 -18.734375 C 5.289062 -19.117188 6.296875 -19.3125 7.421875 -19.3125 C 8.992188 -19.3125 10.21875 -19.007812 11.09375 -18.40625 C 11.96875 -17.800781 12.40625 -17.109375 12.40625 -16.328125 C 12.40625 -15.753906 12.210938 -15.320312 11.828125 -15.03125 C 11.441406 -14.738281 10.929688 -14.59375 10.296875 -14.59375 C 10.296875 -15.144531 10.203125 -15.675781 10.015625 -16.1875 C 9.828125 -16.707031 9.515625 -17.132812 9.078125 -17.46875 C 8.640625 -17.8125 8.050781 -17.984375 7.3125 -17.984375 C 6.28125 -17.984375 5.476562 -17.707031 4.90625 -17.15625 C 4.332031 -16.601562 4.046875 -15.863281 4.046875 -14.9375 C 4.046875 -14.226562 4.175781 -13.628906 4.4375 -13.140625 C 4.695312 -12.648438 5.128906 -12.210938 5.734375 -11.828125 C 6.335938 -11.441406 7.15625 -11.035156 8.1875 -10.609375 C 9.75 -9.972656 10.96875 -9.234375 11.84375 -8.390625 C 12.71875 -7.554688 13.15625 -6.457031 13.15625 -5.09375 C 13.15625 -3.40625 12.5625 -2.085938 11.375 -1.140625 C 10.195312 -0.203125 8.601562 0.265625 6.59375 0.265625 Z "/>
</g>
<g id="glyph-0-1">
<path d="M 6.40625 0.265625 C 5.050781 0.265625 4.066406 -0.0390625 3.453125 -0.65625 C 2.835938 -1.269531 2.53125 -2.34375 2.53125 -3.875 L 2.53125 -12.78125 L 0.5 -12.78125 L 0.5 -13.84375 C 0.820312 -13.84375 1.175781 -13.910156 1.5625 -14.046875 C 1.957031 -14.179688 2.300781 -14.398438 2.59375 -14.703125 C 2.894531 -15.015625 3.140625 -15.398438 3.328125 -15.859375 C 3.523438 -16.328125 3.6875 -16.898438 3.8125 -17.578125 L 5.046875 -17.578125 L 5.046875 -14.296875 L 8.53125 -14.296875 L 8.53125 -12.78125 L 5.046875 -12.78125 L 5.046875 -3.78125 C 5.046875 -2.875 5.226562 -2.207031 5.59375 -1.78125 C 5.96875 -1.351562 6.457031 -1.140625 7.0625 -1.140625 C 7.382812 -1.140625 7.675781 -1.15625 7.9375 -1.1875 C 8.207031 -1.226562 8.488281 -1.273438 8.78125 -1.328125 L 8.78125 -0.15625 C 8.539062 -0.0507812 8.191406 0.0390625 7.734375 0.125 C 7.273438 0.21875 6.832031 0.265625 6.40625 0.265625 Z "/>
</g>
<g id="glyph-0-2">
<path d="M 7.65625 0.265625 C 5.71875 0.265625 4.203125 -0.375 3.109375 -1.65625 C 2.015625 -2.9375 1.46875 -4.734375 1.46875 -7.046875 C 1.46875 -9.535156 1.984375 -11.410156 3.015625 -12.671875 C 4.046875 -13.929688 5.503906 -14.5625 7.390625 -14.5625 C 9.109375 -14.5625 10.460938 -14.023438 11.453125 -12.953125 C 12.441406 -11.890625 12.9375 -10.300781 12.9375 -8.1875 L 12.9375 -6.96875 L 4.046875 -6.96875 C 4.085938 -5.019531 4.441406 -3.601562 5.109375 -2.71875 C 5.773438 -1.84375 6.75 -1.40625 8.03125 -1.40625 C 8.957031 -1.40625 9.742188 -1.597656 10.390625 -1.984375 C 11.035156 -2.367188 11.519531 -2.800781 11.84375 -3.28125 C 11.96875 -3.226562 12.082031 -3.117188 12.1875 -2.953125 C 12.289062 -2.796875 12.34375 -2.601562 12.34375 -2.375 C 12.34375 -2.019531 12.171875 -1.632812 11.828125 -1.21875 C 11.492188 -0.8125 10.976562 -0.460938 10.28125 -0.171875 C 9.59375 0.117188 8.71875 0.265625 7.65625 0.265625 Z M 10.234375 -8.40625 C 10.234375 -9.820312 10.015625 -10.960938 9.578125 -11.828125 C 9.148438 -12.691406 8.398438 -13.125 7.328125 -13.125 C 6.359375 -13.125 5.597656 -12.71875 5.046875 -11.90625 C 4.503906 -11.101562 4.191406 -9.9375 4.109375 -8.40625 Z "/>
</g>
<g id="glyph-0-3">
<path d="M 0.484375 6.40625 L 0.484375 5.28125 L 0.6875 5.28125 C 1.289062 5.28125 1.804688 5.164062 2.234375 4.9375 C 2.660156 4.71875 2.875 4.191406 2.875 3.359375 L 2.875 -11.359375 C 2.875 -12.140625 2.65625 -12.632812 2.21875 -12.84375 C 1.789062 -13.0625 1.28125 -13.171875 0.6875 -13.171875 L 0.34375 -13.171875 L 0.34375 -14.296875 L 5.015625 -14.296875 L 5.28125 -11.890625 L 5.390625 -11.890625 C 5.796875 -12.710938 6.316406 -13.363281 6.953125 -13.84375 C 7.597656 -14.320312 8.4375 -14.5625 9.46875 -14.5625 C 11.226562 -14.5625 12.570312 -13.96875 13.5 -12.78125 C 14.4375 -11.601562 14.90625 -9.734375 14.90625 -7.171875 C 14.90625 -4.597656 14.4375 -2.710938 13.5 -1.515625 C 12.570312 -0.328125 11.226562 0.265625 9.46875 0.265625 C 8.4375 0.265625 7.59375 0.046875 6.9375 -0.390625 C 6.289062 -0.828125 5.773438 -1.390625 5.390625 -2.078125 L 5.28125 -2.078125 C 5.3125 -1.566406 5.335938 -1.019531 5.359375 -0.4375 C 5.378906 0.132812 5.390625 0.59375 5.390625 0.9375 L 5.390625 3.5 C 5.390625 4.28125 5.601562 4.769531 6.03125 4.96875 C 6.46875 5.175781 6.984375 5.28125 7.578125 5.28125 L 7.65625 5.28125 L 7.65625 6.40625 Z M 9.046875 -1.4375 C 10.210938 -1.4375 11.050781 -1.929688 11.5625 -2.921875 C 12.070312 -3.910156 12.328125 -5.335938 12.328125 -7.203125 C 12.328125 -9.109375 12.070312 -10.523438 11.5625 -11.453125 C 11.050781 -12.390625 10.203125 -12.859375 9.015625 -12.859375 C 7.628906 -12.859375 6.675781 -12.390625 6.15625 -11.453125 C 5.644531 -10.523438 5.390625 -9.097656 5.390625 -7.171875 C 5.390625 -5.328125 5.644531 -3.910156 6.15625 -2.921875 C 6.675781 -1.929688 7.640625 -1.4375 9.046875 -1.4375 Z "/>
</g>
<g id="glyph-0-4">
<path d="M 5.59375 0.265625 C 4.257812 0.265625 3.191406 0.0234375 2.390625 -0.453125 C 1.597656 -0.929688 1.203125 -1.632812 1.203125 -2.5625 C 1.203125 -3.039062 1.296875 -3.410156 1.484375 -3.671875 C 1.679688 -3.941406 1.910156 -4.128906 2.171875 -4.234375 C 2.429688 -4.347656 2.664062 -4.40625 2.875 -4.40625 C 2.875 -3.476562 3.082031 -2.679688 3.5 -2.015625 C 3.925781 -1.347656 4.679688 -1.015625 5.765625 -1.015625 C 6.703125 -1.015625 7.421875 -1.238281 7.921875 -1.6875 C 8.429688 -2.144531 8.6875 -2.726562 8.6875 -3.4375 C 8.6875 -3.882812 8.59375 -4.25 8.40625 -4.53125 C 8.226562 -4.820312 7.898438 -5.101562 7.421875 -5.375 C 6.953125 -5.644531 6.285156 -5.96875 5.421875 -6.34375 C 4.503906 -6.757812 3.75 -7.15625 3.15625 -7.53125 C 2.5625 -7.914062 2.117188 -8.359375 1.828125 -8.859375 C 1.535156 -9.367188 1.390625 -10.007812 1.390625 -10.78125 C 1.390625 -11.988281 1.847656 -12.914062 2.765625 -13.5625 C 3.679688 -14.207031 4.894531 -14.53125 6.40625 -14.53125 C 7.6875 -14.53125 8.65625 -14.289062 9.3125 -13.8125 C 9.96875 -13.332031 10.296875 -12.753906 10.296875 -12.078125 C 10.296875 -11.597656 10.128906 -11.210938 9.796875 -10.921875 C 9.472656 -10.628906 9 -10.484375 8.375 -10.484375 C 8.375 -11.367188 8.1875 -12.0625 7.8125 -12.5625 C 7.4375 -13.0625 6.859375 -13.3125 6.078125 -13.3125 C 5.171875 -13.3125 4.519531 -13.109375 4.125 -12.703125 C 3.738281 -12.304688 3.546875 -11.796875 3.546875 -11.171875 C 3.546875 -10.492188 3.796875 -9.972656 4.296875 -9.609375 C 4.804688 -9.242188 5.660156 -8.820312 6.859375 -8.34375 C 7.796875 -7.957031 8.554688 -7.566406 9.140625 -7.171875 C 9.734375 -6.785156 10.164062 -6.332031 10.4375 -5.8125 C 10.71875 -5.300781 10.859375 -4.671875 10.859375 -3.921875 C 10.859375 -2.535156 10.375 -1.488281 9.40625 -0.78125 C 8.445312 -0.0820312 7.175781 0.265625 5.59375 0.265625 Z "/>
</g>
<g id="glyph-0-5">
</g>
<g id="glyph-0-6">
<path d="M 0.484375 0 L 0.484375 -1.125 L 0.6875 -1.125 C 1.289062 -1.125 1.804688 -1.234375 2.234375 -1.453125 C 2.660156 -1.671875 2.875 -2.203125 2.875 -3.046875 L 2.875 -17.34375 C 2.875 -18.125 2.65625 -18.617188 2.21875 -18.828125 C 1.789062 -19.046875 1.28125 -19.15625 0.6875 -19.15625 L 0.484375 -19.15625 L 0.484375 -20.265625 L 5.390625 -20.265625 L 5.390625 -14.40625 C 5.390625 -14.082031 5.378906 -13.742188 5.359375 -13.390625 C 5.335938 -13.046875 5.316406 -12.75 5.296875 -12.5 C 5.285156 -12.257812 5.28125 -12.140625 5.28125 -12.140625 L 5.421875 -12.140625 C 6.234375 -13.753906 7.535156 -14.5625 9.328125 -14.5625 C 10.859375 -14.5625 12.03125 -14.144531 12.84375 -13.3125 C 13.65625 -12.488281 14.0625 -11.160156 14.0625 -9.328125 L 14.0625 -3.046875 C 14.0625 -2.203125 14.25 -1.671875 14.625 -1.453125 C 15.007812 -1.234375 15.503906 -1.125 16.109375 -1.125 L 16.1875 -1.125 L 16.1875 0 L 11.546875 0 L 11.546875 -9.203125 C 11.546875 -10.359375 11.328125 -11.253906 10.890625 -11.890625 C 10.453125 -12.535156 9.691406 -12.859375 8.609375 -12.859375 C 7.515625 -12.859375 6.703125 -12.46875 6.171875 -11.6875 C 5.648438 -10.90625 5.390625 -9.851562 5.390625 -8.53125 L 5.390625 -2.90625 C 5.390625 -2.125 5.601562 -1.628906 6.03125 -1.421875 C 6.46875 -1.222656 6.984375 -1.125 7.578125 -1.125 L 7.65625 -1.125 L 7.65625 0 Z "/>
</g>
<g id="glyph-0-7">
<path d="M 0.875 0 L 0.875 -1.125 L 0.953125 -1.125 C 1.554688 -1.125 2.070312 -1.234375 2.5 -1.453125 C 2.925781 -1.671875 3.140625 -2.203125 3.140625 -3.046875 L 3.140625 -11.359375 C 3.140625 -12.140625 2.921875 -12.632812 2.484375 -12.84375 C 2.054688 -13.0625 1.546875 -13.171875 0.953125 -13.171875 L 0.875 -13.171875 L 0.875 -14.296875 L 4.984375 -14.296875 L 5.5 -11.65625 L 5.625 -11.65625 C 5.851562 -12.1875 6.101562 -12.675781 6.375 -13.125 C 6.644531 -13.570312 7 -13.921875 7.4375 -14.171875 C 7.882812 -14.429688 8.5 -14.5625 9.28125 -14.5625 C 10.257812 -14.5625 10.984375 -14.390625 11.453125 -14.046875 C 11.921875 -13.710938 12.15625 -13.234375 12.15625 -12.609375 C 12.15625 -12.054688 11.960938 -11.601562 11.578125 -11.25 C 11.203125 -10.894531 10.570312 -10.71875 9.6875 -10.71875 C 9.6875 -11.445312 9.578125 -11.972656 9.359375 -12.296875 C 9.148438 -12.628906 8.785156 -12.796875 8.265625 -12.796875 C 7.765625 -12.796875 7.347656 -12.597656 7.015625 -12.203125 C 6.679688 -11.816406 6.414062 -11.320312 6.21875 -10.71875 C 6.019531 -10.113281 5.875 -9.488281 5.78125 -8.84375 C 5.695312 -8.195312 5.65625 -7.613281 5.65625 -7.09375 L 5.65625 -2.90625 C 5.65625 -2.125 5.875 -1.628906 6.3125 -1.421875 C 6.75 -1.222656 7.257812 -1.125 7.84375 -1.125 L 8.59375 -1.125 L 8.59375 0 Z "/>
</g>
<g id="glyph-0-8">
<path d="M 7.65625 0.265625 C 5.738281 0.265625 4.226562 -0.34375 3.125 -1.5625 C 2.019531 -2.789062 1.46875 -4.660156 1.46875 -7.171875 C 1.46875 -9.660156 1.992188 -11.515625 3.046875 -12.734375 C 4.109375 -13.953125 5.671875 -14.5625 7.734375 -14.5625 C 9.648438 -14.5625 11.160156 -13.953125 12.265625 -12.734375 C 13.367188 -11.515625 13.921875 -9.660156 13.921875 -7.171875 C 13.921875 -4.660156 13.390625 -2.789062 12.328125 -1.5625 C 11.273438 -0.34375 9.71875 0.265625 7.65625 0.265625 Z M 7.703125 -1.125 C 9.035156 -1.125 9.972656 -1.632812 10.515625 -2.65625 C 11.054688 -3.675781 11.328125 -5.179688 11.328125 -7.171875 C 11.328125 -9.160156 11.050781 -10.65625 10.5 -11.65625 C 9.957031 -12.65625 9.019531 -13.15625 7.6875 -13.15625 C 6.351562 -13.15625 5.410156 -12.65625 4.859375 -11.65625 C 4.316406 -10.65625 4.046875 -9.160156 4.046875 -7.171875 C 4.046875 -5.179688 4.320312 -3.675781 4.875 -2.65625 C 5.425781 -1.632812 6.367188 -1.125 7.703125 -1.125 Z "/>
</g>
<g id="glyph-0-9">
<path d="M 7.28125 0.265625 C 5.875 0.265625 4.785156 -0.144531 4.015625 -0.96875 C 3.253906 -1.800781 2.875 -3.132812 2.875 -4.96875 L 2.875 -11.359375 C 2.875 -12.140625 2.65625 -12.632812 2.21875 -12.84375 C 1.789062 -13.0625 1.28125 -13.171875 0.6875 -13.171875 L 0.609375 -13.171875 L 0.609375 -14.296875 L 5.390625 -14.296875 L 5.390625 -5.09375 C 5.390625 -3.9375 5.582031 -3.035156 5.96875 -2.390625 C 6.363281 -1.753906 7.101562 -1.4375 8.1875 -1.4375 C 9.363281 -1.4375 10.21875 -1.832031 10.75 -2.625 C 11.28125 -3.414062 11.546875 -4.460938 11.546875 -5.765625 L 11.546875 -11.25 C 11.546875 -12.09375 11.332031 -12.625 10.90625 -12.84375 C 10.476562 -13.0625 9.960938 -13.171875 9.359375 -13.171875 L 9.28125 -13.171875 L 9.28125 -14.296875 L 14.0625 -14.296875 L 14.0625 -2.90625 C 14.0625 -2.125 14.273438 -1.628906 14.703125 -1.421875 C 15.140625 -1.222656 15.65625 -1.125 16.25 -1.125 L 16.328125 -1.125 L 16.328125 0 L 12.078125 0 L 11.734375 -2.15625 L 11.609375 -2.15625 C 11.054688 -1.164062 10.414062 -0.515625 9.6875 -0.203125 C 8.957031 0.109375 8.15625 0.265625 7.28125 0.265625 Z "/>
</g>
<g id="glyph-0-10">
<path d="M 6.15625 6.40625 C 4.3125 6.40625 2.925781 6.0625 2 5.375 C 1.070312 4.6875 0.609375 3.726562 0.609375 2.5 C 0.609375 1.457031 0.945312 0.664062 1.625 0.125 C 2.300781 -0.40625 3.078125 -0.75 3.953125 -0.90625 C 3.585938 -1.0625 3.25 -1.320312 2.9375 -1.6875 C 2.632812 -2.050781 2.484375 -2.519531 2.484375 -3.09375 C 2.484375 -3.625 2.617188 -4.082031 2.890625 -4.46875 C 3.171875 -4.863281 3.613281 -5.238281 4.21875 -5.59375 C 3.445312 -5.914062 2.851562 -6.445312 2.4375 -7.1875 C 2.019531 -7.925781 1.8125 -8.738281 1.8125 -9.625 C 1.8125 -11.15625 2.226562 -12.359375 3.0625 -13.234375 C 3.90625 -14.117188 5.160156 -14.5625 6.828125 -14.5625 C 7.460938 -14.5625 8.066406 -14.472656 8.640625 -14.296875 C 9.210938 -14.117188 9.625 -13.914062 9.875 -13.6875 C 10.113281 -13.96875 10.457031 -14.273438 10.90625 -14.609375 C 11.351562 -14.953125 11.867188 -15.125 12.453125 -15.125 C 12.984375 -15.125 13.378906 -14.984375 13.640625 -14.703125 C 13.898438 -14.429688 14.03125 -14.109375 14.03125 -13.734375 C 14.03125 -13.359375 13.914062 -13.03125 13.6875 -12.75 C 13.46875 -12.476562 13.109375 -12.34375 12.609375 -12.34375 C 12.609375 -12.539062 12.550781 -12.738281 12.4375 -12.9375 C 12.320312 -13.144531 12.085938 -13.25 11.734375 -13.25 C 11.328125 -13.25 10.945312 -13.144531 10.59375 -12.9375 C 10.894531 -12.5625 11.140625 -12.117188 11.328125 -11.609375 C 11.523438 -11.109375 11.625 -10.472656 11.625 -9.703125 C 11.625 -8.390625 11.226562 -7.296875 10.4375 -6.421875 C 9.644531 -5.554688 8.441406 -5.125 6.828125 -5.125 C 6.617188 -5.125 6.375 -5.132812 6.09375 -5.15625 C 5.820312 -5.1875 5.597656 -5.21875 5.421875 -5.25 C 5.078125 -5.070312 4.78125 -4.847656 4.53125 -4.578125 C 4.28125 -4.316406 4.15625 -3.984375 4.15625 -3.578125 C 4.15625 -3.253906 4.257812 -3.003906 4.46875 -2.828125 C 4.675781 -2.648438 5.125 -2.5625 5.8125 -2.5625 L 8.828125 -2.5625 C 10.410156 -2.5625 11.539062 -2.1875 12.21875 -1.4375 C 12.894531 -0.6875 13.234375 0.257812 13.234375 1.40625 C 13.234375 2.9375 12.65625 4.148438 11.5 5.046875 C 10.351562 5.953125 8.570312 6.40625 6.15625 6.40625 Z M 6.75 -6.40625 C 7.625 -6.40625 8.238281 -6.671875 8.59375 -7.203125 C 8.945312 -7.734375 9.125 -8.578125 9.125 -9.734375 C 9.125 -10.941406 8.941406 -11.828125 8.578125 -12.390625 C 8.210938 -12.960938 7.59375 -13.25 6.71875 -13.25 C 5.863281 -13.25 5.25 -12.957031 4.875 -12.375 C 4.507812 -11.789062 4.328125 -10.898438 4.328125 -9.703125 C 4.328125 -8.566406 4.515625 -7.734375 4.890625 -7.203125 C 5.273438 -6.671875 5.894531 -6.40625 6.75 -6.40625 Z M 6.21875 5.09375 C 7.5 5.09375 8.484375 4.953125 9.171875 4.671875 C 9.867188 4.398438 10.351562 4.019531 10.625 3.53125 C 10.90625 3.039062 11.046875 2.484375 11.046875 1.859375 C 11.046875 1.046875 10.8125 0.5 10.34375 0.21875 C 9.882812 -0.0507812 9.210938 -0.1875 8.328125 -0.1875 L 5.703125 -0.1875 C 5.210938 -0.1875 4.742188 -0.117188 4.296875 0.015625 C 3.847656 0.148438 3.484375 0.394531 3.203125 0.75 C 2.921875 1.101562 2.78125 1.632812 2.78125 2.34375 C 2.78125 2.863281 2.875 3.332031 3.0625 3.75 C 3.257812 4.164062 3.609375 4.492188 4.109375 4.734375 C 4.609375 4.972656 5.3125 5.09375 6.21875 5.09375 Z "/>
</g>
<g id="glyph-0-11">
<path d="M 0.34375 0 L 0.34375 -1.125 L 0.6875 -1.125 C 1.289062 -1.125 1.804688 -1.234375 2.234375 -1.453125 C 2.660156 -1.671875 2.875 -2.203125 2.875 -3.046875 L 2.875 -17.34375 C 2.875 -18.125 2.65625 -18.617188 2.21875 -18.828125 C 1.789062 -19.046875 1.28125 -19.15625 0.6875 -19.15625 L 0.34375 -19.15625 L 0.34375 -20.265625 L 5.390625 -20.265625 L 5.390625 -3.046875 C 5.390625 -2.203125 5.601562 -1.671875 6.03125 -1.453125 C 6.457031 -1.234375 6.972656 -1.125 7.578125 -1.125 L 7.921875 -1.125 L 7.921875 0 Z "/>
</g>
<g id="glyph-0-12">
<path d="M 4.296875 -16.96875 C 3.867188 -16.96875 3.507812 -17.085938 3.21875 -17.328125 C 2.925781 -17.578125 2.78125 -18.003906 2.78125 -18.609375 C 2.78125 -19.234375 2.925781 -19.664062 3.21875 -19.90625 C 3.507812 -20.144531 3.867188 -20.265625 4.296875 -20.265625 C 4.703125 -20.265625 5.054688 -20.144531 5.359375 -19.90625 C 5.660156 -19.664062 5.8125 -19.234375 5.8125 -18.609375 C 5.8125 -18.003906 5.660156 -17.578125 5.359375 -17.328125 C 5.054688 -17.085938 4.703125 -16.96875 4.296875 -16.96875 Z M 0.609375 0 L 0.609375 -1.125 L 0.953125 -1.125 C 1.546875 -1.125 2.054688 -1.222656 2.484375 -1.421875 C 2.921875 -1.628906 3.140625 -2.125 3.140625 -2.90625 L 3.140625 -11.359375 C 3.140625 -12.140625 2.921875 -12.632812 2.484375 -12.84375 C 2.054688 -13.0625 1.546875 -13.171875 0.953125 -13.171875 L 0.875 -13.171875 L 0.875 -14.296875 L 5.65625 -14.296875 L 5.65625 -3.046875 C 5.65625 -2.203125 5.867188 -1.671875 6.296875 -1.453125 C 6.722656 -1.234375 7.238281 -1.125 7.84375 -1.125 L 8.1875 -1.125 L 8.1875 0 Z "/>
</g>
</g>
</defs>
<g fill="rgb(100%, 100%, 100%)" fill-opacity="1">
<use xlink:href="#glyph-0-0" x="30" y="48.506836"/>
<use xlink:href="#glyph-0-1" x="45" y="48.506836"/>
<use xlink:href="#glyph-0-2" x="54" y="48.506836"/>
<use xlink:href="#glyph-0-3" x="68" y="48.506836"/>
<use xlink:href="#glyph-0-4" x="84" y="48.506836"/>
<use xlink:href="#glyph-0-5" x="96" y="48.506836"/>
<use xlink:href="#glyph-0-1" x="103" y="48.506836"/>
<use xlink:href="#glyph-0-6" x="112" y="48.506836"/>
<use xlink:href="#glyph-0-7" x="129" y="48.506836"/>
<use xlink:href="#glyph-0-8" x="142" y="48.506836"/>
<use xlink:href="#glyph-0-9" x="157" y="48.506836"/>
<use xlink:href="#glyph-0-10" x="174" y="48.506836"/>
<use xlink:href="#glyph-0-6" x="188" y="48.506836"/>
<use xlink:href="#glyph-0-5" x="205" y="48.506836"/>
<use xlink:href="#glyph-0-1" x="212" y="48.506836"/>
<use xlink:href="#glyph-0-6" x="221" y="48.506836"/>
<use xlink:href="#glyph-0-2" x="238" y="48.506836"/>
<use xlink:href="#glyph-0-5" x="252" y="48.506836"/>
<use xlink:href="#glyph-0-11" x="259" y="48.506836"/>
<use xlink:href="#glyph-0-12" x="267" y="48.506836"/>
<use xlink:href="#glyph-0-4" x="276" y="48.506836"/>
<use xlink:href="#glyph-0-1" x="288" y="48.506836"/>
</g>
</svg>
