<?xml version="1.0" encoding="UTF-8"?>
<svg xmlns="http://www.w3.org/2000/svg" xmlns:xlink="http://www.w3.org/1999/xlink" width="854" height="480" viewBox="0 0 854 480">
<defs>
<g>
<g id="glyph-0-0">
<path d="M 2.171875 0 L 2.171875 -0.609375 L 2.5 -0.609375 C 2.8125 -0.609375 3.085938 -0.660156 3.328125 -0.765625 C 3.566406 -0.878906 3.6875 -1.148438 3.6875 -1.578125 L 3.6875 -9.59375 L 2.296875 -9.59375 C 1.867188 -9.59375 1.570312 -9.472656 1.40625 -9.234375 C 1.25 -8.992188 1.148438 -8.71875 1.109375 -8.40625 L 1.046875 -7.78125 L 0.28125 -7.78125 L 0.359375 -10.3125 L 8.484375 -10.3125 L 8.5625 -7.78125 L 7.8125 -7.78125 L 7.734375 -8.40625 C 7.703125 -8.71875 7.601562 -8.992188 7.4375 -9.234375 C 7.269531 -9.472656 6.972656 -9.59375 6.546875 -9.59375 L 5.140625 -9.59375 L 5.140625 -1.640625 C 5.140625 -1.191406 5.253906 -0.90625 5.484375 -0.78125 C 5.710938 -0.664062 5.992188 -0.609375 6.328125 -0.609375 L 6.65625 -0.609375 L 6.65625 0 Z "/>
</g>
</g>
</defs>
<g fill="rgb(100%, 100%, 100%)" fill-opacity="1">
<use xlink:href="#glyph-0-0" x="30" y="35.441406"/>
</g>
</svg>
