<?xml version="1.0" encoding="UTF-8"?>
<svg xmlns="http://www.w3.org/2000/svg" xmlns:xlink="http://www.w3.org/1999/xlink" width="854" height="480" viewBox="0 0 854 480">
<defs>
<g>
<g id="glyph-0-0">
<path d="M 0.5625 7.46875 L 0.5625 6.15625 L 0.8125 6.15625 C 1.507812 6.15625 2.109375 6.023438 2.609375 5.765625 C 3.109375 5.503906 3.359375 4.890625 3.359375 3.921875 L 3.359375 -13.25 C 3.359375 -14.164062 3.101562 -14.75 2.59375 -15 C 2.082031 -15.25 1.488281 -15.375 0.8125 -15.375 L 0.40625 -15.375 L 0.40625 -16.671875 L 5.84375 -16.671875 L 6.15625 -13.875 L 6.28125 -13.875 C 6.757812 -14.832031 7.367188 -15.585938 8.109375 -16.140625 C 8.859375 -16.703125 9.835938 -16.984375 11.046875 -16.984375 C 13.097656 -16.984375 14.664062 -16.289062 15.75 -14.90625 C 16.84375 -13.53125 17.390625 -11.351562 17.390625 -8.375 C 17.390625 -5.363281 16.84375 -3.160156 15.75 -1.765625 C 14.664062 -0.378906 13.097656 0.3125 11.046875 0.3125 C 9.835938 0.3125 8.851562 0.0546875 8.09375 -0.453125 C 7.34375 -0.960938 6.738281 -1.617188 6.28125 -2.421875 L 6.15625 -2.421875 C 6.195312 -1.828125 6.226562 -1.191406 6.25 -0.515625 C 6.269531 0.160156 6.28125 0.695312 6.28125 1.09375 L 6.28125 4.078125 C 6.28125 4.984375 6.535156 5.554688 7.046875 5.796875 C 7.554688 6.035156 8.148438 6.15625 8.828125 6.15625 L 8.921875 6.15625 L 8.921875 7.46875 Z M 10.546875 -1.6875 C 11.910156 -1.6875 12.890625 -2.257812 13.484375 -3.40625 C 14.078125 -4.5625 14.375 -6.226562 14.375 -8.40625 C 14.375 -10.625 14.078125 -12.273438 13.484375 -13.359375 C 12.890625 -14.453125 11.898438 -15 10.515625 -15 C 8.898438 -15 7.789062 -14.453125 7.1875 -13.359375 C 6.582031 -12.273438 6.28125 -10.613281 6.28125 -8.375 C 6.28125 -6.21875 6.582031 -4.5625 7.1875 -3.40625 C 7.789062 -2.257812 8.910156 -1.6875 10.546875 -1.6875 Z "/>
</g>
<g id="glyph-0-1">
<path d="M 8.921875 0.3125 C 6.679688 0.3125 4.921875 -0.398438 3.640625 -1.828125 C 2.359375 -3.265625 1.71875 -5.445312 1.71875 -8.375 C 1.71875 -11.269531 2.332031 -13.425781 3.5625 -14.84375 C 4.789062 -16.269531 6.609375 -16.984375 9.015625 -16.984375 C 11.253906 -16.984375 13.015625 -16.269531 14.296875 -14.84375 C 15.585938 -13.425781 16.234375 -11.269531 16.234375 -8.375 C 16.234375 -5.445312 15.613281 -3.265625 14.375 -1.828125 C 13.144531 -0.398438 11.328125 0.3125 8.921875 0.3125 Z M 8.984375 -1.3125 C 10.546875 -1.3125 11.640625 -1.90625 12.265625 -3.09375 C 12.898438 -4.289062 13.21875 -6.050781 13.21875 -8.375 C 13.21875 -10.695312 12.894531 -12.4375 12.25 -13.59375 C 11.613281 -14.757812 10.515625 -15.34375 8.953125 -15.34375 C 7.398438 -15.34375 6.304688 -14.757812 5.671875 -13.59375 C 5.046875 -12.4375 4.734375 -10.695312 4.734375 -8.375 C 4.734375 -6.050781 5.050781 -4.289062 5.6875 -3.09375 C 6.332031 -1.90625 7.429688 -1.3125 8.984375 -1.3125 Z "/>
</g>
<g id="glyph-0-2">
<path d="M 6.53125 0.3125 C 4.976562 0.3125 3.734375 0.03125 2.796875 -0.53125 C 1.867188 -1.09375 1.40625 -1.910156 1.40625 -2.984375 C 1.40625 -3.546875 1.515625 -3.984375 1.734375 -4.296875 C 1.960938 -4.609375 2.226562 -4.828125 2.53125 -4.953125 C 2.832031 -5.078125 3.109375 -5.140625 3.359375 -5.140625 C 3.359375 -4.054688 3.601562 -3.125 4.09375 -2.34375 C 4.582031 -1.570312 5.457031 -1.1875 6.71875 -1.1875 C 7.820312 -1.1875 8.664062 -1.445312 9.25 -1.96875 C 9.84375 -2.5 10.140625 -3.179688 10.140625 -4.015625 C 10.140625 -4.535156 10.03125 -4.957031 9.8125 -5.28125 C 9.59375 -5.613281 9.207031 -5.941406 8.65625 -6.265625 C 8.113281 -6.585938 7.332031 -6.96875 6.3125 -7.40625 C 5.257812 -7.882812 4.382812 -8.34375 3.6875 -8.78125 C 2.988281 -9.226562 2.46875 -9.75 2.125 -10.34375 C 1.789062 -10.9375 1.625 -11.675781 1.625 -12.5625 C 1.625 -13.976562 2.15625 -15.0625 3.21875 -15.8125 C 4.289062 -16.570312 5.707031 -16.953125 7.46875 -16.953125 C 8.957031 -16.953125 10.085938 -16.671875 10.859375 -16.109375 C 11.628906 -15.554688 12.015625 -14.882812 12.015625 -14.09375 C 12.015625 -13.53125 11.820312 -13.078125 11.4375 -12.734375 C 11.050781 -12.390625 10.492188 -12.21875 9.765625 -12.21875 C 9.765625 -13.257812 9.546875 -14.070312 9.109375 -14.65625 C 8.679688 -15.238281 8.007812 -15.53125 7.09375 -15.53125 C 6.03125 -15.53125 5.269531 -15.296875 4.8125 -14.828125 C 4.363281 -14.359375 4.140625 -13.757812 4.140625 -13.03125 C 4.140625 -12.25 4.429688 -11.644531 5.015625 -11.21875 C 5.609375 -10.789062 6.601562 -10.296875 8 -9.734375 C 9.09375 -9.273438 9.984375 -8.816406 10.671875 -8.359375 C 11.359375 -7.910156 11.859375 -7.382812 12.171875 -6.78125 C 12.492188 -6.175781 12.65625 -5.441406 12.65625 -4.578125 C 12.65625 -2.953125 12.09375 -1.726562 10.96875 -0.90625 C 9.851562 -0.09375 8.375 0.3125 6.53125 0.3125 Z "/>
</g>
<g id="glyph-0-3">
<path d="M 5.015625 -19.78125 C 4.515625 -19.78125 4.09375 -19.925781 3.75 -20.21875 C 3.40625 -20.507812 3.234375 -21.007812 3.234375 -21.71875 C 3.234375 -22.4375 3.40625 -22.9375 3.75 -23.21875 C 4.09375 -23.5 4.515625 -23.640625 5.015625 -23.640625 C 5.484375 -23.640625 5.894531 -23.5 6.25 -23.21875 C 6.601562 -22.9375 6.78125 -22.4375 6.78125 -21.71875 C 6.78125 -21.007812 6.601562 -20.507812 6.25 -20.21875 C 5.894531 -19.925781 5.484375 -19.78125 5.015625 -19.78125 Z M 0.71875 0 L 0.71875 -1.3125 L 1.125 -1.3125 C 1.800781 -1.3125 2.394531 -1.425781 2.90625 -1.65625 C 3.414062 -1.894531 3.671875 -2.472656 3.671875 -3.390625 L 3.671875 -13.25 C 3.671875 -14.164062 3.414062 -14.75 2.90625 -15 C 2.394531 -15.25 1.800781 -15.375 1.125 -15.375 L 1.03125 -15.375 L 1.03125 -16.671875 L 6.59375 -16.671875 L 6.59375 -3.546875 C 6.59375 -2.566406 6.84375 -1.945312 7.34375 -1.6875 C 7.84375 -1.4375 8.441406 -1.3125 9.140625 -1.3125 L 9.546875 -1.3125 L 9.546875 0 Z "/>
</g>
<g id="glyph-0-4">
<path d="M 11.046875 0.3125 C 9.835938 0.3125 8.851562 0.0546875 8.09375 -0.453125 C 7.34375 -0.960938 6.738281 -1.617188 6.28125 -2.421875 L 6.09375 -2.421875 L 5.53125 0 L 0.5625 0 L 0.5625 -1.3125 L 0.8125 -1.3125 C 1.507812 -1.3125 2.109375 -1.4375 2.609375 -1.6875 C 3.109375 -1.945312 3.359375 -2.566406 3.359375 -3.546875 L 3.359375 -20.21875 C 3.359375 -21.132812 3.101562 -21.71875 2.59375 -21.96875 C 2.082031 -22.21875 1.488281 -22.34375 0.8125 -22.34375 L 0.5625 -22.34375 L 0.5625 -23.640625 L 6.28125 -23.640625 L 6.28125 -17.921875 C 6.28125 -17.566406 6.273438 -17.113281 6.265625 -16.5625 C 6.253906 -16.007812 6.238281 -15.476562 6.21875 -14.96875 C 6.195312 -14.46875 6.175781 -14.101562 6.15625 -13.875 L 6.28125 -13.875 C 6.757812 -14.832031 7.367188 -15.585938 8.109375 -16.140625 C 8.859375 -16.703125 9.835938 -16.984375 11.046875 -16.984375 C 13.097656 -16.984375 14.664062 -16.289062 15.75 -14.90625 C 16.84375 -13.53125 17.390625 -11.351562 17.390625 -8.375 C 17.390625 -5.363281 16.84375 -3.160156 15.75 -1.765625 C 14.664062 -0.378906 13.097656 0.3125 11.046875 0.3125 Z M 10.546875 -1.6875 C 11.910156 -1.6875 12.890625 -2.257812 13.484375 -3.40625 C 14.078125 -4.5625 14.375 -6.226562 14.375 -8.40625 C 14.375 -10.625 14.078125 -12.273438 13.484375 -13.359375 C 12.890625 -14.453125 11.898438 -15 10.515625 -15 C 8.898438 -15 7.789062 -14.453125 7.1875 -13.359375 C 6.582031 -12.273438 6.28125 -10.613281 6.28125 -8.375 C 6.28125 -6.21875 6.582031 -4.5625 7.1875 -3.40625 C 7.789062 -2.257812 8.910156 -1.6875 10.546875 -1.6875 Z "/>
</g>
<g id="glyph-0-5">
<path d="M 0.40625 0 L 0.40625 -1.3125 L 0.8125 -1.3125 C 1.507812 -1.3125 2.109375 -1.4375 2.609375 -1.6875 C 3.109375 -1.945312 3.359375 -2.566406 3.359375 -3.546875 L 3.359375 -20.21875 C 3.359375 -21.132812 3.101562 -21.71875 2.59375 -21.96875 C 2.082031 -22.21875 1.488281 -22.34375 0.8125 -22.34375 L 0.40625 -22.34375 L 0.40625 -23.640625 L 6.28125 -23.640625 L 6.28125 -3.546875 C 6.28125 -2.566406 6.53125 -1.945312 7.03125 -1.6875 C 7.53125 -1.4375 8.128906 -1.3125 8.828125 -1.3125 L 9.234375 -1.3125 L 9.234375 0 Z "/>
</g>
<g id="glyph-0-6">
<path d="M 7.46875 0.3125 C 5.894531 0.3125 4.75 -0.0390625 4.03125 -0.75 C 3.3125 -1.46875 2.953125 -2.722656 2.953125 -4.515625 L 2.953125 -14.90625 L 0.59375 -14.90625 L 0.59375 -16.140625 C 0.96875 -16.140625 1.378906 -16.21875 1.828125 -16.375 C 2.285156 -16.53125 2.679688 -16.785156 3.015625 -17.140625 C 3.367188 -17.515625 3.660156 -17.96875 3.890625 -18.5 C 4.117188 -19.039062 4.304688 -19.707031 4.453125 -20.5 L 5.875 -20.5 L 5.875 -16.671875 L 9.953125 -16.671875 L 9.953125 -14.90625 L 5.875 -14.90625 L 5.875 -4.421875 C 5.875 -3.359375 6.09375 -2.578125 6.53125 -2.078125 C 6.96875 -1.585938 7.539062 -1.34375 8.25 -1.34375 C 8.613281 -1.34375 8.953125 -1.363281 9.265625 -1.40625 C 9.578125 -1.445312 9.898438 -1.5 10.234375 -1.5625 L 10.234375 -0.1875 C 9.960938 -0.0625 9.554688 0.0507812 9.015625 0.15625 C 8.484375 0.257812 7.96875 0.3125 7.46875 0.3125 Z "/>
</g>
<g id="glyph-0-7">
<path d="M 8.921875 0.3125 C 6.660156 0.3125 4.894531 -0.429688 3.625 -1.921875 C 2.351562 -3.421875 1.71875 -5.519531 1.71875 -8.21875 C 1.71875 -11.113281 2.316406 -13.296875 3.515625 -14.765625 C 4.710938 -16.242188 6.414062 -16.984375 8.625 -16.984375 C 10.632812 -16.984375 12.210938 -16.359375 13.359375 -15.109375 C 14.515625 -13.867188 15.09375 -12.015625 15.09375 -9.546875 L 15.09375 -8.125 L 4.734375 -8.125 C 4.773438 -5.863281 5.179688 -4.21875 5.953125 -3.1875 C 6.734375 -2.164062 7.867188 -1.65625 9.359375 -1.65625 C 10.441406 -1.65625 11.359375 -1.875 12.109375 -2.3125 C 12.867188 -2.757812 13.4375 -3.265625 13.8125 -3.828125 C 13.957031 -3.765625 14.09375 -3.640625 14.21875 -3.453125 C 14.34375 -3.265625 14.40625 -3.035156 14.40625 -2.765625 C 14.40625 -2.347656 14.207031 -1.898438 13.8125 -1.421875 C 13.414062 -0.953125 12.8125 -0.546875 12 -0.203125 C 11.195312 0.140625 10.171875 0.3125 8.921875 0.3125 Z M 11.953125 -9.796875 C 11.953125 -11.453125 11.695312 -12.785156 11.1875 -13.796875 C 10.675781 -14.804688 9.800781 -15.3125 8.5625 -15.3125 C 7.414062 -15.3125 6.523438 -14.835938 5.890625 -13.890625 C 5.265625 -12.941406 4.898438 -11.578125 4.796875 -9.796875 Z "/>
</g>
</g>
</defs>
<g fill="rgb(100%, 100%, 100%)" fill-opacity="1">
<use xlink:href="#glyph-0-0" x="30" y="53.256836"/>
<use xlink:href="#glyph-0-1" x="49" y="53.256836"/>
<use xlink:href="#glyph-0-2" x="67" y="53.256836"/>
<use xlink:href="#glyph-0-2" x="81" y="53.256836"/>
<use xlink:href="#glyph-0-3" x="95" y="53.256836"/>
<use xlink:href="#glyph-0-4" x="105" y="53.256836"/>
<use xlink:href="#glyph-0-3" x="124" y="53.256836"/>
<use xlink:href="#glyph-0-5" x="134" y="53.256836"/>
<use xlink:href="#glyph-0-3" x="144" y="53.256836"/>
<use xlink:href="#glyph-0-6" x="154" y="53.256836"/>
<use xlink:href="#glyph-0-3" x="165" y="53.256836"/>
<use xlink:href="#glyph-0-7" x="175" y="53.256836"/>
<use xlink:href="#glyph-0-2" x="192" y="53.256836"/>
</g>
</svg>
