<?xml version="1.0" encoding="UTF-8"?>
<svg xmlns="http://www.w3.org/2000/svg" xmlns:xlink="http://www.w3.org/1999/xlink" width="854" height="480" viewBox="0 0 854 480">
<defs>
<g>
<g id="glyph-0-0">
<path d="M 1.609375 0 L 1.609375 -1.765625 L 2.15625 -1.765625 C 3.113281 -1.765625 3.925781 -1.941406 4.59375 -2.296875 C 5.269531 -2.648438 5.609375 -3.488281 5.609375 -4.8125 L 5.609375 -25.5 C 5.609375 -26.738281 5.265625 -27.523438 4.578125 -27.859375 C 3.890625 -28.203125 3.082031 -28.375 2.15625 -28.375 L 1.609375 -28.375 L 1.609375 -30.140625 L 12.921875 -30.140625 C 16.578125 -30.140625 19.296875 -29.523438 21.078125 -28.296875 C 22.867188 -27.078125 23.765625 -25.175781 23.765625 -22.59375 C 23.765625 -20.707031 23.265625 -19.25 22.265625 -18.21875 C 21.265625 -17.1875 20.019531 -16.429688 18.53125 -15.953125 L 18.53125 -15.796875 C 20.445312 -15.453125 22.007812 -14.65625 23.21875 -13.40625 C 24.425781 -12.15625 25.03125 -10.398438 25.03125 -8.140625 C 25.03125 -2.710938 21.414062 0 14.1875 0 Z M 12.796875 -16.84375 C 15.265625 -16.84375 16.957031 -17.289062 17.875 -18.1875 C 18.789062 -19.09375 19.25 -20.5625 19.25 -22.59375 C 19.25 -24.675781 18.753906 -26.101562 17.765625 -26.875 C 16.785156 -27.644531 15.097656 -28.03125 12.703125 -28.03125 L 9.875 -28.03125 L 9.875 -16.84375 Z M 13.96875 -2.109375 C 16.363281 -2.109375 18.050781 -2.570312 19.03125 -3.5 C 20.019531 -4.425781 20.515625 -6.019531 20.515625 -8.28125 C 20.515625 -10.46875 20.054688 -12.085938 19.140625 -13.140625 C 18.234375 -14.203125 16.539062 -14.734375 14.0625 -14.734375 L 9.875 -14.734375 L 9.875 -2.109375 Z "/>
</g>
<g id="glyph-0-1">
<path d="M 11.53125 0.421875 C 9.300781 0.421875 7.582031 -0.226562 6.375 -1.53125 C 5.164062 -2.84375 4.5625 -4.953125 4.5625 -7.859375 L 4.5625 -17.984375 C 4.5625 -19.222656 4.210938 -20.007812 3.515625 -20.34375 C 2.828125 -20.6875 2.019531 -20.859375 1.09375 -20.859375 L 0.96875 -20.859375 L 0.96875 -22.625 L 8.53125 -22.625 L 8.53125 -8.0625 C 8.53125 -6.226562 8.835938 -4.804688 9.453125 -3.796875 C 10.078125 -2.785156 11.25 -2.28125 12.96875 -2.28125 C 14.820312 -2.28125 16.171875 -2.90625 17.015625 -4.15625 C 17.859375 -5.40625 18.28125 -7.0625 18.28125 -9.125 L 18.28125 -17.8125 C 18.28125 -19.132812 17.941406 -19.972656 17.265625 -20.328125 C 16.585938 -20.679688 15.769531 -20.859375 14.8125 -20.859375 L 14.6875 -20.859375 L 14.6875 -22.625 L 22.25 -22.625 L 22.25 -4.609375 C 22.25 -3.367188 22.59375 -2.582031 23.28125 -2.25 C 23.96875 -1.925781 24.78125 -1.765625 25.71875 -1.765625 L 25.84375 -1.765625 L 25.84375 0 L 19.125 0 L 18.578125 -3.421875 L 18.359375 -3.421875 C 17.492188 -1.847656 16.484375 -0.8125 15.328125 -0.3125 C 14.171875 0.175781 12.90625 0.421875 11.53125 0.421875 Z "/>
</g>
<g id="glyph-0-2">
<path d="M 14.984375 0.421875 C 13.347656 0.421875 12.015625 0.078125 10.984375 -0.609375 C 9.960938 -1.296875 9.144531 -2.191406 8.53125 -3.296875 L 8.28125 -3.296875 L 7.515625 0 L 0.765625 0 L 0.765625 -1.765625 L 1.09375 -1.765625 C 2.050781 -1.765625 2.867188 -1.941406 3.546875 -2.296875 C 4.222656 -2.648438 4.5625 -3.488281 4.5625 -4.8125 L 4.5625 -27.4375 C 4.5625 -28.675781 4.210938 -29.460938 3.515625 -29.796875 C 2.828125 -30.140625 2.019531 -30.3125 1.09375 -30.3125 L 0.765625 -30.3125 L 0.765625 -32.09375 L 8.53125 -32.09375 L 8.53125 -24.3125 C 8.53125 -23.832031 8.519531 -23.21875 8.5 -22.46875 C 8.488281 -21.726562 8.46875 -21.015625 8.4375 -20.328125 C 8.414062 -19.640625 8.390625 -19.140625 8.359375 -18.828125 L 8.53125 -18.828125 C 9.175781 -20.117188 10.003906 -21.144531 11.015625 -21.90625 C 12.023438 -22.664062 13.347656 -23.046875 14.984375 -23.046875 C 17.773438 -23.046875 19.90625 -22.109375 21.375 -20.234375 C 22.851562 -18.367188 23.59375 -15.410156 23.59375 -11.359375 C 23.59375 -7.273438 22.851562 -4.289062 21.375 -2.40625 C 19.90625 -0.519531 17.773438 0.421875 14.984375 0.421875 Z M 14.3125 -2.28125 C 16.164062 -2.28125 17.492188 -3.0625 18.296875 -4.625 C 19.097656 -6.1875 19.5 -8.445312 19.5 -11.40625 C 19.5 -14.414062 19.097656 -16.65625 18.296875 -18.125 C 17.492188 -19.601562 16.148438 -20.34375 14.265625 -20.34375 C 12.078125 -20.34375 10.570312 -19.601562 9.75 -18.125 C 8.9375 -16.65625 8.53125 -14.398438 8.53125 -11.359375 C 8.53125 -8.429688 8.9375 -6.1875 9.75 -4.625 C 10.570312 -3.0625 12.09375 -2.28125 14.3125 -2.28125 Z "/>
</g>
<g id="glyph-0-3">
<path d="M 0.546875 0 L 0.546875 -1.765625 L 1.09375 -1.765625 C 2.050781 -1.765625 2.867188 -1.941406 3.546875 -2.296875 C 4.222656 -2.648438 4.5625 -3.488281 4.5625 -4.8125 L 4.5625 -27.4375 C 4.5625 -28.675781 4.210938 -29.460938 3.515625 -29.796875 C 2.828125 -30.140625 2.019531 -30.3125 1.09375 -30.3125 L 0.546875 -30.3125 L 0.546875 -32.09375 L 8.53125 -32.09375 L 8.53125 -4.8125 C 8.53125 -3.488281 8.863281 -2.648438 9.53125 -2.296875 C 10.207031 -1.941406 11.023438 -1.765625 11.984375 -1.765625 L 12.53125 -1.765625 L 12.53125 0 Z "/>
</g>
<g id="glyph-0-4">
<path d="M 12.109375 0.421875 C 9.046875 0.421875 6.648438 -0.585938 4.921875 -2.609375 C 3.191406 -4.640625 2.328125 -7.484375 2.328125 -11.140625 C 2.328125 -15.085938 3.140625 -18.054688 4.765625 -20.046875 C 6.398438 -22.046875 8.707031 -23.046875 11.6875 -23.046875 C 14.425781 -23.046875 16.570312 -22.203125 18.125 -20.515625 C 19.6875 -18.828125 20.46875 -16.3125 20.46875 -12.96875 L 20.46875 -11.015625 L 6.421875 -11.015625 C 6.472656 -7.953125 7.023438 -5.722656 8.078125 -4.328125 C 9.140625 -2.929688 10.679688 -2.234375 12.703125 -2.234375 C 14.171875 -2.234375 15.414062 -2.535156 16.4375 -3.140625 C 17.46875 -3.742188 18.238281 -4.425781 18.75 -5.1875 C 18.945312 -5.101562 19.128906 -4.9375 19.296875 -4.6875 C 19.460938 -4.4375 19.546875 -4.125 19.546875 -3.75 C 19.546875 -3.1875 19.273438 -2.582031 18.734375 -1.9375 C 18.203125 -1.289062 17.390625 -0.734375 16.296875 -0.265625 C 15.203125 0.191406 13.804688 0.421875 12.109375 0.421875 Z M 16.21875 -13.296875 C 16.21875 -15.546875 15.867188 -17.351562 15.171875 -18.71875 C 14.484375 -20.082031 13.296875 -20.765625 11.609375 -20.765625 C 10.054688 -20.765625 8.851562 -20.125 8 -18.84375 C 7.144531 -17.570312 6.644531 -15.722656 6.5 -13.296875 Z "/>
</g>
<g id="glyph-0-5">
</g>
<g id="glyph-0-6">
<path d="M 10.421875 0.421875 C 7.671875 0.421875 5.582031 -0.125 4.15625 -1.21875 C 2.738281 -2.320312 2.03125 -3.757812 2.03125 -5.53125 C 2.03125 -6.375 2.296875 -7.054688 2.828125 -7.578125 C 3.359375 -8.097656 4.101562 -8.359375 5.0625 -8.359375 C 5.125 -7.203125 5.347656 -6.109375 5.734375 -5.078125 C 6.128906 -4.054688 6.734375 -3.226562 7.546875 -2.59375 C 8.367188 -1.957031 9.441406 -1.640625 10.765625 -1.640625 C 12.648438 -1.640625 14.125 -2.097656 15.1875 -3.015625 C 16.257812 -3.929688 16.796875 -5.25 16.796875 -6.96875 C 16.796875 -8.007812 16.59375 -8.890625 16.1875 -9.609375 C 15.78125 -10.328125 15.101562 -10.992188 14.15625 -11.609375 C 13.21875 -12.222656 11.921875 -12.867188 10.265625 -13.546875 C 7.640625 -14.617188 5.6875 -15.875 4.40625 -17.3125 C 3.125 -18.75 2.484375 -20.617188 2.484375 -22.921875 C 2.484375 -24.523438 2.882812 -25.894531 3.6875 -27.03125 C 4.488281 -28.175781 5.585938 -29.050781 6.984375 -29.65625 C 8.378906 -30.257812 9.960938 -30.5625 11.734375 -30.5625 C 14.242188 -30.5625 16.1875 -30.082031 17.5625 -29.125 C 18.9375 -28.175781 19.625 -27.082031 19.625 -25.84375 C 19.625 -24.9375 19.320312 -24.25 18.71875 -23.78125 C 18.113281 -23.320312 17.304688 -23.09375 16.296875 -23.09375 C 16.296875 -23.96875 16.144531 -24.8125 15.84375 -25.625 C 15.550781 -26.4375 15.0625 -27.109375 14.375 -27.640625 C 13.6875 -28.179688 12.75 -28.453125 11.5625 -28.453125 C 9.9375 -28.453125 8.671875 -28.015625 7.765625 -27.140625 C 6.867188 -26.273438 6.421875 -25.109375 6.421875 -23.640625 C 6.421875 -22.515625 6.625 -21.5625 7.03125 -20.78125 C 7.4375 -20.007812 8.117188 -19.320312 9.078125 -18.71875 C 10.035156 -18.113281 11.332031 -17.472656 12.96875 -16.796875 C 15.4375 -15.785156 17.359375 -14.617188 18.734375 -13.296875 C 20.117188 -11.972656 20.8125 -10.226562 20.8125 -8.0625 C 20.8125 -5.382812 19.875 -3.300781 18 -1.8125 C 16.132812 -0.320312 13.609375 0.421875 10.421875 0.421875 Z "/>
</g>
<g id="glyph-0-7">
<path d="M 12.109375 0.421875 C 9.078125 0.421875 6.6875 -0.546875 4.9375 -2.484375 C 3.195312 -4.429688 2.328125 -7.390625 2.328125 -11.359375 C 2.328125 -15.296875 3.160156 -18.226562 4.828125 -20.15625 C 6.503906 -22.082031 8.976562 -23.046875 12.25 -23.046875 C 15.28125 -23.046875 17.664062 -22.082031 19.40625 -20.15625 C 21.15625 -18.226562 22.03125 -15.296875 22.03125 -11.359375 C 22.03125 -7.390625 21.191406 -4.429688 19.515625 -2.484375 C 17.847656 -0.546875 15.378906 0.421875 12.109375 0.421875 Z M 12.203125 -1.765625 C 14.316406 -1.765625 15.800781 -2.570312 16.65625 -4.1875 C 17.507812 -5.8125 17.9375 -8.203125 17.9375 -11.359375 C 17.9375 -14.503906 17.5 -16.863281 16.625 -18.4375 C 15.757812 -20.019531 14.269531 -20.8125 12.15625 -20.8125 C 10.050781 -20.8125 8.566406 -20.019531 7.703125 -18.4375 C 6.847656 -16.863281 6.421875 -14.503906 6.421875 -11.359375 C 6.421875 -8.203125 6.851562 -5.8125 7.71875 -4.1875 C 8.59375 -2.570312 10.085938 -1.765625 12.203125 -1.765625 Z "/>
</g>
<g id="glyph-0-8">
<path d="M 1.390625 0 L 1.390625 -1.765625 L 1.515625 -1.765625 C 2.472656 -1.765625 3.289062 -1.941406 3.96875 -2.296875 C 4.644531 -2.648438 4.984375 -3.488281 4.984375 -4.8125 L 4.984375 -17.984375 C 4.984375 -19.222656 4.632812 -20.007812 3.9375 -20.34375 C 3.25 -20.6875 2.441406 -20.859375 1.515625 -20.859375 L 1.390625 -20.859375 L 1.390625 -22.625 L 7.890625 -22.625 L 8.703125 -18.453125 L 8.90625 -18.453125 C 9.269531 -19.296875 9.660156 -20.066406 10.078125 -20.765625 C 10.503906 -21.472656 11.066406 -22.03125 11.765625 -22.4375 C 12.472656 -22.84375 13.445312 -23.046875 14.6875 -23.046875 C 16.238281 -23.046875 17.382812 -22.78125 18.125 -22.25 C 18.875 -21.71875 19.25 -20.957031 19.25 -19.96875 C 19.25 -19.09375 18.945312 -18.375 18.34375 -17.8125 C 17.738281 -17.25 16.734375 -16.96875 15.328125 -16.96875 C 15.328125 -18.125 15.15625 -18.960938 14.8125 -19.484375 C 14.476562 -20.003906 13.90625 -20.265625 13.09375 -20.265625 C 12.300781 -20.265625 11.632812 -19.953125 11.09375 -19.328125 C 10.5625 -18.710938 10.140625 -17.925781 9.828125 -16.96875 C 9.523438 -16.007812 9.300781 -15.015625 9.15625 -13.984375 C 9.019531 -12.960938 8.953125 -12.046875 8.953125 -11.234375 L 8.953125 -4.609375 C 8.953125 -3.367188 9.296875 -2.582031 9.984375 -2.25 C 10.671875 -1.925781 11.476562 -1.765625 12.40625 -1.765625 L 13.59375 -1.765625 L 13.59375 0 Z "/>
</g>
<g id="glyph-0-9">
<path d="M 10.125 0.421875 C 7.988281 0.421875 6.4375 -0.0625 5.46875 -1.03125 C 4.5 -2 4.015625 -3.695312 4.015625 -6.125 L 4.015625 -20.21875 L 0.796875 -20.21875 L 0.796875 -21.90625 C 1.304688 -21.90625 1.867188 -22.007812 2.484375 -22.21875 C 3.109375 -22.4375 3.644531 -22.785156 4.09375 -23.265625 C 4.570312 -23.765625 4.960938 -24.378906 5.265625 -25.109375 C 5.578125 -25.847656 5.832031 -26.753906 6.03125 -27.828125 L 7.984375 -27.828125 L 7.984375 -22.625 L 13.515625 -22.625 L 13.515625 -20.21875 L 7.984375 -20.21875 L 7.984375 -6 C 7.984375 -4.5625 8.273438 -3.503906 8.859375 -2.828125 C 9.453125 -2.148438 10.226562 -1.8125 11.1875 -1.8125 C 11.695312 -1.8125 12.160156 -1.835938 12.578125 -1.890625 C 13.003906 -1.953125 13.441406 -2.023438 13.890625 -2.109375 L 13.890625 -0.25 C 13.523438 -0.0820312 12.972656 0.0664062 12.234375 0.203125 C 11.503906 0.347656 10.800781 0.421875 10.125 0.421875 Z "/>
</g>
</g>
</defs>
<g fill="rgb(61.176471%, 86.27451%, 92.156863%)" fill-opacity="1">
<use xlink:href="#glyph-0-0" x="30" y="65.135742"/>
<use xlink:href="#glyph-0-1" x="58" y="65.135742"/>
<use xlink:href="#glyph-0-2" x="85" y="65.135742"/>
<use xlink:href="#glyph-0-2" x="111" y="65.135742"/>
<use xlink:href="#glyph-0-3" x="137" y="65.135742"/>
<use xlink:href="#glyph-0-4" x="150" y="65.135742"/>
<use xlink:href="#glyph-0-5" x="173" y="65.135742"/>
<use xlink:href="#glyph-0-6" x="184" y="65.135742"/>
<use xlink:href="#glyph-0-7" x="207" y="65.135742"/>
<use xlink:href="#glyph-0-8" x="231" y="65.135742"/>
<use xlink:href="#glyph-0-9" x="251" y="65.135742"/>
</g>
</svg>
