<?xml version="1.0" encoding="UTF-8"?>
<svg xmlns="http://www.w3.org/2000/svg" xmlns:xlink="http://www.w3.org/1999/xlink" width="854" height="480" viewBox="0 0 854 480">
<defs>
<g>
<g id="glyph-0-0">
<path d="M 0.40625 0 L 0.40625 -0.4375 L 0.53125 -0.4375 C 0.769531 -0.4375 0.972656 -0.476562 1.140625 -0.5625 C 1.316406 -0.65625 1.40625 -0.867188 1.40625 -1.203125 L 1.40625 -6.375 C 1.40625 -6.6875 1.316406 -6.882812 1.140625 -6.96875 C 0.972656 -7.050781 0.769531 -7.09375 0.53125 -7.09375 L 0.40625 -7.09375 L 0.40625 -7.546875 L 3.234375 -7.546875 C 4.148438 -7.546875 4.832031 -7.390625 5.28125 -7.078125 C 5.726562 -6.773438 5.953125 -6.300781 5.953125 -5.65625 C 5.953125 -5.175781 5.828125 -4.804688 5.578125 -4.546875 C 5.328125 -4.296875 5.015625 -4.113281 4.640625 -4 L 4.640625 -3.953125 C 5.117188 -3.867188 5.507812 -3.671875 5.8125 -3.359375 C 6.113281 -3.046875 6.265625 -2.601562 6.265625 -2.03125 C 6.265625 -0.675781 5.359375 0 3.546875 0 Z M 3.203125 -4.21875 C 3.816406 -4.21875 4.238281 -4.328125 4.46875 -4.546875 C 4.695312 -4.773438 4.8125 -5.144531 4.8125 -5.65625 C 4.8125 -6.175781 4.6875 -6.53125 4.4375 -6.71875 C 4.195312 -6.914062 3.773438 -7.015625 3.171875 -7.015625 L 2.46875 -7.015625 L 2.46875 -4.21875 Z M 3.5 -0.53125 C 4.09375 -0.53125 4.515625 -0.644531 4.765625 -0.875 C 5.015625 -1.101562 5.140625 -1.5 5.140625 -2.0625 C 5.140625 -2.613281 5.023438 -3.019531 4.796875 -3.28125 C 4.566406 -3.550781 4.140625 -3.6875 3.515625 -3.6875 L 2.46875 -3.6875 L 2.46875 -0.53125 Z "/>
</g>
<g id="glyph-0-1">
<path d="M 2.890625 0.109375 C 2.328125 0.109375 1.894531 -0.0507812 1.59375 -0.375 C 1.289062 -0.707031 1.140625 -1.238281 1.140625 -1.96875 L 1.140625 -4.5 C 1.140625 -4.8125 1.050781 -5.007812 0.875 -5.09375 C 0.707031 -5.175781 0.507812 -5.21875 0.28125 -5.21875 L 0.25 -5.21875 L 0.25 -5.65625 L 2.140625 -5.65625 L 2.140625 -2.015625 C 2.140625 -1.554688 2.210938 -1.203125 2.359375 -0.953125 C 2.515625 -0.703125 2.8125 -0.578125 3.25 -0.578125 C 3.707031 -0.578125 4.039062 -0.734375 4.25 -1.046875 C 4.46875 -1.359375 4.578125 -1.769531 4.578125 -2.28125 L 4.578125 -4.453125 C 4.578125 -4.785156 4.488281 -4.992188 4.3125 -5.078125 C 4.144531 -5.171875 3.941406 -5.21875 3.703125 -5.21875 L 3.671875 -5.21875 L 3.671875 -5.65625 L 5.5625 -5.65625 L 5.5625 -1.15625 C 5.5625 -0.84375 5.644531 -0.644531 5.8125 -0.5625 C 5.988281 -0.476562 6.195312 -0.4375 6.4375 -0.4375 L 6.46875 -0.4375 L 6.46875 0 L 4.78125 0 L 4.640625 -0.859375 L 4.59375 -0.859375 C 4.375 -0.460938 4.117188 -0.203125 3.828125 -0.078125 C 3.546875 0.046875 3.234375 0.109375 2.890625 0.109375 Z "/>
</g>
<g id="glyph-0-2">
<path d="M 3.75 0.109375 C 3.34375 0.109375 3.007812 0.0234375 2.75 -0.140625 C 2.488281 -0.316406 2.285156 -0.546875 2.140625 -0.828125 L 2.0625 -0.828125 L 1.875 0 L 0.1875 0 L 0.1875 -0.4375 L 0.28125 -0.4375 C 0.519531 -0.4375 0.722656 -0.476562 0.890625 -0.5625 C 1.054688 -0.65625 1.140625 -0.867188 1.140625 -1.203125 L 1.140625 -6.859375 C 1.140625 -7.171875 1.050781 -7.367188 0.875 -7.453125 C 0.707031 -7.535156 0.507812 -7.578125 0.28125 -7.578125 L 0.1875 -7.578125 L 0.1875 -8.03125 L 2.140625 -8.03125 L 2.140625 -6.078125 C 2.140625 -5.960938 2.132812 -5.8125 2.125 -5.625 C 2.125 -5.4375 2.117188 -5.253906 2.109375 -5.078125 C 2.109375 -4.910156 2.101562 -4.785156 2.09375 -4.703125 L 2.140625 -4.703125 C 2.296875 -5.035156 2.5 -5.296875 2.75 -5.484375 C 3.007812 -5.671875 3.34375 -5.765625 3.75 -5.765625 C 4.445312 -5.765625 4.976562 -5.53125 5.34375 -5.0625 C 5.71875 -4.59375 5.90625 -3.851562 5.90625 -2.84375 C 5.90625 -1.820312 5.71875 -1.070312 5.34375 -0.59375 C 4.976562 -0.125 4.445312 0.109375 3.75 0.109375 Z M 3.578125 -0.578125 C 4.046875 -0.578125 4.378906 -0.769531 4.578125 -1.15625 C 4.773438 -1.550781 4.875 -2.117188 4.875 -2.859375 C 4.875 -3.609375 4.773438 -4.164062 4.578125 -4.53125 C 4.378906 -4.90625 4.039062 -5.09375 3.5625 -5.09375 C 3.019531 -5.09375 2.644531 -4.90625 2.4375 -4.53125 C 2.238281 -4.164062 2.140625 -3.601562 2.140625 -2.84375 C 2.140625 -2.113281 2.238281 -1.550781 2.4375 -1.15625 C 2.644531 -0.769531 3.023438 -0.578125 3.578125 -0.578125 Z "/>
</g>
<g id="glyph-0-3">
<path d="M 0.140625 0 L 0.140625 -0.4375 L 0.28125 -0.4375 C 0.519531 -0.4375 0.722656 -0.476562 0.890625 -0.5625 C 1.054688 -0.65625 1.140625 -0.867188 1.140625 -1.203125 L 1.140625 -6.859375 C 1.140625 -7.171875 1.050781 -7.367188 0.875 -7.453125 C 0.707031 -7.535156 0.507812 -7.578125 0.28125 -7.578125 L 0.140625 -7.578125 L 0.140625 -8.03125 L 2.140625 -8.03125 L 2.140625 -1.203125 C 2.140625 -0.867188 2.222656 -0.65625 2.390625 -0.5625 C 2.554688 -0.476562 2.757812 -0.4375 3 -0.4375 L 3.140625 -0.4375 L 3.140625 0 Z "/>
</g>
<g id="glyph-0-4">
<path d="M 3.03125 0.109375 C 2.257812 0.109375 1.65625 -0.144531 1.21875 -0.65625 C 0.789062 -1.164062 0.578125 -1.875 0.578125 -2.78125 C 0.578125 -3.769531 0.78125 -4.515625 1.1875 -5.015625 C 1.601562 -5.515625 2.179688 -5.765625 2.921875 -5.765625 C 3.609375 -5.765625 4.144531 -5.550781 4.53125 -5.125 C 4.925781 -4.707031 5.125 -4.082031 5.125 -3.25 L 5.125 -2.75 L 1.609375 -2.75 C 1.617188 -1.988281 1.753906 -1.429688 2.015625 -1.078125 C 2.285156 -0.734375 2.671875 -0.5625 3.171875 -0.5625 C 3.546875 -0.5625 3.859375 -0.632812 4.109375 -0.78125 C 4.367188 -0.9375 4.5625 -1.109375 4.6875 -1.296875 C 4.738281 -1.273438 4.785156 -1.234375 4.828125 -1.171875 C 4.867188 -1.109375 4.890625 -1.03125 4.890625 -0.9375 C 4.890625 -0.800781 4.820312 -0.648438 4.6875 -0.484375 C 4.550781 -0.328125 4.347656 -0.1875 4.078125 -0.0625 C 3.804688 0.0507812 3.457031 0.109375 3.03125 0.109375 Z M 4.0625 -3.328125 C 4.0625 -3.890625 3.972656 -4.34375 3.796875 -4.6875 C 3.617188 -5.03125 3.320312 -5.203125 2.90625 -5.203125 C 2.519531 -5.203125 2.21875 -5.039062 2 -4.71875 C 1.78125 -4.394531 1.65625 -3.929688 1.625 -3.328125 Z "/>
</g>
<g id="glyph-0-5">
</g>
<g id="glyph-0-6">
<path d="M 2.609375 0.109375 C 1.921875 0.109375 1.394531 -0.0234375 1.03125 -0.296875 C 0.675781 -0.578125 0.5 -0.941406 0.5 -1.390625 C 0.5 -1.597656 0.566406 -1.765625 0.703125 -1.890625 C 0.835938 -2.023438 1.023438 -2.09375 1.265625 -2.09375 C 1.273438 -1.800781 1.328125 -1.523438 1.421875 -1.265625 C 1.523438 -1.015625 1.679688 -0.804688 1.890625 -0.640625 C 2.097656 -0.484375 2.363281 -0.40625 2.6875 -0.40625 C 3.164062 -0.40625 3.535156 -0.519531 3.796875 -0.75 C 4.066406 -0.976562 4.203125 -1.3125 4.203125 -1.75 C 4.203125 -2.007812 4.148438 -2.226562 4.046875 -2.40625 C 3.941406 -2.582031 3.769531 -2.75 3.53125 -2.90625 C 3.300781 -3.0625 2.976562 -3.222656 2.5625 -3.390625 C 1.90625 -3.660156 1.414062 -3.972656 1.09375 -4.328125 C 0.78125 -4.691406 0.625 -5.160156 0.625 -5.734375 C 0.625 -6.140625 0.722656 -6.484375 0.921875 -6.765625 C 1.117188 -7.046875 1.390625 -7.257812 1.734375 -7.40625 C 2.085938 -7.5625 2.488281 -7.640625 2.9375 -7.640625 C 3.5625 -7.640625 4.046875 -7.519531 4.390625 -7.28125 C 4.734375 -7.039062 4.90625 -6.769531 4.90625 -6.46875 C 4.90625 -6.238281 4.828125 -6.066406 4.671875 -5.953125 C 4.523438 -5.835938 4.328125 -5.78125 4.078125 -5.78125 C 4.078125 -6 4.039062 -6.207031 3.96875 -6.40625 C 3.894531 -6.613281 3.769531 -6.785156 3.59375 -6.921875 C 3.425781 -7.054688 3.191406 -7.125 2.890625 -7.125 C 2.484375 -7.125 2.164062 -7.015625 1.9375 -6.796875 C 1.71875 -6.578125 1.609375 -6.285156 1.609375 -5.921875 C 1.609375 -5.640625 1.65625 -5.398438 1.75 -5.203125 C 1.851562 -5.003906 2.023438 -4.828125 2.265625 -4.671875 C 2.503906 -4.523438 2.832031 -4.367188 3.25 -4.203125 C 3.863281 -3.953125 4.34375 -3.660156 4.6875 -3.328125 C 5.03125 -2.992188 5.203125 -2.554688 5.203125 -2.015625 C 5.203125 -1.347656 4.96875 -0.828125 4.5 -0.453125 C 4.03125 -0.078125 3.398438 0.109375 2.609375 0.109375 Z "/>
</g>
<g id="glyph-0-7">
<path d="M 3.03125 0.109375 C 2.269531 0.109375 1.671875 -0.132812 1.234375 -0.625 C 0.796875 -1.113281 0.578125 -1.851562 0.578125 -2.84375 C 0.578125 -3.820312 0.785156 -4.550781 1.203125 -5.03125 C 1.628906 -5.519531 2.25 -5.765625 3.0625 -5.765625 C 3.820312 -5.765625 4.421875 -5.519531 4.859375 -5.03125 C 5.296875 -4.550781 5.515625 -3.820312 5.515625 -2.84375 C 5.515625 -1.851562 5.300781 -1.113281 4.875 -0.625 C 4.457031 -0.132812 3.84375 0.109375 3.03125 0.109375 Z M 3.046875 -0.4375 C 3.578125 -0.4375 3.945312 -0.640625 4.15625 -1.046875 C 4.375 -1.453125 4.484375 -2.050781 4.484375 -2.84375 C 4.484375 -3.632812 4.375 -4.222656 4.15625 -4.609375 C 3.9375 -5.003906 3.566406 -5.203125 3.046875 -5.203125 C 2.515625 -5.203125 2.140625 -5.003906 1.921875 -4.609375 C 1.710938 -4.222656 1.609375 -3.632812 1.609375 -2.84375 C 1.609375 -2.050781 1.71875 -1.453125 1.9375 -1.046875 C 2.15625 -0.640625 2.523438 -0.4375 3.046875 -0.4375 Z "/>
</g>
<g id="glyph-0-8">
<path d="M 0.34375 0 L 0.34375 -0.4375 L 0.375 -0.4375 C 0.613281 -0.4375 0.816406 -0.476562 0.984375 -0.5625 C 1.160156 -0.65625 1.25 -0.867188 1.25 -1.203125 L 1.25 -4.5 C 1.25 -4.8125 1.160156 -5.007812 0.984375 -5.09375 C 0.816406 -5.175781 0.613281 -5.21875 0.375 -5.21875 L 0.34375 -5.21875 L 0.34375 -5.65625 L 1.96875 -5.65625 L 2.171875 -4.609375 L 2.234375 -4.609375 C 2.316406 -4.828125 2.410156 -5.019531 2.515625 -5.1875 C 2.628906 -5.363281 2.773438 -5.503906 2.953125 -5.609375 C 3.128906 -5.710938 3.367188 -5.765625 3.671875 -5.765625 C 4.054688 -5.765625 4.34375 -5.695312 4.53125 -5.5625 C 4.71875 -5.425781 4.8125 -5.238281 4.8125 -5 C 4.8125 -4.78125 4.734375 -4.597656 4.578125 -4.453125 C 4.429688 -4.316406 4.179688 -4.25 3.828125 -4.25 C 3.828125 -4.53125 3.785156 -4.734375 3.703125 -4.859375 C 3.617188 -4.992188 3.476562 -5.0625 3.28125 -5.0625 C 3.082031 -5.0625 2.914062 -4.984375 2.78125 -4.828125 C 2.644531 -4.679688 2.535156 -4.488281 2.453125 -4.25 C 2.378906 -4.007812 2.320312 -3.757812 2.28125 -3.5 C 2.25 -3.238281 2.234375 -3.007812 2.234375 -2.8125 L 2.234375 -1.15625 C 2.234375 -0.84375 2.316406 -0.644531 2.484375 -0.5625 C 2.660156 -0.476562 2.867188 -0.4375 3.109375 -0.4375 L 3.40625 -0.4375 L 3.40625 0 Z "/>
</g>
<g id="glyph-0-9">
<path d="M 2.53125 0.109375 C 2 0.109375 1.609375 -0.0078125 1.359375 -0.25 C 1.117188 -0.5 1 -0.925781 1 -1.53125 L 1 -5.0625 L 0.203125 -5.0625 L 0.203125 -5.484375 C 0.328125 -5.484375 0.46875 -5.507812 0.625 -5.5625 C 0.78125 -5.613281 0.914062 -5.695312 1.03125 -5.8125 C 1.144531 -5.945312 1.238281 -6.101562 1.3125 -6.28125 C 1.394531 -6.46875 1.460938 -6.691406 1.515625 -6.953125 L 2 -6.953125 L 2 -5.65625 L 3.375 -5.65625 L 3.375 -5.0625 L 2 -5.0625 L 2 -1.5 C 2 -1.144531 2.070312 -0.878906 2.21875 -0.703125 C 2.363281 -0.535156 2.554688 -0.453125 2.796875 -0.453125 C 2.921875 -0.453125 3.035156 -0.457031 3.140625 -0.46875 C 3.253906 -0.488281 3.363281 -0.507812 3.46875 -0.53125 L 3.46875 -0.0625 C 3.382812 -0.0195312 3.25 0.015625 3.0625 0.046875 C 2.875 0.0859375 2.695312 0.109375 2.53125 0.109375 Z "/>
</g>
</g>
</defs>
<g fill="rgb(61.176471%, 86.27451%, 92.156863%)" fill-opacity="1">
<use xlink:href="#glyph-0-0" x="30" y="31.28418"/>
<use xlink:href="#glyph-0-1" x="37" y="31.28418"/>
<use xlink:href="#glyph-0-2" x="44" y="31.28418"/>
<use xlink:href="#glyph-0-2" x="50" y="31.28418"/>
<use xlink:href="#glyph-0-3" x="56" y="31.28418"/>
<use xlink:href="#glyph-0-4" x="59" y="31.28418"/>
<use xlink:href="#glyph-0-5" x="65" y="31.28418"/>
<use xlink:href="#glyph-0-6" x="68" y="31.28418"/>
<use xlink:href="#glyph-0-7" x="74" y="31.28418"/>
<use xlink:href="#glyph-0-8" x="80" y="31.28418"/>
<use xlink:href="#glyph-0-9" x="85" y="31.28418"/>
</g>
</svg>
